<svg width="50" height="50" viewBox="0 0 50 50" fill="none" xmlns="http://www.w3.org/2000/svg">
<path fill-rule="evenodd" clip-rule="evenodd" d="M50 25C50 38.8071 38.8071 50 25 50C11.1929 50 0 38.8071 0 25C0 11.1929 11.1929 0 25 0C38.8071 0 50 11.1929 50 25ZM10.006 13.8468C10.0906 12.7455 11.052 11.9213 12.1533 12.0059L25.1683 13.0059L25.2505 13.0122L25.3328 13.0059L38.3477 12.0059C39.4491 11.9213 40.4105 12.7455 40.4951 13.8468C40.5797 14.9481 39.7555 15.9095 38.6542 15.9941L29.5001 16.6975V25.7675L34.4035 42.3103C34.7174 43.3693 34.1134 44.4823 33.0544 44.7962C31.9954 45.1101 30.8824 44.5061 30.5685 43.4471L25.9898 28H24.5112L19.9326 43.4471C19.6187 44.5061 18.5057 45.1101 17.4467 44.7962C16.3876 44.4823 15.7836 43.3693 16.0975 42.3103L20.5001 27.4573V16.659L11.8469 15.9941C10.7456 15.9095 9.92135 14.9481 10.006 13.8468ZM25.2501 11.5C27.045 11.5 28.5001 10.0449 28.5001 8.25C28.5001 6.45507 27.045 5 25.2501 5C23.4552 5 22.0001 6.45507 22.0001 8.25C22.0001 10.0449 23.4552 11.5 25.2501 11.5Z" fill="black"/>
</svg>
