<svg width="50" height="34" viewBox="0 0 50 34" fill="none" xmlns="http://www.w3.org/2000/svg">
<path d="M49.298 11.9192C47.4774 13.7949 40.295 15.6505 35.1232 16.9209C35.1232 16.9209 35.1232 16.9209 35.1232 16.951C33.3426 20.7823 31.5587 24.6102 29.7714 28.4349C29.1912 29.6753 28.626 30.9357 28.0208 32.1511C27.7461 32.6273 27.3274 33.004 26.8249 33.2269C26.3224 33.4498 25.7622 33.5075 25.2248 33.3915C24.7238 33.2634 24.2843 32.9621 23.984 32.541C23.6838 32.1199 23.5422 31.6062 23.5843 31.0908C23.6443 27.4245 23.6943 23.7533 23.7843 20.087C23.7899 20.0288 23.7899 19.9702 23.7843 19.912C18.3875 21.3725 11.6602 23.1831 8.88428 23.8783C8.17486 24.0824 7.41941 24.0596 6.72354 23.8133C5.80323 23.4482 5.37808 22.7129 4.77288 21.8126C3.31238 19.5868 1.77186 17.4061 0.376383 15.1453C0.220762 14.9469 0.109441 14.7175 0.0499113 14.4725C-0.00961858 14.2275 -0.0159766 13.9725 0.0312651 13.7249C0.0915311 13.535 0.198102 13.3631 0.341371 13.2247C0.651225 12.9545 1.04358 12.7975 1.45426 12.7794C1.86494 12.7612 2.26964 12.8829 2.60214 13.1247C4.20268 14.3051 5.81323 15.4755 7.40878 16.6659C7.51084 16.7507 7.63309 16.8076 7.76366 16.8313C7.89423 16.855 8.0287 16.8445 8.15403 16.8009C12.1321 15.7505 16.1134 14.6885 20.0981 13.6148C20.3882 13.5398 20.5482 13.4748 20.5232 13.2847C20.5013 13.1705 20.4571 13.0617 20.3932 12.9646C18.5226 9.80352 16.6686 6.63578 14.8313 3.46136C14.5423 3.0325 14.4139 2.5154 14.4688 2.00117C14.5237 1.48693 14.7584 1.00858 15.1314 0.650406C15.5448 0.287313 16.0622 0.06383 16.61 0.0117474C17.1578 -0.0403351 17.708 0.0816348 18.1824 0.360307C19.3078 1.14057 20.4132 1.95085 21.5286 2.75112C24.9564 5.21196 28.3809 7.6778 31.8021 10.1486L31.8621 10.1836C31.939 10.2369 32.0257 10.2743 32.1172 10.2937C32.2641 10.3214 32.4156 10.3111 32.5573 10.2637C32.8874 10.1586 37.8891 8.58311 40.9702 8.263C41.9697 8.18464 42.9742 8.19803 43.9712 8.30301C45.0088 8.33101 46.0402 8.47189 47.0473 8.72315C48.2077 9.04326 49.7982 9.48841 49.9833 10.4237C50.1083 11.089 49.4981 11.7242 49.298 11.9192Z" fill="black"/>
</svg>
