<svg width="9" height="9" viewBox="0 0 9 9" fill="none" xmlns="http://www.w3.org/2000/svg">
<path d="M9 0.78712C9 0.588304 8.92102 0.39763 8.78044 0.257046C8.63985 0.116461 8.44918 0.037482 8.25036 0.037482L2.25326 0C2.05444 0 1.86377 0.0789796 1.72319 0.219564C1.5826 0.360148 1.50362 0.550821 1.50362 0.749638C1.50362 0.948454 1.5826 1.13913 1.72319 1.27971C1.86377 1.4203 2.05444 1.49928 2.25326 1.49928H6.42125L0.221742 7.71377C0.151479 7.78346 0.0957106 7.86637 0.0576525 7.95772C0.0195944 8.04907 0 8.14705 0 8.24602C0 8.34498 0.0195944 8.44296 0.0576525 8.53431C0.0957106 8.62566 0.151479 8.70857 0.221742 8.77826C0.29143 8.84852 0.374341 8.90429 0.465691 8.94235C0.557041 8.98041 0.655023 9 0.753984 9C0.852946 9 0.950927 8.98041 1.04228 8.94235C1.13363 8.90429 1.21654 8.84852 1.28623 8.77826L7.50072 2.56376V6.74674C7.50072 6.94556 7.5797 7.13623 7.72029 7.27681C7.86087 7.4174 8.05155 7.49638 8.25036 7.49638C8.44918 7.49638 8.63985 7.4174 8.78044 7.27681C8.92102 7.13623 9 6.94556 9 6.74674V0.78712Z" fill="black"/>
</svg>
