<svg width="50" height="36" viewBox="0 0 50 36" fill="none" xmlns="http://www.w3.org/2000/svg">
<path d="M49.5566 15.5453C48.7698 15.489 47.9831 16.1637 47.7583 17.0068L46.2969 21.2218C45.9037 21.9522 45.3417 21.3338 45.3974 20.997C45.4538 20.6597 46.5779 12.6229 46.5779 12.6229C46.7463 11.7798 46.6342 10.9367 45.7911 10.7683C44.948 10.5999 44.3302 11.2178 44.1612 12.0609C44.1612 12.0609 42.9808 19.5919 42.644 20.3223C42.3066 21.0528 41.9698 20.8281 41.9698 20.266C41.9698 19.9287 42.5319 10.8804 42.5319 10.8804C42.5882 10.0373 42.2509 9.25052 41.4078 9.19421C40.5647 9.13789 40.171 9.81259 40.1152 10.6557C40.1152 10.6557 39.2721 19.4792 39.2158 20.0976C39.1595 20.716 38.5974 20.7718 38.4854 20.0976C38.3733 19.4235 38.0359 12.2298 38.0359 12.2298C38.0359 11.3867 37.6428 10.6563 36.7992 10.6563C35.9561 10.6563 35.5624 11.3867 35.5624 12.2298C35.5624 12.2298 35.5061 19.5919 35.5624 20.9413C35.6187 22.4022 35.6745 26.0556 34.7193 26.1677C33.8199 26.2798 32.4153 25.2125 31.6285 24.0321C30.9543 23.0769 29.7739 22.4585 28.5377 22.6269C26.7394 22.8516 27.8072 24.2568 29.0434 25.6057C31.6848 28.4717 32.359 29.9895 33.652 31.8999C34.4951 33.1924 36.4624 35.2717 40.0589 35.2154C44.8923 35.1591 47.5899 33.2482 48.2083 24.9309C48.3204 23.0764 49.7256 17.2315 49.9503 16.5568C50.0624 16.4448 50.0066 15.5453 49.5566 15.5453Z" fill="black"/>
<path d="M0.0496998 16.5573C0.274414 17.2314 1.67958 23.0768 1.79166 24.9314C2.41004 33.2492 5.10774 35.1601 9.94106 35.2158C13.5376 35.2722 15.5048 33.1929 16.3479 31.9003C17.641 29.9894 18.3152 28.4722 20.9566 25.6061C22.1933 24.2572 23.2611 22.8521 21.4623 22.6274C20.2255 22.459 19.0456 23.0768 18.3715 24.0325C17.5847 25.213 16.1796 26.2802 15.2807 26.1681C14.3255 26.0561 14.3813 22.4026 14.4376 20.9417C14.4939 19.5929 14.4376 12.2302 14.4376 12.2302C14.4376 11.3871 14.0445 10.6567 13.2008 10.6567C12.3577 10.6567 11.9641 11.3871 11.9641 12.2302C11.9641 12.2302 11.6267 19.4239 11.5146 20.0981C11.4025 20.7722 10.8405 20.7164 10.7842 20.0981C10.7278 19.4797 9.88474 10.6561 9.88474 10.6561C9.82899 9.81302 9.43531 9.13888 8.59221 9.19463C7.74911 9.25039 7.41176 10.0377 7.46808 10.8808C7.46808 10.8808 8.03015 19.9291 8.03015 20.2664C8.03015 20.8285 7.69336 21.0532 7.356 20.3228C7.01865 19.5923 5.83876 12.0613 5.83876 12.0613C5.67037 11.2182 5.05198 10.6004 4.20888 10.7688C3.36578 10.9372 3.25314 11.7803 3.4221 12.6234C3.4221 12.6234 4.54623 20.6601 4.60255 20.9975C4.65831 21.3343 4.09681 21.9526 3.70313 21.2222L2.24165 17.0072C2.01693 16.1641 1.23015 15.49 0.443372 15.5458C-0.00661962 15.5452 -0.0623757 16.4446 0.0496998 16.5573Z" fill="black"/>
<path d="M25.9127 0H24.106V9.63511H25.9127V0Z" fill="black"/>
<path d="M20.0073 0.789815L18.3096 1.40771L21.6048 10.4618L23.3026 9.84392L20.0073 0.789815Z" fill="black"/>
<path d="M14.6961 3.46559L13.3121 4.62695L19.5056 12.0074L20.8895 10.8461L14.6961 3.46559Z" fill="black"/>
<path d="M35.3023 3.35608L29.1089 10.7366L30.4928 11.8979L36.6863 4.51744L35.3023 3.35608Z" fill="black"/>
<path d="M30.0203 0.704677L26.7251 9.75879L28.4229 10.3767L31.7181 1.32258L30.0203 0.704677Z" fill="black"/>
</svg>
