<svg width="50" height="50" viewBox="0 0 50 50" fill="none" xmlns="http://www.w3.org/2000/svg">
<path d="M36.0406 12.7595H13.9536C13.6348 12.7595 13.3739 12.4986 13.3739 12.1798C13.3739 11.861 13.6348 11.6001 13.9536 11.6001H36.0406C36.3594 11.6001 36.6203 11.861 36.6203 12.1798C36.6203 12.4986 36.3594 12.7595 36.0406 12.7595Z" fill="black"/>
<path d="M33.2464 17.571H16.7478C16.429 17.571 16.1681 17.3102 16.1681 16.9913C16.1681 16.6725 16.429 16.4116 16.7478 16.4116H33.2406C33.5594 16.4116 33.8203 16.6725 33.8203 16.9913C33.8203 17.3102 33.5652 17.571 33.2464 17.571Z" fill="black"/>
<path d="M24.9971 41.0608C19.3275 41.0608 14.713 36.4463 14.713 30.7767C14.713 25.1072 19.3275 20.4927 24.9971 20.4927C30.6666 20.4927 35.2811 25.1072 35.2811 30.7767C35.2811 36.4463 30.6666 41.0608 24.9971 41.0608ZM24.9971 22.8057C20.6029 22.8057 17.0319 26.3825 17.0319 30.7709C17.0319 35.1651 20.6087 38.7362 24.9971 38.7362C29.3913 38.7362 32.9623 35.1593 32.9623 30.7709C32.9623 26.3825 29.3913 22.8057 24.9971 22.8057Z" fill="black"/>
<path d="M24.9971 36.1853C22.0116 36.1853 19.5884 33.7563 19.5884 30.7766C19.5884 27.7969 22.0174 25.3679 24.9971 25.3679C27.9768 25.3679 30.4058 27.7969 30.4058 30.7766C30.4058 33.7563 27.9768 36.1853 24.9971 36.1853ZM24.9971 26.5273C22.655 26.5273 20.7478 28.4346 20.7478 30.7766C20.7478 33.1186 22.655 35.0259 24.9971 35.0259C27.3391 35.0259 29.2464 33.1186 29.2464 30.7766C29.2464 28.4346 27.3391 26.5273 24.9971 26.5273Z" fill="black"/>
<path d="M31.0492 49.8433C30.6028 49.8433 30.1913 49.5883 30 49.1767L25.8666 40.3941C25.5942 39.8143 25.8434 39.1245 26.4231 38.852C27.0028 38.5796 27.6927 38.8288 27.9652 39.4085L30.7072 45.2288L31.1652 43.3564C31.2463 43.0201 31.4724 42.7419 31.7797 42.5912C32.0869 42.4404 32.4463 42.4346 32.7594 42.5738L34.6086 43.397L31.7913 37.5013C31.513 36.9216 31.7565 36.2317 32.3362 35.9535C32.9101 35.6752 33.6057 35.9187 33.884 36.4984L38.0695 45.2346C38.2782 45.6752 38.1913 46.197 37.855 46.5448C37.5188 46.8926 36.9971 46.9912 36.5507 46.7941L33.0898 45.252L32.1797 48.9622C32.0637 49.4375 31.6579 49.7912 31.171 49.8375C31.1246 49.8375 31.0898 49.8433 31.0492 49.8433Z" fill="black"/>
<path d="M18.945 49.8433C18.9044 49.8433 18.8696 49.8433 18.829 49.8375C18.3421 49.7911 17.9363 49.4375 17.8203 48.9621L16.9102 45.252L13.4493 46.794C13.0029 46.9911 12.4812 46.8926 12.145 46.5389C11.8087 46.1911 11.7218 45.6636 11.9363 45.2288L15.4783 37.9476C15.7566 37.3737 16.4522 37.1302 17.0261 37.4143C17.6 37.6926 17.8435 38.3882 17.5595 38.9621L15.4087 43.3853L17.2348 42.5737C17.5479 42.4346 17.9073 42.4404 18.2145 42.5911C18.5218 42.7418 18.7479 43.0201 18.829 43.3563L19.287 45.2288L22.029 39.4085C22.3015 38.8288 22.9971 38.5795 23.5711 38.852C24.1508 39.1244 24.4 39.8143 24.1276 40.394L19.9884 49.1766C19.7971 49.5882 19.3855 49.8433 18.945 49.8433Z" fill="black"/>
<path d="M48.8348 37.3391H33.513C32.8754 37.3391 32.3536 36.8174 32.3536 36.1797C32.3536 35.542 32.8754 35.0203 33.513 35.0203H47.6754V2.31884H2.31884V35.0203H15.9188C16.5565 35.0203 17.0783 35.542 17.0783 36.1797C17.0783 36.8174 16.5565 37.3391 15.9188 37.3391H1.15942C0.521739 37.3391 0 36.8174 0 36.1797V1.15942C0 0.521739 0.521739 0 1.15942 0H48.8406C49.4783 0 50 0.521739 50 1.15942V36.1797C49.9942 36.8232 49.4783 37.3391 48.8348 37.3391Z" fill="black"/>
<path d="M5.5188 11.8203C5.19996 11.8203 4.93909 11.5594 4.93909 11.2406V5.35071C4.93909 5.03187 5.19996 4.771 5.5188 4.771H11.4087C11.7275 4.771 11.9884 5.03187 11.9884 5.35071C11.9884 5.66955 11.7275 5.93042 11.4087 5.93042H6.09851V11.2406C6.09851 11.5594 5.83764 11.8203 5.5188 11.8203Z" fill="black"/>
<path d="M44.4754 11.8203C44.1566 11.8203 43.8957 11.5594 43.8957 11.2406V5.93042H38.5856C38.2667 5.93042 38.0059 5.66955 38.0059 5.35071C38.0059 5.03187 38.2667 4.771 38.5856 4.771H44.4754C44.7943 4.771 45.0551 5.03187 45.0551 5.35071V11.2406C45.0551 11.5594 44.8001 11.8203 44.4754 11.8203Z" fill="black"/>
<path d="M44.4754 32.5739H38.5856C38.2667 32.5739 38.0059 32.3131 38.0059 31.9942C38.0059 31.6754 38.2667 31.4145 38.5856 31.4145H43.8957V26.1044C43.8957 25.7855 44.1566 25.5247 44.4754 25.5247C44.7943 25.5247 45.0551 25.7855 45.0551 26.1044V31.9942C45.0551 32.3189 44.8001 32.5739 44.4754 32.5739Z" fill="black"/>
<path d="M11.4087 32.5739H5.5188C5.19996 32.5739 4.93909 32.3131 4.93909 31.9942V26.1044C4.93909 25.7855 5.19996 25.5247 5.5188 25.5247C5.83764 25.5247 6.09851 25.7855 6.09851 26.1044V31.4145H11.4087C11.7275 31.4145 11.9884 31.6754 11.9884 31.9942C11.9884 32.3131 11.7275 32.5739 11.4087 32.5739Z" fill="black"/>
</svg>
