<svg width="742" height="404" viewBox="0 0 742 404" fill="none" xmlns="http://www.w3.org/2000/svg">
<g opacity="0.65">
<path d="M363.553 172.265C361.888 176.141 357.318 178.688 350.196 179.835C343.102 180.977 333.629 180.701 322.425 179.081C300.023 175.842 270.815 167.249 240.12 154.06C209.424 140.872 183.086 125.599 165.317 111.579C156.429 104.567 149.708 97.8855 145.654 91.9534C141.583 85.9976 140.286 80.9293 141.951 77.0533C143.616 73.1772 148.186 70.6297 155.308 69.4831C162.402 68.341 171.875 68.6173 183.079 70.2374C205.481 73.4765 234.689 82.0696 265.384 95.2579C296.08 108.446 322.418 123.719 340.187 137.739C349.075 144.751 355.796 151.433 359.85 157.365C363.921 163.32 365.218 168.389 363.553 172.265Z" stroke="white"/>
<path d="M136 79.4999C81 141.5 82.9998 325 160.5 353.5C237.999 382 355.5 245.5 365.5 176.5" stroke="white"/>
<line x1="83.1814" y1="329.534" x2="232.181" y2="387.534" stroke="white"/>
<path d="M118.46 88.1962C118.46 88.1962 75.5 60.0002 46 88.0002C16.4999 116 72.4599 220.196 72.4599 220.196" stroke="white"/>
<path d="M129.142 160.521C129.142 160.521 162 239.5 226 215C290 190.5 341.142 223.521 341.142 223.521" stroke="white"/>
<path d="M378.289 172.265C379.954 176.141 384.524 178.688 391.646 179.835C398.74 180.977 408.213 180.701 419.417 179.081C441.819 175.842 471.027 167.249 501.722 154.06C532.418 140.872 558.756 125.599 576.525 111.579C585.413 104.567 592.134 97.8855 596.188 91.9534C600.259 85.9976 601.557 80.9293 599.891 77.0533C598.226 73.1772 593.656 70.6297 586.534 69.4831C579.44 68.341 569.967 68.6173 558.763 70.2374C536.361 73.4765 507.153 82.0696 476.458 95.2579C445.762 108.446 419.424 123.719 401.655 137.739C392.767 144.751 386.047 151.433 381.992 157.365C377.921 163.32 376.624 168.389 378.289 172.265Z" stroke="white"/>
<path d="M605.842 79.4999C660.842 141.5 658.842 325 581.343 353.5C503.843 382 386.342 245.5 376.342 176.5" stroke="white"/>
<line y1="-0.5" x2="159.891" y2="-0.5" transform="matrix(-0.931887 0.362748 0.362748 0.931887 658.842 330)" stroke="white"/>
<path d="M623.382 88.1962C623.382 88.1962 666.342 60.0002 695.842 88.0002C725.342 116 669.382 220.196 669.382 220.196" stroke="white"/>
<path d="M612.7 160.521C612.7 160.521 579.842 239.5 515.842 215C451.842 190.5 400.7 223.521 400.7 223.521" stroke="white"/>
<line x1="365.5" y1="79.0074" x2="364.515" y2="12.0071" stroke="white"/>
<line x1="316.534" y1="76.1803" x2="287.534" y2="1.18032" stroke="white"/>
<line x1="418.526" y1="74.84" x2="443.526" y2="0.839963" stroke="white"/>
</g>
</svg>
