<svg width="1416" height="978" viewBox="0 0 1416 978" fill="none" xmlns="http://www.w3.org/2000/svg">
<g opacity="0.5">
<rect opacity="0.2" x="619" width="170.859" height="150.702" fill="white"/>
<rect opacity="0.2" x="871.434" width="170.859" height="150.702" fill="white"/>
<rect opacity="0.2" x="1058.92" width="170.859" height="150.702" fill="white"/>
<rect opacity="0.2" x="1245.14" width="170.859" height="150.702" fill="white"/>
<rect opacity="0.2" x="619" y="165.1" width="170.859" height="150.702" fill="white"/>
<rect opacity="0.2" x="1058.92" y="165.1" width="170.859" height="150.702" fill="white"/>
<rect opacity="0.2" x="1245.14" y="165.1" width="170.859" height="150.702" fill="white"/>
<rect opacity="0.2" x="619" y="330.2" width="170.859" height="150.702" fill="white"/>
<rect opacity="0.2" x="1058.92" y="330.2" width="170.859" height="150.702" fill="white"/>
<rect opacity="0.2" x="1245.14" y="330.2" width="170.859" height="150.702" fill="white"/>
<rect opacity="0.2" x="1245.14" y="495.299" width="170.859" height="150.702" fill="white"/>
<rect opacity="0.2" x="644.917" y="19.1977" width="121.905" height="11.5186" fill="white"/>
<rect opacity="0.2" x="644.917" y="39.3552" width="121.905" height="11.5186" fill="white"/>
<rect opacity="0.2" x="644.917" y="59.5127" width="92.1487" height="11.5186" fill="white"/>
<rect opacity="0.2" x="1082.92" y="187.177" width="121.905" height="11.5186" fill="white"/>
<rect opacity="0.2" x="1082.92" y="207.335" width="121.905" height="11.5186" fill="white"/>
<rect opacity="0.2" x="1082.92" y="227.492" width="92.1487" height="11.5186" fill="white"/>
<rect opacity="0.2" x="1082.92" y="352.277" width="121.905" height="11.5186" fill="white"/>
<rect opacity="0.2" x="1082.92" y="372.434" width="121.905" height="11.5186" fill="white"/>
<rect opacity="0.2" x="1082.92" y="392.592" width="92.1487" height="11.5186" fill="white"/>
<rect opacity="0.2" x="1268.18" y="187.177" width="121.905" height="11.5186" fill="white"/>
<rect opacity="0.2" x="1268.18" y="207.335" width="121.905" height="11.5186" fill="white"/>
<rect opacity="0.2" x="1268.18" y="227.492" width="92.1487" height="11.5186" fill="white"/>
<rect opacity="0.2" x="1245.14" y="827" width="170.859" height="150.702" fill="white"/>
<rect opacity="0.2" x="1268.18" y="849.077" width="121.905" height="11.5186" fill="white"/>
<rect opacity="0.2" x="1268.18" y="869.235" width="121.905" height="11.5186" fill="white"/>
<rect opacity="0.2" x="1268.18" y="889.392" width="92.1487" height="11.5186" fill="white"/>
<rect opacity="0.2" x="894.472" y="19.1977" width="121.905" height="11.5186" fill="white"/>
<rect opacity="0.2" x="894.472" y="39.3552" width="121.905" height="11.5186" fill="white"/>
<rect opacity="0.2" width="170.859" height="150.702" fill="white"/>
<rect opacity="0.2" x="23.0372" y="19.1977" width="121.905" height="11.5186" fill="white"/>
<rect opacity="0.2" x="23.0372" y="39.3552" width="121.905" height="11.5186" fill="white"/>
<rect opacity="0.2" x="1082.92" y="19.1977" width="121.905" height="11.5186" fill="white"/>
<rect opacity="0.2" x="1082.92" y="39.3552" width="121.905" height="11.5186" fill="white"/>
<rect opacity="0.2" x="1269.14" y="352.277" width="121.905" height="11.5186" fill="white"/>
<rect opacity="0.2" x="1269.14" y="372.434" width="121.905" height="11.5186" fill="white"/>
<rect opacity="0.2" x="1245.14" y="661" width="170.859" height="150.702" fill="white"/>
<rect opacity="0.2" x="1269.14" y="683.077" width="121.905" height="11.5186" fill="white"/>
<rect opacity="0.2" x="1269.14" y="703.235" width="121.905" height="11.5186" fill="white"/>
<rect opacity="0.2" x="644.917" y="187.177" width="121.905" height="11.5186" fill="white"/>
<rect opacity="0.2" x="644.917" y="207.335" width="121.905" height="11.5186" fill="white"/>
<rect opacity="0.2" x="870" y="165.1" width="170.859" height="150.702" fill="white"/>
<rect opacity="0.2" x="895.917" y="187.177" width="121.905" height="11.5186" fill="white"/>
<rect opacity="0.2" x="895.917" y="207.335" width="121.905" height="11.5186" fill="white"/>
<rect opacity="0.2" x="644.917" y="352.277" width="121.905" height="11.5186" fill="white"/>
<rect opacity="0.2" x="644.917" y="372.434" width="121.905" height="11.5186" fill="white"/>
<rect opacity="0.2" x="644.917" y="392.592" width="121.905" height="11.5186" fill="white"/>
<rect opacity="0.2" x="644.917" y="412.75" width="61.4325" height="11.5186" fill="white"/>
<rect opacity="0.2" x="433" width="170.859" height="150.702" fill="white"/>
<rect opacity="0.2" x="433" y="165.1" width="170.859" height="150.702" fill="white"/>
<rect opacity="0.2" x="433" y="330.2" width="170.859" height="150.702" fill="white"/>
<rect opacity="0.2" x="458.917" y="19.1977" width="121.905" height="11.5186" fill="white"/>
<rect opacity="0.2" x="458.917" y="39.3552" width="121.905" height="11.5186" fill="white"/>
<rect opacity="0.2" x="458.917" y="59.5127" width="92.1487" height="11.5186" fill="white"/>
<rect opacity="0.2" x="458.917" y="187.177" width="121.905" height="11.5186" fill="white"/>
<rect opacity="0.2" x="458.917" y="207.335" width="121.905" height="11.5186" fill="white"/>
<rect opacity="0.2" x="458.917" y="352.277" width="121.905" height="11.5186" fill="white"/>
<rect opacity="0.2" x="458.917" y="372.434" width="121.905" height="11.5186" fill="white"/>
<rect opacity="0.2" x="458.917" y="392.592" width="121.905" height="11.5186" fill="white"/>
<rect opacity="0.2" x="458.917" y="412.75" width="61.4325" height="11.5186" fill="white"/>
<rect opacity="0.2" x="250" width="170.859" height="150.702" fill="white"/>
<rect opacity="0.2" x="250" y="165.1" width="170.859" height="150.702" fill="white"/>
<rect opacity="0.2" x="275.917" y="19.1977" width="121.905" height="11.5186" fill="white"/>
<rect opacity="0.2" x="275.917" y="39.3552" width="121.905" height="11.5186" fill="white"/>
<rect opacity="0.2" x="275.917" y="59.5127" width="92.1487" height="11.5186" fill="white"/>
<rect opacity="0.2" x="275.917" y="187.177" width="121.905" height="11.5186" fill="white"/>
<rect opacity="0.2" x="275.917" y="207.335" width="121.905" height="11.5186" fill="white"/>
<rect opacity="0.2" x="433" y="497" width="170.859" height="150.702" fill="white"/>
<rect opacity="0.2" x="458.917" y="519.077" width="121.905" height="11.5186" fill="white"/>
<rect opacity="0.2" x="458.917" y="539.235" width="121.905" height="11.5186" fill="white"/>
<rect opacity="0.2" x="1267.22" y="19.1977" width="121.905" height="11.5186" fill="white"/>
<rect opacity="0.2" x="1267.22" y="39.3552" width="121.905" height="11.5186" fill="white"/>
<rect opacity="0.2" x="1267.22" y="59.5127" width="121.905" height="11.5186" fill="white"/>
<rect opacity="0.2" x="1267.22" y="79.6703" width="61.4325" height="11.5186" fill="white"/>
<rect opacity="0.2" x="1267.22" y="518.337" width="121.905" height="11.5186" fill="white"/>
<rect opacity="0.2" x="1267.22" y="538.494" width="121.905" height="11.5186" fill="white"/>
<rect opacity="0.2" x="1267.22" y="558.652" width="121.905" height="11.5186" fill="white"/>
<rect opacity="0.2" x="1267.22" y="578.809" width="61.4325" height="11.5186" fill="white"/>
</g>
</svg>
