<svg width="789" height="475" viewBox="0 0 789 475" fill="none" xmlns="http://www.w3.org/2000/svg">
<rect y="324" width="170.859" height="150.702" fill="#FBF7F9"/>
<rect x="23.0372" y="343.198" width="121.905" height="11.5186" fill="#CCC4CE" fill-opacity="0.4"/>
<rect x="23.0372" y="363.355" width="121.905" height="11.5186" fill="#CCC4CE" fill-opacity="0.4"/>
<rect x="434" y="324" width="170.859" height="150.702" fill="#D0C6D8" fill-opacity="0.4"/>
<rect x="457.037" y="343.198" width="121.905" height="11.5186" fill="#FEF8F4"/>
<rect x="457.037" y="363.355" width="121.905" height="11.5186" fill="#FEF8F4"/>
<rect x="434" y="162" width="170.859" height="150.702" fill="#FBF7F9"/>
<rect x="457.037" y="181.198" width="121.905" height="11.5186" fill="#CCC4CE" fill-opacity="0.4"/>
<rect x="457.037" y="201.355" width="90" height="11.5186" fill="#CCC4CE" fill-opacity="0.4"/>
<rect x="618" y="162" width="170.859" height="150.702" fill="#CCC4CE" fill-opacity="0.4"/>
<rect x="641.037" y="181.198" width="121.905" height="11.5186" fill="#FEF8F4"/>
<rect x="641.037" y="201.355" width="121.905" height="11.5186" fill="#FEF8F4"/>
<rect x="618" width="170.859" height="150.702" fill="#CDCDC9" fill-opacity="0.4"/>
<rect x="641.037" y="19.1976" width="121.905" height="11.5186" fill="#FEF8F4"/>
<rect x="641.037" y="39.3552" width="121.905" height="11.5186" fill="#FEF8F4"/>
<rect x="249" y="324" width="170.859" height="150.702" fill="#E3E6DF" fill-opacity="0.4"/>
<rect x="272.037" y="343.198" width="121.905" height="11.5186" fill="#CCC4CE" fill-opacity="0.4"/>
<rect x="272.037" y="363.355" width="121.905" height="11.5186" fill="#CCC4CE" fill-opacity="0.4"/>
<rect x="273.037" y="383.355" width="121.905" height="11.5186" fill="#CCC4CE" fill-opacity="0.4"/>
<rect x="618" y="324" width="170.859" height="150.702" fill="#E5D5E4" fill-opacity="0.4"/>
<rect x="641.037" y="343.198" width="121.905" height="11.5186" fill="#F0E5E9"/>
<rect x="641.037" y="363.355" width="121.905" height="11.5186" fill="#F0E5E9"/>
<rect x="642" y="383" width="90" height="12" fill="#F0E5E9"/>
</svg>
