<svg width="797" height="481" viewBox="0 0 797 481" fill="none" xmlns="http://www.w3.org/2000/svg">
<rect opacity="0.15" width="170.859" height="150.702" fill="white"/>
<rect opacity="0.2" x="252.435" width="170.859" height="150.702" fill="white"/>
<rect opacity="0.3" x="439.924" width="170.859" height="150.702" fill="white"/>
<rect opacity="0.3" x="626.141" width="170.859" height="150.702" fill="white"/>
<rect opacity="0.2" x="626.141" y="165.1" width="170.859" height="150.702" fill="white"/>
<rect opacity="0.3" x="626.141" y="330.2" width="170.859" height="150.702" fill="white"/>
<rect opacity="0.2" x="25.9167" y="19.1978" width="121.905" height="11.5186" fill="white"/>
<rect opacity="0.2" x="25.9167" y="39.3552" width="121.905" height="11.5186" fill="white"/>
<rect opacity="0.2" x="25.9167" y="59.5127" width="92.1487" height="11.5186" fill="white"/>
<rect opacity="0.2" x="649.178" y="187.177" width="121.905" height="11.5186" fill="white"/>
<rect opacity="0.2" x="649.178" y="207.335" width="121.905" height="11.5186" fill="white"/>
<rect opacity="0.2" x="649.178" y="227.492" width="92.1487" height="11.5186" fill="white"/>
<rect opacity="0.2" x="275.472" y="19.1978" width="121.905" height="11.5186" fill="white"/>
<rect opacity="0.2" x="275.472" y="39.3552" width="121.905" height="11.5186" fill="white"/>
<rect opacity="0.3" x="463.921" y="19.1978" width="121.905" height="11.5186" fill="white"/>
<rect opacity="0.3" x="463.921" y="39.3552" width="121.905" height="11.5186" fill="white"/>
<rect opacity="0.3" x="650.138" y="352.277" width="121.905" height="11.5186" fill="white"/>
<rect opacity="0.3" x="650.138" y="372.435" width="121.905" height="11.5186" fill="white"/>
<rect opacity="0.1" x="251" y="165.1" width="170.859" height="150.702" fill="white"/>
<rect opacity="0.2" x="276.917" y="187.177" width="121.905" height="11.5186" fill="white"/>
<rect opacity="0.2" x="276.917" y="207.335" width="121.905" height="11.5186" fill="white"/>
<rect opacity="0.3" x="648.218" y="19.1978" width="121.905" height="11.5186" fill="white"/>
<rect opacity="0.3" x="648.218" y="39.3552" width="121.905" height="11.5186" fill="white"/>
<rect opacity="0.3" x="648.218" y="59.5127" width="121.905" height="11.5186" fill="white"/>
<rect opacity="0.3" x="648.218" y="79.6704" width="61.4325" height="11.5186" fill="white"/>
</svg>
