<svg width="909" height="636" viewBox="0 0 909 636" fill="none" xmlns="http://www.w3.org/2000/svg">
<rect x="550" y="485" width="170.859" height="150.702" fill="#D0C6D8" fill-opacity="0.4"/>
<rect x="573.037" y="504.198" width="121.905" height="11.5186" fill="#FEF8F4"/>
<rect x="573.037" y="524.355" width="121.905" height="11.5186" fill="#FEF8F4"/>
<rect x="183" y="-2" width="170.859" height="150.702" fill="#FBF7F9"/>
<rect x="206.037" y="17.1976" width="121.905" height="11.5186" fill="#CCC4CE" fill-opacity="0.4"/>
<rect x="206.037" y="37.3552" width="121.905" height="11.5186" fill="#CCC4CE" fill-opacity="0.4"/>
<rect x="366" y="323" width="170.859" height="150.702" fill="#E3E6DF" fill-opacity="0.4"/>
<rect x="389.037" y="342.198" width="121.905" height="11.5186" fill="#CCC4CE" fill-opacity="0.4"/>
<rect x="389.037" y="362.355" width="121.905" height="11.5186" fill="#CCC4CE" fill-opacity="0.4"/>
<rect x="390.037" y="382.355" width="121.905" height="11.5186" fill="#CCC4CE" fill-opacity="0.4"/>
<rect x="738" y="485" width="170.859" height="150.702" fill="#E5D5E4" fill-opacity="0.4"/>
<rect x="761.037" y="504.198" width="121.905" height="11.5186" fill="#F0E5E9"/>
<rect x="761.037" y="524.355" width="121.905" height="11.5186" fill="#F0E5E9"/>
<rect x="762" y="544" width="90" height="12" fill="#F0E5E9"/>
<rect y="-2" width="170.859" height="150.702" fill="#E5D5E4" fill-opacity="0.4"/>
<rect x="23.0372" y="17.1976" width="121.905" height="11.5186" fill="#CCC4CE" fill-opacity="0.4"/>
<rect x="23.0372" y="37.3552" width="121.905" height="11.5186" fill="#CCC4CE" fill-opacity="0.4"/>
<rect x="24" y="57" width="90" height="12" fill="#CCC4CE" fill-opacity="0.4"/>
<rect x="550" width="359" height="149" fill="#F0E4E4"/>
<rect x="550" y="320" width="359" height="149" fill="#ECE8EF"/>
<rect x="550" y="160" width="359" height="149" fill="#F4F5F2"/>
<rect x="366" y="309" width="311" height="171" transform="rotate(-90 366 309)" fill="#F5EEF4"/>
<rect x="391" y="156" width="122.582" height="11.5186" fill="#EBE7EB"/>
<rect x="391" y="176" width="122.582" height="11.5186" fill="#EBE7EB"/>
<rect x="391" y="196" width="122.582" height="11.5186" fill="#EBE7EB"/>
<rect x="391" y="216.157" width="122.582" height="11.5186" fill="#EBE7EB"/>
<rect x="391.968" y="235.802" width="90.5" height="12" fill="#EBE7EB"/>
<ellipse cx="450.328" cy="79" rx="50.2778" ry="50" fill="#F0E4E4"/>
<rect x="594" y="23" width="100" height="100" fill="#E4E1E4"/>
<g opacity="0.8">
<rect x="706" y="23" width="45" height="45" fill="#FBF7F9"/>
<rect x="763" y="23" width="45" height="45" fill="#FBF7F9"/>
<rect x="820" y="23" width="45" height="45" fill="#FBF7F9"/>
<rect x="706" y="78" width="45" height="45" fill="#FBF7F9"/>
<rect x="763" y="78" width="45" height="45" fill="#FBF7F9"/>
<rect x="820" y="78" width="45" height="45" fill="#FBF7F9"/>
</g>
<rect x="765" y="184" width="100" height="100" fill="#F0E4E4"/>
<rect x="594" y="344" width="100" height="100" fill="#FBF7F9" fill-opacity="0.7"/>
<rect x="594" y="184" width="45" height="45" fill="#E4E1E4"/>
<rect x="651" y="184" width="45" height="45" fill="#E4E1E4"/>
<rect x="708" y="184" width="45" height="45" fill="#E4E1E4"/>
<rect x="594" y="239" width="45" height="45" fill="#E4E1E4"/>
<rect x="651" y="239" width="45" height="45" fill="#E4E1E4"/>
<rect x="708" y="239" width="45" height="45" fill="#E4E1E4"/>
<rect x="706" y="344" width="45" height="45" fill="#E4E1E4"/>
<rect x="763" y="344" width="45" height="45" fill="#E4E1E4"/>
<rect x="820" y="344" width="45" height="45" fill="#E4E1E4"/>
<rect x="706" y="399" width="45" height="45" fill="#E4E1E4"/>
<rect x="763" y="399" width="45" height="45" fill="#E4E1E4"/>
<rect x="820" y="399" width="45" height="45" fill="#E4E1E4"/>
</svg>
