<svg width="909" height="636" viewBox="0 0 909 636" fill="none" xmlns="http://www.w3.org/2000/svg">
<rect x="550" y="323" width="170.859" height="150.702" fill="#FBF7F9"/>
<rect x="573.037" y="342.198" width="121.905" height="11.5186" fill="#CCC4CE" fill-opacity="0.4"/>
<rect x="573.037" y="362.355" width="90" height="11.5186" fill="#CCC4CE" fill-opacity="0.4"/>
<rect x="738" y="323" width="170.859" height="150.702" fill="#CCC4CE" fill-opacity="0.4"/>
<rect x="761.037" y="342.198" width="121.905" height="11.5186" fill="#FEF8F4"/>
<rect x="761.037" y="362.355" width="121.905" height="11.5186" fill="#FEF8F4"/>
<rect x="183" y="-2" width="170.859" height="150.702" fill="#FBF7F9"/>
<rect x="206.037" y="17.1976" width="121.905" height="11.5186" fill="#CCC4CE" fill-opacity="0.4"/>
<rect x="206.037" y="37.3552" width="121.905" height="11.5186" fill="#CCC4CE" fill-opacity="0.4"/>
<rect x="738" y="485" width="170.859" height="150.702" fill="#E5D5E4" fill-opacity="0.4"/>
<rect x="761.037" y="504.198" width="121.905" height="11.5186" fill="#F0E5E9"/>
<rect x="761.037" y="524.355" width="121.905" height="11.5186" fill="#F0E5E9"/>
<rect x="762" y="544" width="90" height="12" fill="#F0E5E9"/>
<rect y="-2" width="170.859" height="150.702" fill="#E5D5E4" fill-opacity="0.4"/>
<rect x="23.0372" y="17.1976" width="121.905" height="11.5186" fill="#CCC4CE" fill-opacity="0.4"/>
<rect x="23.0372" y="37.3552" width="121.905" height="11.5186" fill="#CCC4CE" fill-opacity="0.4"/>
<rect x="24" y="57" width="90" height="12" fill="#CCC4CE" fill-opacity="0.4"/>
<rect x="550" width="359" height="309" fill="#F0E4E4"/>
<ellipse cx="633.111" cy="149" rx="20.1111" ry="20" fill="#F7F2F7"/>
<ellipse cx="720.594" cy="209" rx="20.1111" ry="20" fill="#F7F2F7"/>
<ellipse cx="808.078" cy="209" rx="20.1111" ry="20" fill="#F7F2F7"/>
<ellipse cx="720.594" cy="89" rx="20.1111" ry="20" fill="#F7F2F7"/>
<ellipse cx="808.078" cy="89" rx="20.1111" ry="20" fill="#F7F2F7"/>
<line x1="740.706" y1="88" x2="787.967" y2="88" stroke="#FEF8F4" stroke-width="2"/>
<line x1="740.706" y1="208" x2="787.967" y2="208" stroke="#FEF8F4" stroke-width="2"/>
<line y1="-1" x2="66.541" y2="-1" transform="matrix(0.83115 -0.556048 0.560306 0.828286 648.194 136)" stroke="#FEF8F4" stroke-width="2"/>
<line y1="-1" x2="66.541" y2="-1" transform="matrix(0.83115 0.556048 0.560306 -0.828286 648.194 162)" stroke="#FEF8F4" stroke-width="2"/>
<rect x="366" y="3" width="170.859" height="150.702" fill="#E3E6DF" fill-opacity="0.4"/>
<rect x="389.037" y="22.1976" width="121.905" height="11.5186" fill="#CCC4CE" fill-opacity="0.4"/>
<rect x="389.037" y="42.3552" width="121.905" height="11.5186" fill="#CCC4CE" fill-opacity="0.4"/>
<rect x="390.037" y="62.3552" width="121.905" height="11.5186" fill="#CCC4CE" fill-opacity="0.4"/>
</svg>
