<svg width="909" height="798" viewBox="0 0 909 798" fill="none" xmlns="http://www.w3.org/2000/svg">
<rect x="550" y="485" width="170.859" height="150.702" fill="#D0C6D8" fill-opacity="0.4"/>
<rect x="573.037" y="504.198" width="121.905" height="11.5186" fill="#FEF8F4"/>
<rect x="573.037" y="524.355" width="121.905" height="11.5186" fill="#FEF8F4"/>
<rect x="550" y="323" width="170.859" height="150.702" fill="#FBF7F9"/>
<rect x="573.037" y="342.198" width="121.905" height="11.5186" fill="#CCC4CE" fill-opacity="0.4"/>
<rect x="573.037" y="362.355" width="90" height="11.5186" fill="#CCC4CE" fill-opacity="0.4"/>
<rect x="736" y="161" width="170.859" height="150.702" fill="#FBF7F9"/>
<rect x="759.037" y="180.198" width="121.905" height="11.5186" fill="#CCC4CE" fill-opacity="0.4"/>
<rect x="759.037" y="200.355" width="90" height="11.5186" fill="#CCC4CE" fill-opacity="0.4"/>
<rect x="738" y="323" width="170.859" height="150.702" fill="#CCC4CE" fill-opacity="0.4"/>
<rect x="761.037" y="342.198" width="121.905" height="11.5186" fill="#FEF8F4"/>
<rect x="761.037" y="362.355" width="121.905" height="11.5186" fill="#FEF8F4"/>
<rect x="369" y="-1" width="170.859" height="150.702" fill="#CCC4CE" fill-opacity="0.4"/>
<rect x="392.037" y="18.1976" width="121.905" height="11.5186" fill="#FEF8F4"/>
<rect x="392.037" y="38.3552" width="121.905" height="11.5186" fill="#FEF8F4"/>
<rect x="183" y="160" width="170.859" height="150.702" fill="#D9BCBB" fill-opacity="0.4"/>
<rect x="206.037" y="179.198" width="121.905" height="11.5186" fill="#FEF8F4"/>
<rect x="206.037" y="199.355" width="121.905" height="11.5186" fill="#FEF8F4"/>
<rect x="183" y="-2" width="170.859" height="150.702" fill="#FBF7F9"/>
<rect x="206.037" y="17.1976" width="121.905" height="11.5186" fill="#CCC4CE" fill-opacity="0.4"/>
<rect x="206.037" y="37.3552" width="121.905" height="11.5186" fill="#CCC4CE" fill-opacity="0.4"/>
<rect x="738" y="647" width="170.859" height="150.702" fill="#FBF7F9"/>
<rect x="761.037" y="666.198" width="121.905" height="11.5186" fill="#CCC4CE" fill-opacity="0.4"/>
<rect x="761.037" y="686.355" width="121.905" height="11.5186" fill="#CCC4CE" fill-opacity="0.4"/>
<rect x="555" y="161" width="170.859" height="150.702" fill="#E3E6DF" fill-opacity="0.4"/>
<rect x="578.037" y="180.198" width="121.905" height="11.5186" fill="#CCC4CE" fill-opacity="0.4"/>
<rect x="578.037" y="200.355" width="121.905" height="11.5186" fill="#CCC4CE" fill-opacity="0.4"/>
<rect x="579.037" y="220.355" width="121.905" height="11.5186" fill="#CCC4CE" fill-opacity="0.4"/>
<rect x="737" y="-1" width="170.859" height="150.702" fill="#E3E6DF" fill-opacity="0.4"/>
<rect x="760.037" y="18.1976" width="121.905" height="11.5186" fill="#CCC4CE" fill-opacity="0.4"/>
<rect x="760.037" y="38.3552" width="121.905" height="11.5186" fill="#CCC4CE" fill-opacity="0.4"/>
<rect x="761.037" y="58.3552" width="121.905" height="11.5186" fill="#CCC4CE" fill-opacity="0.4"/>
<rect x="738" y="485" width="170.859" height="150.702" fill="#E5D5E4" fill-opacity="0.4"/>
<rect x="761.037" y="504.198" width="121.905" height="11.5186" fill="#F0E5E9"/>
<rect x="761.037" y="524.355" width="121.905" height="11.5186" fill="#F0E5E9"/>
<rect x="762" y="544" width="90" height="12" fill="#F0E5E9"/>
<rect y="-2" width="170.859" height="150.702" fill="#E5D5E4" fill-opacity="0.4"/>
<rect x="23.0372" y="17.1976" width="121.905" height="11.5186" fill="#CCC4CE" fill-opacity="0.4"/>
<rect x="23.0372" y="37.3552" width="121.905" height="11.5186" fill="#CCC4CE" fill-opacity="0.4"/>
<rect x="24" y="57" width="90" height="12" fill="#CCC4CE" fill-opacity="0.4"/>
<rect x="555" y="-2" width="170.859" height="150.702" fill="#E5D5E4" fill-opacity="0.4"/>
<rect x="578.037" y="17.1976" width="121.905" height="11.5186" fill="#CCC4CE" fill-opacity="0.4"/>
<rect x="578.037" y="37.3552" width="121.905" height="11.5186" fill="#CCC4CE" fill-opacity="0.4"/>
<rect x="579" y="57" width="90" height="12" fill="#CCC4CE" fill-opacity="0.4"/>
</svg>
