<svg width="1414" height="637" viewBox="0 0 1414 637" fill="none" xmlns="http://www.w3.org/2000/svg">
<rect y="486" width="170.859" height="150.702" fill="#FBF7F9"/>
<rect x="23.0371" y="505.198" width="121.905" height="11.5186" fill="#CCC4CE" fill-opacity="0.4"/>
<rect x="23.0371" y="525.355" width="121.905" height="11.5186" fill="#CCC4CE" fill-opacity="0.4"/>
<rect x="434" y="486" width="170.859" height="150.702" fill="#D0C6D8" fill-opacity="0.4"/>
<rect x="457.037" y="505.198" width="121.905" height="11.5186" fill="#FEF8F4"/>
<rect x="457.037" y="525.355" width="121.905" height="11.5186" fill="#FEF8F4"/>
<rect x="434" y="324" width="170.859" height="150.702" fill="#FBF7F9"/>
<rect x="457.037" y="343.198" width="121.905" height="11.5186" fill="#CCC4CE" fill-opacity="0.4"/>
<rect x="457.037" y="363.355" width="90" height="11.5186" fill="#CCC4CE" fill-opacity="0.4"/>
<rect x="617" y="324" width="170.859" height="150.702" fill="#CCC4CE" fill-opacity="0.4"/>
<rect x="640.037" y="343.198" width="121.905" height="11.5186" fill="#FEF8F4"/>
<rect x="640.037" y="363.355" width="121.905" height="11.5186" fill="#FEF8F4"/>
<rect x="617" y="162" width="170.859" height="150.702" fill="#CDCDC9" fill-opacity="0.4"/>
<rect x="640.037" y="181.198" width="121.905" height="11.5186" fill="#FEF8F4"/>
<rect x="640.037" y="201.355" width="121.905" height="11.5186" fill="#FEF8F4"/>
<rect x="1057" y="162" width="170.859" height="150.702" fill="#D9BCBB" fill-opacity="0.4"/>
<rect x="1080.04" y="181.198" width="121.905" height="11.5186" fill="#FEF8F4"/>
<rect x="1080.04" y="201.355" width="121.905" height="11.5186" fill="#FEF8F4"/>
<rect x="1057" width="170.859" height="150.702" fill="#FBF7F9"/>
<rect x="1080.04" y="19.1976" width="121.905" height="11.5186" fill="#CCC4CE" fill-opacity="0.4"/>
<rect x="1080.04" y="39.3552" width="121.905" height="11.5186" fill="#CCC4CE" fill-opacity="0.4"/>
<rect x="1243" y="162" width="170.859" height="150.702" fill="#B9A9C9" fill-opacity="0.4"/>
<rect x="1266.04" y="181.198" width="121.905" height="11.5186" fill="#FEF8F4"/>
<rect x="1266.04" y="201.355" width="121.905" height="11.5186" fill="#FEF8F4"/>
<rect x="249" y="486" width="170.859" height="150.702" fill="#E3E6DF" fill-opacity="0.4"/>
<rect x="272.037" y="505.198" width="121.905" height="11.5186" fill="#CCC4CE" fill-opacity="0.4"/>
<rect x="272.037" y="525.355" width="121.905" height="11.5186" fill="#CCC4CE" fill-opacity="0.4"/>
<rect x="273.037" y="545.355" width="121.905" height="11.5186" fill="#CCC4CE" fill-opacity="0.4"/>
<rect x="618" y="486" width="170.859" height="150.702" fill="#E5D5E4" fill-opacity="0.4"/>
<rect x="641.037" y="505.198" width="121.905" height="11.5186" fill="#F0E5E9"/>
<rect x="641.037" y="525.355" width="121.905" height="11.5186" fill="#F0E5E9"/>
<rect x="642" y="545" width="90" height="12" fill="#F0E5E9"/>
<rect x="871" y="162" width="170.859" height="150.702" fill="#E5D5E4" fill-opacity="0.4"/>
<rect x="894.037" y="181.198" width="121.905" height="11.5186" fill="#CCC4CE" fill-opacity="0.4"/>
<rect x="894.037" y="201.355" width="121.905" height="11.5186" fill="#CCC4CE" fill-opacity="0.4"/>
<rect x="895" y="221" width="90" height="12" fill="#CCC4CE" fill-opacity="0.4"/>
<rect x="871" y="324" width="543" height="313" fill="#B9A9C9" fill-opacity="0.4"/>
<rect x="905.189" y="478" width="122.582" height="11.5186" fill="#F0F0EF"/>
<rect x="905.189" y="498" width="122.582" height="11.5186" fill="#F0F0EF"/>
<rect x="905.189" y="518" width="122.582" height="11.5186" fill="#F0F0EF"/>
<rect x="905.189" y="538.158" width="122.582" height="11.5186" fill="#F0F0EF"/>
<rect x="906.157" y="557.802" width="90.5" height="12" fill="#F0F0EF"/>
<ellipse cx="964.517" cy="401" rx="50.2778" ry="50" fill="#F7F2F7"/>
<ellipse cx="1091.22" cy="476" rx="20.1111" ry="20" fill="#F7F2F7"/>
<ellipse cx="1178.7" cy="476" rx="20.1111" ry="20" fill="#F7F2F7"/>
<ellipse cx="1266.18" cy="536" rx="20.1111" ry="20" fill="#F7F2F7"/>
<ellipse cx="1353.67" cy="536" rx="20.1111" ry="20" fill="#F7F2F7"/>
<ellipse cx="1266.18" cy="416" rx="20.1111" ry="20" fill="#F7F2F7"/>
<ellipse cx="1353.67" cy="416" rx="20.1111" ry="20" fill="#F7F2F7"/>
<line x1="1111.33" y1="475" x2="1158.59" y2="475" stroke="#FEF8F4" stroke-width="2"/>
<line x1="1286.29" y1="415" x2="1333.56" y2="415" stroke="#FEF8F4" stroke-width="2"/>
<line x1="1286.29" y1="535" x2="1333.56" y2="535" stroke="#FEF8F4" stroke-width="2"/>
<line y1="-1" x2="66.541" y2="-1" transform="matrix(0.83115 -0.556048 0.560306 0.828286 1193.78 463)" stroke="#FEF8F4" stroke-width="2"/>
<line y1="-1" x2="66.541" y2="-1" transform="matrix(0.83115 0.556048 0.560306 -0.828286 1193.78 489)" stroke="#FEF8F4" stroke-width="2"/>
</svg>
