<svg width="1414" height="637" viewBox="0 0 1414 637" fill="none" xmlns="http://www.w3.org/2000/svg">
<rect opacity="0.3" x="250.5" y="486.5" width="169.859" height="149.702" stroke="black"/>
<rect opacity="0.3" x="273.537" y="505.698" width="120.905" height="10.5186" stroke="black"/>
<rect opacity="0.3" x="273.537" y="525.855" width="120.905" height="10.5186" stroke="black"/>
<rect opacity="0.3" x="274.537" y="546.855" width="120.905" height="10.5186" stroke="black"/>
<rect opacity="0.3" x="0.5" y="486.5" width="169.859" height="149.702" stroke="black"/>
<rect opacity="0.3" x="23.5372" y="505.698" width="120.905" height="10.5186" stroke="black"/>
<rect opacity="0.3" x="23.5372" y="525.855" width="120.905" height="10.5186" stroke="black"/>
<rect opacity="0.3" x="434.5" y="486.5" width="169.859" height="149.702" stroke="black"/>
<rect opacity="0.3" x="457.537" y="505.698" width="120.905" height="10.5186" stroke="black"/>
<rect opacity="0.3" x="457.537" y="525.855" width="120.905" height="10.5186" stroke="black"/>
<rect opacity="0.3" x="618.5" y="486.5" width="169.859" height="149.702" stroke="black"/>
<rect opacity="0.3" x="641.537" y="505.698" width="120.905" height="10.5186" stroke="black"/>
<rect opacity="0.3" x="641.537" y="525.855" width="120.905" height="10.5186" stroke="black"/>
<rect opacity="0.3" x="642.5" y="545.5" width="89" height="11" stroke="black"/>
<rect opacity="0.3" x="871.5" y="162.5" width="169.859" height="149.702" stroke="black"/>
<rect opacity="0.3" x="894.537" y="181.698" width="120.905" height="10.5186" stroke="black"/>
<rect opacity="0.3" x="894.537" y="201.855" width="120.905" height="10.5186" stroke="black"/>
<rect opacity="0.3" x="895.5" y="221.5" width="89" height="11" stroke="black"/>
<rect opacity="0.3" x="434.5" y="324.5" width="169.859" height="149.702" stroke="black"/>
<rect opacity="0.3" x="457.537" y="343.698" width="120.905" height="10.5186" stroke="black"/>
<rect opacity="0.3" x="457.5" y="363.5" width="82" height="11" stroke="black"/>
<rect opacity="0.3" x="618.5" y="324.5" width="169.859" height="149.702" stroke="black"/>
<rect opacity="0.3" x="641.537" y="343.698" width="120.905" height="10.5186" stroke="black"/>
<rect opacity="0.3" x="641.5" y="363.5" width="120.905" height="10.5186" stroke="black"/>
<rect opacity="0.3" x="618.5" y="162.5" width="169.859" height="149.702" stroke="black"/>
<rect opacity="0.3" x="641.537" y="181.698" width="120.905" height="10.5186" stroke="black"/>
<rect opacity="0.3" x="641.537" y="201.855" width="120.905" height="10.5186" stroke="black"/>
<rect opacity="0.3" x="1056.5" y="162.5" width="169.859" height="149.702" stroke="black"/>
<rect opacity="0.3" x="1079.54" y="181.698" width="120.905" height="10.5186" stroke="black"/>
<rect opacity="0.3" x="1079.54" y="201.855" width="120.905" height="10.5186" stroke="black"/>
<rect opacity="0.3" x="1056.5" y="0.5" width="169.859" height="149.702" stroke="black"/>
<rect opacity="0.3" x="1079.54" y="19.6976" width="120.905" height="10.5186" stroke="black"/>
<rect opacity="0.3" x="1079.54" y="39.8552" width="120.905" height="10.5186" stroke="black"/>
<rect opacity="0.3" x="1243.5" y="162.5" width="169.859" height="149.702" stroke="black"/>
<rect opacity="0.3" x="1266.54" y="181.698" width="120.905" height="10.5186" stroke="black"/>
<rect opacity="0.3" x="1266.54" y="201.855" width="120.905" height="10.5186" stroke="black"/>
<rect opacity="0.3" x="905.689" y="478.5" width="121.582" height="10.5186" stroke="black"/>
<rect opacity="0.3" x="905.689" y="498.5" width="121.582" height="10.5186" stroke="black"/>
<rect opacity="0.3" x="905.689" y="518.5" width="121.582" height="10.5186" stroke="black"/>
<rect opacity="0.3" x="905.689" y="538.658" width="121.582" height="10.5186" stroke="black"/>
<rect opacity="0.3" x="906.657" y="558.302" width="89.5" height="11" stroke="black"/>
<rect opacity="0.3" x="871.5" y="324.5" width="542" height="312" stroke="black"/>
<path opacity="0.3" d="M1014.29 401C1014.29 428.335 992.011 450.5 964.517 450.5C937.023 450.5 914.739 428.335 914.739 401C914.739 373.665 937.023 351.5 964.517 351.5C992.011 351.5 1014.29 373.665 1014.29 401Z" stroke="black"/>
<path opacity="0.3" d="M1110.83 476C1110.83 486.767 1102.05 495.5 1091.22 495.5C1080.38 495.5 1071.61 486.767 1071.61 476C1071.61 465.233 1080.38 456.5 1091.22 456.5C1102.05 456.5 1110.83 465.233 1110.83 476Z" stroke="black"/>
<path opacity="0.3" d="M1198.31 476C1198.31 486.767 1189.53 495.5 1178.7 495.5C1167.87 495.5 1159.09 486.767 1159.09 476C1159.09 465.233 1167.87 456.5 1178.7 456.5C1189.53 456.5 1198.31 465.233 1198.31 476Z" stroke="black"/>
<path opacity="0.3" d="M1285.79 536C1285.79 546.767 1277.02 555.5 1266.18 555.5C1255.35 555.5 1246.57 546.767 1246.57 536C1246.57 525.233 1255.35 516.5 1266.18 516.5C1277.02 516.5 1285.79 525.233 1285.79 536Z" stroke="black"/>
<path opacity="0.3" d="M1373.28 536C1373.28 546.767 1364.5 555.5 1353.67 555.5C1342.83 555.5 1334.06 546.767 1334.06 536C1334.06 525.233 1342.83 516.5 1353.67 516.5C1364.5 516.5 1373.28 525.233 1373.28 536Z" stroke="black"/>
<path opacity="0.3" d="M1285.79 416C1285.79 426.767 1277.02 435.5 1266.18 435.5C1255.35 435.5 1246.57 426.767 1246.57 416C1246.57 405.233 1255.35 396.5 1266.18 396.5C1277.02 396.5 1285.79 405.233 1285.79 416Z" stroke="black"/>
<path opacity="0.3" d="M1373.28 416C1373.28 426.767 1364.5 435.5 1353.67 435.5C1342.83 435.5 1334.06 426.767 1334.06 416C1334.06 405.233 1342.83 396.5 1353.67 396.5C1364.5 396.5 1373.28 405.233 1373.28 416Z" stroke="black"/>
<line opacity="0.3" x1="1111.33" y1="475.5" x2="1158.59" y2="475.5" stroke="black"/>
<line opacity="0.3" x1="1286.29" y1="415.5" x2="1333.56" y2="415.5" stroke="black"/>
<line opacity="0.3" x1="1286.29" y1="535.5" x2="1333.56" y2="535.5" stroke="black"/>
<line opacity="0.3" y1="-0.5" x2="66.541" y2="-0.5" transform="matrix(0.83115 -0.556048 0.560306 0.828286 1193.78 463)" stroke="black"/>
<line opacity="0.3" y1="-0.5" x2="66.541" y2="-0.5" transform="matrix(0.83115 0.556048 0.560306 -0.828286 1193.78 489)" stroke="black"/>
</svg>
