<svg width="824" height="324" viewBox="0 0 824 324" fill="none" xmlns="http://www.w3.org/2000/svg">
<rect opacity="0.4" y="179.505" width="27.4309" height="27.4309" rx="13.7155" fill="#DFE5EA"/>
<rect opacity="0.4" y="257" width="27.4309" height="27.4309" rx="13.7155" fill="#DFE5EA"/>
<rect opacity="0.4" x="326" y="35" width="350" height="27" fill="#E5C4E3"/>
<rect opacity="0.4" x="31.2043" width="142.641" height="27.4309" fill="#BD8DA5"/>
<rect opacity="0.4" x="246.704" y="35" width="71.3204" height="27.4309" fill="#BBAACA"/>
<rect opacity="0.4" width="27.4309" height="27.4309" rx="13.7155" fill="#D8BAB9"/>
<rect opacity="0.4" x="31.2043" y="34.804" width="207.561" height="27.4309" fill="#CCC4CE"/>
<rect opacity="0.4" x="182" width="207.561" height="27.4309" fill="#CCC4CE"/>
<rect opacity="0.4" y="34.804" width="27.4309" height="27.4309" rx="13.7155" fill="#F5E9E7"/>
<rect opacity="0.4" x="31.2043" y="71.4365" width="80.4641" height="27.4309" fill="#CEA7B6"/>
<rect opacity="0.4" x="31.2043" y="143" width="80.4641" height="27.4309" fill="#CEA7B6"/>
<rect opacity="0.4" x="31.2043" y="218.437" width="80.4641" height="27.4309" fill="#F1E3EB"/>
<rect opacity="0.4" x="31.2043" y="296" width="80.4641" height="27.4309" fill="#F1E3EB"/>
<rect opacity="0.4" x="119" y="71" width="327" height="28" fill="#D0C6D8"/>
<rect opacity="0.4" x="119" y="143" width="327" height="28" fill="#D0C6D8"/>
<rect opacity="0.4" x="453" y="71" width="371" height="28" fill="#CDCDC9"/>
<rect opacity="0.4" x="33" y="180" width="206" height="27" fill="#E3E6DF"/>
<rect opacity="0.4" y="71.4365" width="27.4309" height="27.4309" rx="13.7155" fill="#CDA2B3"/>
<rect opacity="0.4" y="106.24" width="27.4309" height="27.4309" rx="13.7155" fill="#E5D5E4"/>
<rect opacity="0.4" x="31.2043" y="106.873" width="165.5" height="27.4309" fill="#B9A9C9"/>
<rect opacity="0.4" x="31.2043" y="258" width="165.5" height="27.4309" fill="#D9BCBB"/>
<rect opacity="0.4" x="119" y="219" width="165.5" height="27.4309" fill="#B9A9C9"/>
<rect opacity="0.4" y="142.873" width="27.4309" height="27.4309" rx="13.7155" fill="#E2E1D8"/>
<rect opacity="0.4" y="218.873" width="27.4309" height="27.4309" rx="13.7155" fill="#E4DCE4"/>
<rect opacity="0.4" y="296.436" width="27.4309" height="27.4309" rx="13.7155" fill="#E4DCE4"/>
</svg>
