<svg width="858" height="307" viewBox="0 0 858 307" fill="none" xmlns="http://www.w3.org/2000/svg">
<rect opacity="0.3" x="0.5" y="230.005" width="26.4309" height="26.4309" rx="13.2155" stroke="black"/>
<rect opacity="0.3" x="360.5" y="45.5" width="349" height="26" stroke="black"/>
<rect opacity="0.3" x="51.7043" y="0.5" width="141.641" height="26.4309" stroke="black"/>
<rect opacity="0.3" x="273.204" y="45.5" width="70.3204" height="26.4309" stroke="black"/>
<rect opacity="0.3" x="0.5" y="0.5" width="26.4309" height="26.4309" rx="13.2155" stroke="black"/>
<rect opacity="0.3" x="51.7043" y="45.304" width="206.561" height="26.4309" stroke="black"/>
<rect opacity="0.3" x="0.5" y="45.304" width="26.4309" height="26.4309" rx="13.2155" stroke="black"/>
<rect opacity="0.3" x="51.7043" y="91.9365" width="79.4641" height="26.4309" stroke="black"/>
<rect opacity="0.3" x="51.7043" y="278.937" width="79.4641" height="26.4309" stroke="black"/>
<rect opacity="0.3" x="144.5" y="91.5" width="326" height="27" stroke="black"/>
<rect opacity="0.3" x="487.5" y="91.5" width="370" height="27" stroke="black"/>
<rect opacity="0.3" x="53.1133" y="230.5" width="245.878" height="26.4309" stroke="black"/>
<rect opacity="0.3" x="0.5" y="91.9365" width="26.4309" height="26.4309" rx="13.2155" stroke="black"/>
<rect opacity="0.3" x="0.5" y="136.74" width="26.4309" height="26.4309" rx="13.2155" stroke="black"/>
<rect opacity="0.3" x="51.7043" y="137.373" width="164.5" height="26.4309" stroke="black"/>
<rect opacity="0.3" x="0.5" y="183.373" width="26.4309" height="26.4309" rx="13.2155" stroke="black"/>
<rect opacity="0.3" x="0.5" y="279.373" width="26.4309" height="26.4309" rx="13.2155" stroke="black"/>
</svg>
