<svg width="705" height="327" viewBox="0 0 705 327" fill="none" xmlns="http://www.w3.org/2000/svg">
<rect opacity="0.15" x="41" width="114.296" height="27.4309" fill="white"/>
<rect opacity="0.2" x="41.2043" y="255" width="114.296" height="27.4309" fill="white"/>
<rect opacity="0.2" x="41" y="42.6326" width="207.561" height="27.4309" fill="white"/>
<rect opacity="0.15" y="2.81494" width="27.4309" height="27.4309" rx="13.7155" fill="white"/>
<rect opacity="0.15" y="42.6187" width="27.4309" height="27.4309" rx="13.7155" fill="white"/>
<rect opacity="0.2" x="41" y="83" width="329" height="27" fill="white"/>
<rect opacity="0.15" y="82.7651" width="27.4309" height="27.4309" rx="13.7155" fill="white"/>
<rect opacity="0.3" x="41.2043" y="124.569" width="258.765" height="27.4309" fill="white"/>
<rect opacity="0.15" y="124.569" width="27.4309" height="27.4309" rx="13.7155" fill="white"/>
<rect opacity="0.2" x="41.2043" y="168" width="410.55" height="27.4309" fill="white"/>
<rect opacity="0.15" y="168" width="27.4309" height="27.4309" rx="13.7155" fill="white"/>
<rect opacity="0.3" x="41.2043" y="211.804" width="258.765" height="27.4309" fill="white"/>
<rect opacity="0.3" x="446" y="255" width="258.765" height="27.4309" fill="white"/>
<rect opacity="0.15" y="211.804" width="27.4309" height="27.4309" rx="13.7155" fill="white"/>
<rect opacity="0.15" y="254.804" width="27.4309" height="27.4309" rx="13.7155" fill="white"/>
<rect opacity="0.3" x="41.2043" y="298.804" width="258.765" height="27.4309" fill="white"/>
<rect opacity="0.2" x="313.829" y="298.804" width="258.765" height="27.4309" fill="white"/>
<rect opacity="0.2" x="171" y="255" width="258.765" height="27.4309" fill="white"/>
<rect opacity="0.15" y="298.804" width="27.4309" height="27.4309" rx="13.7155" fill="white"/>
</svg>
