<svg width="770" height="420" viewBox="0 0 770 420" fill="none" xmlns="http://www.w3.org/2000/svg">
<rect opacity="0.4" y="219.505" width="27.4309" height="27.4309" rx="13.7155" fill="#DFE5EA"/>
<rect opacity="0.4" y="306" width="27.4309" height="27.4309" rx="13.7155" fill="#DFE5EA"/>
<rect opacity="0.4" x="262.704" y="56" width="71.3204" height="27.4309" fill="#BBAACA"/>
<rect opacity="0.4" y="14" width="27.4309" height="27.4309" rx="13.7155" fill="#D8BAB9"/>
<rect opacity="0.4" x="41.2041" y="55.804" width="207.561" height="27.4309" fill="#CCC4CE"/>
<rect opacity="0.4" x="562" y="15" width="207.561" height="27.4309" fill="#CCC4CE"/>
<rect opacity="0.4" y="55.804" width="27.4309" height="27.4309" rx="13.7155" fill="#F5E9E7"/>
<rect opacity="0.4" x="41.2041" y="96.4365" width="80.4641" height="27.4309" fill="#CEA7B6"/>
<rect opacity="0.4" x="41.2041" y="178" width="80.4641" height="27.4309" fill="#CEA7B6"/>
<rect opacity="0.4" x="41.2041" y="262.437" width="80.4641" height="27.4309" fill="#F1E3EB"/>
<rect opacity="0.4" x="41.2041" y="392" width="80.4641" height="27.4309" fill="#F1E3EB"/>
<rect opacity="0.4" x="135" y="96" width="327" height="28" fill="#D0C6D8"/>
<rect opacity="0.4" x="221" y="14" width="327" height="28" fill="#CEA7B6"/>
<rect opacity="0.4" x="41" y="220" width="206" height="27" fill="#E3E6DF"/>
<rect opacity="0.4" x="41" y="306.495" width="206" height="27" fill="#E3E6DF"/>
<rect opacity="0.4" y="96.4365" width="27.4309" height="27.4309" rx="13.7155" fill="#CDA2B3"/>
<rect opacity="0.4" y="137.24" width="27.4309" height="27.4309" rx="13.7155" fill="#E5D5E4"/>
<rect opacity="0.4" x="41.2041" y="138" width="165.5" height="27.4309" fill="#DFE5EA"/>
<rect opacity="0.4" x="41" y="14" width="165.5" height="27.4309" fill="#D0C6D8"/>
<rect opacity="0.4" x="41" y="349" width="165.5" height="27.4309" fill="#D0C6D8"/>
<rect opacity="0.4" y="177.873" width="27.4309" height="27.4309" rx="13.7155" fill="#E2E1D8"/>
<rect opacity="0.4" y="262.873" width="27.4309" height="27.4309" rx="13.7155" fill="#E4DCE4"/>
<rect opacity="0.4" y="392.436" width="27.4309" height="27.4309" rx="13.7155" fill="#E4DCE4"/>
<rect opacity="0.4" y="349.367" width="27.4309" height="27.4309" rx="13.7155" fill="#E4DCE4"/>
</svg>
