<svg width="1271" height="770" viewBox="0 0 1271 770" fill="none" xmlns="http://www.w3.org/2000/svg">
<g opacity="0.6">
<rect opacity="0.2" x="41.2043" y="198.505" width="118.867" height="27.4309" fill="white"/>
<rect opacity="0.2" x="360.434" y="198.505" width="118.867" height="27.4309" fill="white"/>
<rect opacity="0.2" x="493" y="198.505" width="118.867" height="27.4309" fill="white"/>
<rect opacity="0.15" x="441.326" y="280.942" width="118.867" height="27.4309" fill="white"/>
<rect opacity="0.3" x="172.931" y="198.505" width="173.729" height="27.4309" fill="white"/>
<rect opacity="0.15" y="198.505" width="27.4309" height="27.4309" rx="13.7155" fill="white"/>
<rect opacity="0.2" x="41.2043" y="239.309" width="236.82" height="27.4309" fill="white"/>
<rect opacity="0.15" y="239.309" width="27.4309" height="27.4309" rx="13.7155" fill="white"/>
<rect opacity="0.2" x="41.2043" y="280.942" width="187.445" height="27.4309" fill="white"/>
<rect opacity="0.2" x="338.602" y="322.746" width="187.445" height="27.4309" fill="white"/>
<rect opacity="0.2" x="241.765" y="280.942" width="187.445" height="27.4309" fill="white"/>
<rect opacity="0.15" y="280.942" width="27.4309" height="27.4309" rx="13.7155" fill="white"/>
<rect opacity="0.3" x="41.2043" y="322.746" width="285.282" height="27.4309" fill="white"/>
<rect opacity="0.15" y="322.746" width="27.4309" height="27.4309" rx="13.7155" fill="white"/>
<rect opacity="0.15" y="363.378" width="27.4309" height="27.4309" rx="13.7155" fill="white"/>
<rect opacity="0.3" x="41.2043" width="142.641" height="27.4309" fill="white"/>
<rect opacity="0.2" x="197.704" width="71.3204" height="27.4309" fill="white"/>
<rect opacity="0.15" width="27.4309" height="27.4309" rx="13.7155" fill="white"/>
<rect opacity="0.15" x="41.2043" y="39.804" width="207.561" height="27.4309" fill="white"/>
<rect opacity="0.15" y="39.804" width="27.4309" height="27.4309" rx="13.7155" fill="white"/>
<rect opacity="0.2" x="41.2043" y="79.4365" width="80.4641" height="27.4309" fill="white"/>
<rect opacity="0.3" x="133.613" y="79.4365" width="246.878" height="27.4309" fill="white"/>
<rect opacity="0.15" y="79.4365" width="27.4309" height="27.4309" rx="13.7155" fill="white"/>
<rect opacity="0.15" y="120.24" width="27.4309" height="27.4309" rx="13.7155" fill="white"/>
<rect opacity="0.2" x="41.2043" y="158.873" width="165.5" height="27.4309" fill="white"/>
<rect opacity="0.15" y="158.873" width="27.4309" height="27.4309" rx="13.7155" fill="white"/>
<rect opacity="0.15" x="41.2043" y="403.182" width="114.296" height="27.4309" fill="white"/>
<rect opacity="0.2" x="41.2043" y="698" width="114.296" height="27.4309" fill="white"/>
<rect opacity="0.3" x="169.273" y="403.182" width="283.453" height="27.4309" fill="white"/>
<rect opacity="0.15" y="403.182" width="27.4309" height="27.4309" rx="13.7155" fill="white"/>
<rect opacity="0.2" x="41.2043" y="445.815" width="207.561" height="27.4309" fill="white"/>
<rect opacity="0.2" x="259.796" y="445.815" width="386.776" height="27.4309" fill="white"/>
<rect opacity="0.15" y="445.815" width="27.4309" height="27.4309" rx="13.7155" fill="white"/>
<rect opacity="0.15" y="485.619" width="27.4309" height="27.4309" rx="13.7155" fill="white"/>
<rect opacity="0.2" x="41.2043" y="525.765" width="410.55" height="27.4309" fill="white"/>
<rect opacity="0.2" x="587" y="742" width="410.55" height="27.4309" fill="white"/>
<rect opacity="0.15" y="525.765" width="27.4309" height="27.4309" rx="13.7155" fill="white"/>
<rect opacity="0.3" x="41.2043" y="567.569" width="258.765" height="27.4309" fill="white"/>
<rect opacity="0.3" x="312.829" y="567.569" width="258.765" height="27.4309" fill="white"/>
<rect opacity="0.2" x="585" y="568" width="188" height="27" fill="white"/>
<rect opacity="0.15" y="567.569" width="27.4309" height="27.4309" rx="13.7155" fill="white"/>
<rect opacity="0.2" x="41.2043" y="611" width="410.55" height="27.4309" fill="white"/>
<rect opacity="0.15" x="465.528" y="611" width="410.55" height="27.4309" fill="white"/>
<rect opacity="0.15" y="611" width="27.4309" height="27.4309" rx="13.7155" fill="white"/>
<rect opacity="0.3" x="41.2043" y="654.804" width="258.765" height="27.4309" fill="white"/>
<rect opacity="0.3" x="446" y="698" width="258.765" height="27.4309" fill="white"/>
<rect opacity="0.2" x="313.829" y="654.804" width="258.765" height="27.4309" fill="white"/>
<rect opacity="0.15" y="654.804" width="27.4309" height="27.4309" rx="13.7155" fill="white"/>
<rect opacity="0.15" y="697.804" width="27.4309" height="27.4309" rx="13.7155" fill="white"/>
<rect opacity="0.3" x="41.2043" y="741.804" width="258.765" height="27.4309" fill="white"/>
<rect opacity="0.3" x="313.829" y="741.804" width="258.765" height="27.4309" fill="white"/>
<rect opacity="0.2" x="171" y="698" width="258.765" height="27.4309" fill="white"/>
<rect opacity="0.15" y="741.804" width="27.4309" height="27.4309" rx="13.7155" fill="white"/>
<rect opacity="0.2" x="1012" y="742" width="258.765" height="27.4309" fill="white"/>
</g>
</svg>
