<svg width="1281" height="853" viewBox="0 0 1281 853" fill="none" xmlns="http://www.w3.org/2000/svg">
<g opacity="0.5">
<rect opacity="0.2" x="51.2044" y="229.505" width="118.867" height="27.4309" fill="white"/>
<rect opacity="0.2" x="370.434" y="229.505" width="118.867" height="27.4309" fill="white"/>
<rect opacity="0.2" x="503" y="229.505" width="118.867" height="27.4309" fill="white"/>
<rect opacity="0.15" x="451.326" y="320.942" width="118.867" height="27.4309" fill="white"/>
<rect opacity="0.3" x="182.931" y="229.505" width="173.729" height="27.4309" fill="white"/>
<rect opacity="0.15" y="229.505" width="27.4309" height="27.4309" rx="13.7155" fill="white"/>
<rect opacity="0.2" x="51.2044" y="274.309" width="236.82" height="27.4309" fill="white"/>
<rect opacity="0.15" y="274.309" width="27.4309" height="27.4309" rx="13.7155" fill="white"/>
<rect opacity="0.2" x="51.2044" y="320.942" width="187.445" height="27.4309" fill="white"/>
<rect opacity="0.2" x="348.602" y="365.746" width="187.445" height="27.4309" fill="white"/>
<rect opacity="0.2" x="251.765" y="320.942" width="187.445" height="27.4309" fill="white"/>
<rect opacity="0.15" y="320.942" width="27.4309" height="27.4309" rx="13.7155" fill="white"/>
<rect opacity="0.3" x="51.2044" y="365.746" width="285.282" height="27.4309" fill="white"/>
<rect opacity="0.15" y="365.746" width="27.4309" height="27.4309" rx="13.7155" fill="white"/>
<rect opacity="0.15" y="412.378" width="27.4309" height="27.4309" rx="13.7155" fill="white"/>
<rect opacity="0.3" x="51.2044" width="142.641" height="27.4309" fill="white"/>
<rect opacity="0.2" x="206.704" width="71.3204" height="27.4309" fill="white"/>
<rect opacity="0.15" width="27.4309" height="27.4309" rx="13.7155" fill="white"/>
<rect opacity="0.15" x="51.2044" y="44.804" width="207.561" height="27.4309" fill="white"/>
<rect opacity="0.15" y="44.804" width="27.4309" height="27.4309" rx="13.7155" fill="white"/>
<rect opacity="0.2" x="51.2044" y="91.4365" width="80.4641" height="27.4309" fill="white"/>
<rect opacity="0.3" x="143.613" y="91.4365" width="246.878" height="27.4309" fill="white"/>
<rect opacity="0.15" y="91.4365" width="27.4309" height="27.4309" rx="13.7155" fill="white"/>
<rect opacity="0.15" y="136.24" width="27.4309" height="27.4309" rx="13.7155" fill="white"/>
<rect opacity="0.2" x="51.2044" y="182.873" width="165.5" height="27.4309" fill="white"/>
<rect opacity="0.15" y="182.873" width="27.4309" height="27.4309" rx="13.7155" fill="white"/>
<rect opacity="0.15" x="51.2044" y="457.182" width="114.296" height="27.4309" fill="white"/>
<rect opacity="0.2" x="51.2044" y="775" width="114.296" height="27.4309" fill="white"/>
<rect opacity="0.3" x="179.273" y="457.182" width="283.453" height="27.4309" fill="white"/>
<rect opacity="0.15" y="457.182" width="27.4309" height="27.4309" rx="13.7155" fill="white"/>
<rect opacity="0.2" x="51.2044" y="503.815" width="207.561" height="27.4309" fill="white"/>
<rect opacity="0.2" x="269.796" y="503.815" width="386.776" height="27.4309" fill="white"/>
<rect opacity="0.15" y="503.815" width="27.4309" height="27.4309" rx="13.7155" fill="white"/>
<rect opacity="0.15" y="548.619" width="27.4309" height="27.4309" rx="13.7155" fill="white"/>
<rect opacity="0.2" x="51.2044" y="589.765" width="410.55" height="27.4309" fill="white"/>
<rect opacity="0.2" x="597" y="825" width="410.55" height="27.4309" fill="white"/>
<rect opacity="0.15" y="589.765" width="27.4309" height="27.4309" rx="13.7155" fill="white"/>
<rect opacity="0.3" x="51.2044" y="634.569" width="258.765" height="27.4309" fill="white"/>
<rect opacity="0.3" x="322.829" y="634.569" width="258.765" height="27.4309" fill="white"/>
<rect opacity="0.2" x="595" y="635" width="188" height="27" fill="white"/>
<rect opacity="0.15" y="634.569" width="27.4309" height="27.4309" rx="13.7155" fill="white"/>
<rect opacity="0.2" x="51.2044" y="681" width="410.55" height="27.4309" fill="white"/>
<rect opacity="0.15" x="475.528" y="681" width="410.55" height="27.4309" fill="white"/>
<rect opacity="0.15" y="681" width="27.4309" height="27.4309" rx="13.7155" fill="white"/>
<rect opacity="0.3" x="51.2044" y="725.804" width="258.765" height="27.4309" fill="white"/>
<rect opacity="0.3" x="456" y="775" width="258.765" height="27.4309" fill="white"/>
<rect opacity="0.2" x="323.829" y="725.804" width="258.765" height="27.4309" fill="white"/>
<rect opacity="0.15" y="725.804" width="27.4309" height="27.4309" rx="13.7155" fill="white"/>
<rect opacity="0.15" y="774.804" width="27.4309" height="27.4309" rx="13.7155" fill="white"/>
<rect opacity="0.3" x="51.2044" y="824.804" width="258.765" height="27.4309" fill="white"/>
<rect opacity="0.3" x="323.829" y="824.804" width="258.765" height="27.4309" fill="white"/>
<rect opacity="0.2" x="181" y="775" width="258.765" height="27.4309" fill="white"/>
<rect opacity="0.15" y="824.804" width="27.4309" height="27.4309" rx="13.7155" fill="white"/>
<rect opacity="0.2" x="1022" y="824.804" width="258.765" height="27.4309" fill="white"/>
</g>
</svg>
