<svg width="32" height="50" viewBox="0 0 32 50" fill="none" xmlns="http://www.w3.org/2000/svg">
<path fill-rule="evenodd" clip-rule="evenodd" d="M7.80431 15.21C3.62111 15.21 0.198608 11.7875 0.198608 7.60433C0.198608 3.4225 3.62111 0 7.80431 0H22.954C27.1359 0 30.5584 3.4225 30.5584 7.60433C30.5584 11.7875 27.1359 15.21 22.954 15.21H7.80431Z" fill="black"/>
<path fill-rule="evenodd" clip-rule="evenodd" d="M7.60296 32.6206H15.3457V17.4065H7.60296C5.51547 17.4065 3.61302 18.2618 2.23415 19.6406C0.855282 21.0195 0 22.9233 0 25.0177C0 29.1981 3.42113 32.6206 7.60296 32.6206Z" fill="black"/>
<path fill-rule="evenodd" clip-rule="evenodd" d="M23.6909 17.562C19.4913 17.562 16.0852 20.9667 16.0852 25.1677C16.0852 29.3674 19.4913 32.772 23.6909 32.772C27.8906 32.772 31.2966 29.3674 31.2966 25.1677C31.2966 20.9667 27.8906 17.562 23.6909 17.562Z" fill="black"/>
<path fill-rule="evenodd" clip-rule="evenodd" d="M15.333 34.7898H7.45456V34.8049C3.38923 34.957 0.138062 38.2918 0.138062 42.3955C0.138062 46.5952 3.54274 49.9998 7.7424 49.9998C11.8118 49.9998 15.1261 46.8007 15.3289 42.782H15.333V42.6957C15.3371 42.5956 15.3481 42.4969 15.3481 42.3955C15.3481 42.2941 15.3371 42.1954 15.333 42.094V34.7898Z" fill="black"/>
</svg>
