<svg width="50" height="50" viewBox="0 0 50 50" fill="none" xmlns="http://www.w3.org/2000/svg">
<path d="M32.9545 48.6364H32.7273L32.5 48.4091V47.0455V41.3636C32.5 39.7727 32.2727 38.4091 31.5909 37.2727C36.8182 36.3636 42.5 33.6364 42.5 23.4091C42.5 20.6818 41.5909 18.1818 40 16.1364C40.4545 14.7727 40.6818 12.2727 39.5455 9.09091L38.8636 8.40909C38.8636 8.40909 38.4091 8.18182 37.9545 8.18182C36.5909 8.18182 34.5455 8.63636 31.1364 10.9091C29.3182 10.6818 27.2727 10.2273 25 10.2273C22.7273 10.2273 20.6818 10.4545 18.6364 10.9091C15.4545 8.86364 13.1818 8.40909 11.8182 8.40909C11.3636 8.40909 11.1364 8.63636 10.9091 8.63636C10.6818 8.63636 10.2273 9.09091 10.2273 9.31818C9.09091 12.5 9.31818 15 9.77273 16.3636C8.18182 18.4091 7.27273 20.9091 7.27273 23.6364C7.27273 33.6364 13.1818 36.3636 18.1818 37.5C17.9545 37.9545 17.7273 38.6364 17.5 39.3182C17.0455 39.5455 16.3636 39.7727 15.4545 39.7727C14.5455 39.7727 13.6364 39.5455 12.9545 38.8636L12.7273 38.6364C12.5 38.4091 12.5 38.1818 12.2727 38.1818L12.0455 37.9546L11.8182 37.7273C11.8182 37.5 10 34.7727 6.81818 34.5455C5.68182 34.5455 4.77273 35 4.54545 35.6818C4.09091 36.8182 5.45455 37.7273 6.13636 38.1818C6.13636 38.1818 7.5 38.8636 8.40909 41.3636C8.86364 42.9546 10.9091 45.9091 15.6818 45.9091H17.2727V49.0909L17.0455 49.3182C17.0455 49.3182 16.8182 49.3182 17.0455 49.3182C6.81818 45.2273 0 35.6818 0 25C0 11.1364 11.1364 0 25 0C38.8636 0 50 11.1364 50 25C50 35.6818 43.1818 45.2273 32.9545 48.6364V48.6364Z" fill="black"/>
</svg>
