<svg width="30" height="50" viewBox="0 0 30 50" fill="none" xmlns="http://www.w3.org/2000/svg">
<path d="M4.26855 0C3.09165 0 1.92829 0.406262 1.14378 1.29573C0.359268 2.1852 0.000569106 3.4385 0.000569106 4.87805C-0.000711382 13.8239 0.000569106 22.7688 0.000569106 31.7073C0.000569106 34.7551 0.915948 37.5731 2.45847 39.7866C2.45166 42.2893 2.28959 44.5612 2.95386 46.532C3.29284 47.5377 3.91337 48.4893 4.87826 49.1044C5.84314 49.7196 7.06995 50 8.55558 50H20.7117C22.1973 50 23.4241 49.7196 24.389 49.1044C25.3539 48.4893 25.9744 47.5377 26.3134 46.532C26.9777 44.5612 26.8156 42.2893 26.8088 39.7866C28.3513 37.5732 29.2667 34.7552 29.2667 31.7073C29.2676 23.0635 29.2698 13.5224 29.2667 4.87805C29.2669 3.45526 28.9033 2.20615 28.1235 1.31479C27.3437 0.423427 26.1843 0 24.9987 0C23.8132 0 22.6538 0.423469 21.874 1.31479C21.0941 2.2061 20.7307 3.45529 20.7307 4.87805V12.3285C20.0158 11.8647 19.1914 11.5854 18.2919 11.5854C16.8109 11.5854 15.5189 12.3194 14.6336 13.4527C13.7552 12.3241 12.467 11.5854 10.9754 11.5854C10.0698 11.5854 9.24679 11.864 8.53652 12.3285V4.87805C8.53652 3.43815 8.17798 2.18495 7.39331 1.29573C6.60865 0.406518 5.44469 0 4.26855 0V0ZM4.26855 2.43902C4.92048 2.43902 5.28168 2.59526 5.56418 2.9154C5.84668 3.23553 6.09768 3.83828 6.09768 4.87805C6.09616 10.1727 6.09768 15.4565 6.09768 20.7317H4.87826C3.97282 20.7317 3.14801 20.9707 2.43941 21.3796V4.87805C2.43941 3.83793 2.69078 3.23527 2.97291 2.9154C3.25504 2.59552 3.61526 2.43902 4.26855 2.43902V2.43902ZM24.9987 2.43902C25.6423 2.43902 26.0073 2.6063 26.2944 2.93445C26.5814 3.2626 26.828 3.86182 26.8279 4.87805C26.831 13.5214 26.8287 23.0634 26.8279 31.7073C26.8279 37.5978 22.8522 42.0732 18.2919 42.0732H10.9754C6.41511 42.0732 2.43941 37.598 2.43941 31.7073C2.43941 29.6782 2.43941 27.6315 2.43941 25.6098C2.43941 24.1696 3.2869 23.1707 4.87826 23.1707H12.8045C13.7131 23.1707 14.338 23.3857 14.6908 23.6662C15.0436 23.9466 15.2433 24.2799 15.2433 25C15.2433 25.7201 15.0436 26.0343 14.6908 26.3147C14.338 26.5952 13.7131 26.8293 12.8045 26.8293H7.92681C7.28259 26.8201 6.69005 27.4045 6.69005 28.0488C6.69005 28.6931 7.28259 29.2774 7.92681 29.2683H10.9182C11.2069 29.5514 11.4165 30.0397 11.566 30.3544C11.9361 31.3042 12.1948 32.7315 12.1948 34.1463C12.1857 34.7906 12.7699 35.3832 13.4142 35.3832C14.0585 35.3832 14.6427 34.7906 14.6336 34.1463C14.6336 32.4447 14.3477 30.7977 13.8334 29.4779C13.7975 29.3858 13.7568 29.3002 13.7191 29.2111C14.6562 29.0979 15.5103 28.7996 16.2151 28.2393C17.1424 27.5021 17.6822 26.3068 17.6822 25C17.6822 23.6932 17.1424 22.4979 16.2151 21.7607C16.0992 21.6685 15.977 21.5915 15.8531 21.513C15.8538 20.03 15.8531 18.5513 15.8531 17.0732C15.8581 15.122 16.9831 14.0244 18.2919 14.0244C19.6007 14.0244 20.7307 15.1257 20.7307 17.0732V24.3902C20.7307 25.4775 20.302 25.9315 19.5304 26.3529C18.9667 26.6622 18.7352 27.4565 19.0445 28.0202C19.3538 28.5839 20.148 28.8154 20.7117 28.5061C22.051 27.7748 23.1696 26.3132 23.1696 24.3902C23.1509 17.8592 23.1696 11.4334 23.1696 4.87805C23.1696 3.86179 23.4159 3.26265 23.7031 2.93445C23.9902 2.60626 24.3551 2.43902 24.9987 2.43902V2.43902ZM10.9754 14.0244C12.2404 14.0244 13.4142 15.2672 13.4142 17.0732C13.4129 18.3098 13.4142 19.5308 13.4142 20.7698C13.2136 20.7543 13.0104 20.7317 12.8045 20.7317H8.53652V17.0732C8.53652 15.2672 9.71035 14.0244 10.9754 14.0244ZM4.91636 42.378C6.64893 43.7251 8.7172 44.5122 10.9754 44.5122H18.2919C20.5501 44.5122 22.6183 43.7251 24.3509 42.378C24.332 43.7881 24.2737 44.9814 24.0079 45.7698C23.7953 46.4006 23.5248 46.7594 23.0743 47.0465C22.6239 47.3337 21.8971 47.561 20.7117 47.561H8.55558C7.37014 47.561 6.6434 47.3337 6.19295 47.0465C5.74249 46.7594 5.47193 46.4006 5.25933 45.7698C4.99358 44.9814 4.93523 43.7881 4.91636 42.378V42.378Z" fill="black"/>
</svg>
