<svg width="563" height="455" viewBox="0 0 563 455" fill="none" xmlns="http://www.w3.org/2000/svg">
<rect x="152.328" y="0.5" width="258.626" height="395.131" stroke="white"/>
<rect x="43.9272" y="108.901" width="108.739" height="286.73" stroke="white"/>
<rect x="69.3546" y="137.004" width="59.2226" height="49" stroke="white"/>
<rect x="69.3546" y="207.004" width="59.2226" height="49" stroke="white"/>
<rect x="69.3546" y="278.126" width="59.2226" height="49" stroke="white"/>
<rect x="436.355" y="137.004" width="59.2226" height="49" stroke="white"/>
<rect x="436.355" y="207.004" width="59.2226" height="49" stroke="white"/>
<rect x="436.355" y="278.126" width="59.2226" height="49" stroke="white"/>
<rect x="410.616" y="108.901" width="108.739" height="286.73" stroke="white"/>
<rect x="233.963" y="292.245" width="94.0178" height="103.386" stroke="white"/>
<rect x="18.5" y="395.719" width="526.282" height="29.7804" stroke="white"/>
<rect x="0.5" y="425.719" width="561.28" height="29.7804" stroke="white"/>
<path d="M266.082 67.583V25.9272H298.539V67.583V68.083H299.039H336.68V95.856H299.039H298.539V96.356V136.004H266.082V96.356V95.856H265.582H226.602V68.083H265.582H266.082V67.583Z" stroke="white"/>
</svg>
