<svg width="700" height="425" viewBox="0 0 700 425" fill="none" xmlns="http://www.w3.org/2000/svg">
<rect x="142.067" y="1.31738" width="241.08" height="368.359" stroke="white"/>
<rect x="40.9923" y="102.392" width="101.322" height="267.285" stroke="white"/>
<rect x="64.7013" y="128.596" width="55.1526" height="45.6209" stroke="white"/>
<rect x="64.7013" y="193.866" width="55.1526" height="45.6209" stroke="white"/>
<rect x="64.7013" y="260.181" width="55.1526" height="45.6209" stroke="white"/>
<rect x="406.899" y="128.596" width="55.1526" height="45.6209" stroke="white"/>
<rect x="406.899" y="193.866" width="55.1526" height="45.6209" stroke="white"/>
<rect x="406.899" y="260.181" width="55.1526" height="45.6209" stroke="white"/>
<rect x="382.899" y="102.392" width="101.322" height="267.285" stroke="white"/>
<rect x="218.185" y="273.345" width="87.5963" height="96.3312" stroke="white"/>
<rect x="17.2836" y="369.827" width="490.647" height="27.7002" stroke="white"/>
<rect x="0.5" y="397.8" width="523.28" height="27.7002" stroke="white"/>
<path d="M248.133 63.8329V25.0261H278.329V63.8329V64.3329H278.829H313.892V90.1614H278.829H278.329V90.6614V127.596H248.133V90.6614V90.1614H247.633H211.322V64.3329H247.633H248.133V63.8329Z" stroke="white"/>
<path d="M507.146 369.62L509.583 313.673V305.668C524.323 309.936 539.879 310.563 554.914 307.495L555.611 313.673L559.787 425.567H524" stroke="white"/>
<path d="M486.363 279.608C498.2 288.625 512.275 294.238 527.069 295.841C541.864 297.444 556.814 294.976 570.308 288.704C583.803 282.432 595.327 272.593 603.639 260.25C608.353 261.055 613.126 261.463 617.909 261.468C635.136 261.374 651.894 255.842 665.792 245.661C679.69 235.481 690.019 221.171 695.304 204.774C700.59 188.377 700.563 170.73 695.227 154.349C689.891 137.969 679.519 123.691 665.59 113.553V113.379C670.73 95.9643 669.928 77.3342 663.312 60.425C656.696 43.5158 644.642 29.2889 629.048 19.9865C613.454 10.6842 595.208 6.83536 577.186 9.04663C559.164 11.2579 542.39 19.4035 529.507 32.1997C517.634 23.3616 503.585 17.9112 488.858 16.4296C474.13 14.9481 459.277 17.4908 445.881 23.7868C432.486 30.0829 421.05 39.8961 412.792 52.1804C404.535 64.4647 399.766 78.7596 398.994 93.5411C393.422 95.2355 388.061 97.5156 383 100.334" stroke="white"/>
</svg>
