<svg width="47" height="50" viewBox="0 0 47 50" fill="none" xmlns="http://www.w3.org/2000/svg">
<path d="M9.13971 34.516C12.258 34.516 14.8386 31.9354 14.8386 28.8171C14.8386 25.6988 12.258 23.1182 9.13971 23.1182C6.02144 23.1182 3.4408 25.6988 3.4408 28.8171C3.4408 31.9354 6.02144 34.516 9.13971 34.516ZM9.13971 24.1934C11.7204 24.1934 13.7634 26.2364 13.7634 28.8171C13.7634 31.3977 11.7204 33.4407 9.13971 33.4407C6.55907 33.4407 4.51606 31.3977 4.51606 28.8171C4.51606 26.2364 6.55907 24.1934 9.13971 24.1934Z" fill="black"/>
<path d="M0.537634 50.0001H17.7419C18.0645 50.0001 18.2795 49.785 18.2795 49.4625V46.0216C18.2795 40.9679 14.1935 36.8818 9.13977 36.8818C4.08602 36.8818 0 40.9679 0 46.0216V49.4625C0 49.785 0.215053 50.0001 0.537634 50.0001ZM1.07527 46.0216C1.07527 41.613 4.73118 37.9571 9.13977 37.9571C13.5484 37.9571 17.2043 41.613 17.2043 46.0216V48.9248H1.07527V46.0216Z" fill="black"/>
<path d="M37.8063 34.516C40.9246 34.516 43.5053 31.9354 43.5053 28.8171C43.5053 25.6988 40.9246 23.1182 37.8063 23.1182C34.6881 23.1182 32.1074 25.6988 32.1074 28.8171C32.1074 31.9354 34.6881 34.516 37.8063 34.516ZM37.8063 24.1934C40.387 24.1934 42.43 26.2364 42.43 28.8171C42.43 31.3977 40.387 33.4407 37.8063 33.4407C35.2257 33.4407 33.1827 31.3977 33.1827 28.8171C33.1827 26.2364 35.2257 24.1934 37.8063 24.1934Z" fill="black"/>
<path d="M29.2043 50.0001H46.4085C46.7311 50.0001 46.9462 49.785 46.9462 49.4625V46.0216C46.9462 40.9679 42.8602 36.8818 37.8064 36.8818C32.7526 36.8818 28.6666 40.9679 28.6666 46.0216V49.4625C28.6666 49.785 28.8817 50.0001 29.2043 50.0001ZM29.7419 46.0216C29.7419 41.613 33.3978 37.9571 37.8064 37.9571C42.215 37.9571 45.8709 41.613 45.8709 46.0216V48.9248H29.7419V46.0216Z" fill="black"/>
<path d="M16.8763 18.9193H3.27417V0.5H43.887V18.9193H30.2849H30.1292L30.001 19.0077L23.5806 23.4356L17.1602 19.0077L17.032 18.9193H16.8763Z" stroke="black"/>
<path d="M9.93546 5.6988H12.086C12.4086 5.6988 12.6236 5.48375 12.6236 5.16117C12.6236 4.83859 12.4086 4.62354 12.086 4.62354H9.93546C9.61288 4.62354 9.39783 4.83859 9.39783 5.16117C9.39783 5.48375 9.61288 5.6988 9.93546 5.6988Z" fill="black"/>
<path d="M14.7742 5.6988H38.0215C38.3441 5.6988 38.5591 5.48375 38.5591 5.16117C38.5591 4.83859 38.3441 4.62354 38.0215 4.62354H14.7742C14.4516 4.62354 14.2366 4.83859 14.2366 5.16117C14.2366 5.48375 14.4516 5.6988 14.7742 5.6988Z" fill="black"/>
<path d="M8.86014 8.92488H39.6343C39.9569 8.92488 40.1719 8.70982 40.1719 8.38724C40.1719 8.06466 39.9569 7.84961 39.6343 7.84961H8.86014C8.53756 7.84961 8.32251 8.06466 8.32251 8.38724C8.32251 8.70982 8.53756 8.92488 8.86014 8.92488Z" fill="black"/>
<path d="M8.86014 12.1505H22.8386C23.1612 12.1505 23.3763 11.9354 23.3763 11.6128C23.3763 11.2902 23.1612 11.0752 22.8386 11.0752H8.86014C8.53756 11.0752 8.32251 11.2902 8.32251 11.6128C8.32251 11.9354 8.53756 12.1505 8.86014 12.1505Z" fill="black"/>
</svg>
