<svg width="50" height="40" viewBox="0 0 50 40" fill="none" xmlns="http://www.w3.org/2000/svg">
<path d="M5.74424 5.16279H8.06982C8.41866 5.16279 8.65121 4.93023 8.65121 4.5814C8.65121 4.23256 8.41866 4 8.06982 4H5.74424C5.3954 4 5.16284 4.23256 5.16284 4.5814C5.16284 4.93023 5.3954 5.16279 5.74424 5.16279Z" fill="black"/>
<path d="M10.9768 5.16279H19.1163C19.4652 5.16279 19.6977 4.93023 19.6977 4.5814C19.6977 4.23256 19.4652 4 19.1163 4H10.9768C10.6279 4 10.3954 4.23256 10.3954 4.5814C10.3954 4.93023 10.6279 5.16279 10.9768 5.16279Z" fill="black"/>
<path d="M4.5814 8.65132H20.8605C21.2093 8.65132 21.4419 8.41876 21.4419 8.06992C21.4419 7.72108 21.2093 7.48853 20.8605 7.48853H4.5814C4.23256 7.48853 4 7.72108 4 8.06992C4 8.41876 4.23256 8.65132 4.5814 8.65132Z" fill="black"/>
<path d="M4.5814 12.1396H19.6977C20.0465 12.1396 20.2791 11.907 20.2791 11.5582C20.2791 11.2094 20.0465 10.9768 19.6977 10.9768H4.5814C4.23256 10.9768 4 11.2094 4 11.5582C4 11.907 4.23256 12.1396 4.5814 12.1396Z" fill="black"/>
<path d="M32.5814 4.16279H44.8605C45.2093 4.16279 45.4419 3.93023 45.4419 3.5814C45.4419 3.23256 45.2093 3 44.8605 3H32.5814C32.2326 3 32 3.23256 32 3.5814C32 3.93023 32.2326 4.16279 32.5814 4.16279Z" fill="black"/>
<path d="M32.5814 7.65107H42.6977C43.0465 7.65107 43.2791 7.41851 43.2791 7.06968C43.2791 6.72084 43.0465 6.48828 42.6977 6.48828H32.5814C32.2326 6.48828 32 6.72084 32 7.06968C32 7.41851 32.2326 7.65107 32.5814 7.65107Z" fill="black"/>
<path d="M32.5814 28.1628H44.8605C45.2093 28.1628 45.4419 27.9302 45.4419 27.5814C45.4419 27.2326 45.2093 27 44.8605 27H32.5814C32.2326 27 32 27.2326 32 27.5814C32 27.9302 32.2326 28.1628 32.5814 28.1628Z" fill="black"/>
<path d="M32.5814 31.6511H42.6977C43.0465 31.6511 43.2791 31.4185 43.2791 31.0697C43.2791 30.7208 43.0465 30.4883 42.6977 30.4883H32.5814C32.2326 30.4883 32 30.7208 32 31.0697C32 31.4185 32.2326 31.6511 32.5814 31.6511Z" fill="black"/>
<rect x="0.5" y="0.5" width="49" height="39" stroke="black" stroke-linecap="round" stroke-linejoin="round"/>
<line x1="29.5" y1="1" x2="29.5" y2="39" stroke="black" stroke-linejoin="round"/>
<line x1="30" y1="24.5" x2="49" y2="24.5" stroke="black" stroke-linejoin="round"/>
</svg>
