<svg width="50" height="44" viewBox="0 0 50 44" fill="none" xmlns="http://www.w3.org/2000/svg">
<path d="M10.7955 0C7.67093 0 5.11364 2.5573 5.11364 5.68182C5.11364 8.80634 7.67093 11.3636 10.7955 11.3636C13.92 11.3636 16.4773 8.80634 16.4773 5.68182C16.4773 2.5573 13.92 0 10.7955 0ZM39.2045 0C36.08 0 33.5227 2.5573 33.5227 5.68182C33.5227 8.80634 36.08 11.3636 39.2045 11.3636C42.3291 11.3636 44.8864 8.80634 44.8864 5.68182C44.8864 2.5573 42.3291 0 39.2045 0ZM10.7955 2.27273C12.6917 2.27273 14.2045 3.78557 14.2045 5.68182C14.2045 7.57807 12.6917 9.09091 10.7955 9.09091C8.89921 9.09091 7.38636 7.57807 7.38636 5.68182C7.38636 3.78557 8.89921 2.27273 10.7955 2.27273ZM39.2045 2.27273C41.1008 2.27273 42.6136 3.78557 42.6136 5.68182C42.6136 7.57807 41.1008 9.09091 39.2045 9.09091C37.3083 9.09091 35.7955 7.57807 35.7955 5.68182C35.7955 3.78557 37.3083 2.27273 39.2045 2.27273ZM10.7955 13.6364C4.84722 13.6364 0 18.3682 0 24.2365V32.9545C3.01027e-05 33.2559 0.119763 33.5449 0.332866 33.758C0.545969 33.9711 0.83499 34.0909 1.13636 34.0909H12.9794C14.4677 39.3306 19.2911 43.1818 25 43.1818C30.7089 43.1818 35.5323 39.3306 37.0206 34.0909H48.8636C49.165 34.0909 49.454 33.9711 49.6671 33.758C49.8802 33.5449 50 33.2559 50 32.9545V24.2365C50 18.3682 45.1528 13.6364 39.2045 13.6364C35.1409 13.6364 31.5813 15.8293 29.7408 19.1051C28.2796 18.5045 26.6746 18.1818 25 18.1818C23.3254 18.1818 21.7204 18.5045 20.2592 19.1051C18.4187 15.8293 14.8591 13.6364 10.7955 13.6364ZM10.7955 15.9091C14.026 15.9091 16.7887 17.6279 18.2351 20.1705C14.7877 22.3988 12.5 26.2822 12.5 30.6818C12.5 31.0644 12.5194 31.4442 12.5533 31.8182H2.27273V24.2365C2.27273 19.6124 6.04141 15.9091 10.7955 15.9091ZM39.2045 15.9091C43.9586 15.9091 47.7273 19.6124 47.7273 24.2365V31.8182H37.4467C37.4806 31.4442 37.5 31.0644 37.5 30.6818C37.5 26.2822 35.2123 22.3988 31.7649 20.1705C33.2113 17.6279 35.974 15.9091 39.2045 15.9091ZM25 20.4545C30.6618 20.4545 35.2273 25.02 35.2273 30.6818C35.2273 36.3436 30.6618 40.9091 25 40.9091C19.3382 40.9091 14.7727 36.3436 14.7727 30.6818C14.7727 25.02 19.3382 20.4545 25 20.4545ZM27.6278 26.1009C27.415 26.1338 27.2159 26.2264 27.0536 26.3681C26.8914 26.5097 26.7727 26.6945 26.7113 26.9009C26.6499 27.1073 26.6484 27.327 26.7069 27.5342C26.7655 27.7415 26.8816 27.9279 27.0419 28.0717L28.5156 29.5455H18.75C18.7145 29.5438 18.679 29.5438 18.6435 29.5455C18.4942 29.5524 18.3478 29.5887 18.2126 29.6523C18.0774 29.7158 17.956 29.8054 17.8554 29.9159C17.7548 30.0264 17.6769 30.1556 17.6263 30.2961C17.5756 30.4367 17.5531 30.5858 17.5601 30.7351C17.5671 30.8843 17.6035 31.0308 17.6671 31.166C17.7306 31.3012 17.8202 31.4225 17.9307 31.5231C18.0412 31.6237 18.1704 31.7015 18.311 31.7521C18.4516 31.8028 18.6008 31.8252 18.75 31.8182H28.5156L27.0419 33.2919C26.9324 33.396 26.8448 33.521 26.7841 33.6594C26.7235 33.7978 26.6911 33.9469 26.6888 34.098C26.6864 34.2491 26.7143 34.3992 26.7707 34.5394C26.827 34.6796 26.9108 34.8071 27.0171 34.9146C27.1233 35.022 27.2499 35.1072 27.3895 35.1651C27.5291 35.223 27.6788 35.2525 27.8299 35.2519C27.9811 35.2513 28.1305 35.2205 28.2696 35.1614C28.4087 35.1023 28.5346 35.016 28.6399 34.9077L32.0668 31.4808C32.2771 31.2681 32.395 30.981 32.395 30.6818C32.395 30.3827 32.2771 30.0956 32.0668 29.8828L28.6399 26.4737C28.6177 26.443 28.594 26.4133 28.5689 26.3849C28.4433 26.2702 28.2935 26.1852 28.1306 26.136C27.9678 26.0868 27.796 26.0748 27.6278 26.1009Z" fill="black"/>
</svg>
