<svg width="31" height="50" viewBox="0 0 31 50" fill="none" xmlns="http://www.w3.org/2000/svg">
<path d="M27.88 50H3C2.20435 50 1.44129 49.6839 0.878679 49.1213C0.31607 48.5587 0 47.7956 0 47V3C0 2.20435 0.31607 1.44129 0.878679 0.87868C1.44129 0.316071 2.20435 0 3 0H27.88C28.6756 0 29.4387 0.316071 30.0013 0.87868C30.5639 1.44129 30.88 2.20435 30.88 3V47C30.88 47.7956 30.5639 48.5587 30.0013 49.1213C29.4387 49.6839 28.6756 50 27.88 50ZM3 2C2.73478 2 2.48043 2.10536 2.29289 2.29289C2.10536 2.48043 2 2.73478 2 3V47C2 47.2652 2.10536 47.5196 2.29289 47.7071C2.48043 47.8946 2.73478 48 3 48H27.88C28.1452 48 28.3996 47.8946 28.5871 47.7071C28.7746 47.5196 28.88 47.2652 28.88 47V3C28.88 2.73478 28.7746 2.48043 28.5871 2.29289C28.3996 2.10536 28.1452 2 27.88 2H3Z" fill="black"/>
<path d="M10.77 2H20.1V3.06C20.1 3.32522 19.9947 3.57957 19.8071 3.76711C19.6196 3.95464 19.3652 4.06 19.1 4.06H11.8C11.5348 4.06 11.2804 3.95464 11.0929 3.76711C10.9054 3.57957 10.8 3.32522 10.8 3.06V2H10.77Z" fill="black"/>
</svg>
