<svg width="50" height="41" viewBox="0 0 50 41" fill="none" xmlns="http://www.w3.org/2000/svg">
<path d="M47.3785 14.7059H44.821V2.49361C44.821 1.1509 43.734 0 42.3913 0H2.42967C1.08696 0 0 1.08696 0 2.49361V29.4118C0 30.7545 1.08696 31.9054 2.42967 31.9054H4.02813V37.8517V38.6829C4.02813 39.578 4.66752 40.2813 5.49872 40.2813H11.445C12.2762 40.2813 12.9156 39.578 12.9156 38.6829V37.8517V31.9054H19.3734L17.9668 37.7238H15.7289C15.0256 37.7238 14.4501 38.2992 14.4501 39.0026C14.4501 39.7059 15.0256 40.2813 15.7289 40.2813H28.8363C29.5396 40.2813 30.1151 39.7059 30.1151 39.0026C30.1151 38.2992 29.5396 37.7238 28.8363 37.7238H26.9182L25.5115 31.9054H33.312V36.445V37.7238C33.312 39.1304 34.5269 40.2813 35.9335 40.2813H47.3785C48.8491 40.2813 50 39.1304 50 37.7238V36.445V19.0537V17.2634C50 15.8568 48.8491 14.7059 47.3785 14.7059ZM11.6368 37.8517H5.37084V31.9054V29.3478V28.0691C5.37084 27.8772 5.49872 27.7494 5.56266 27.7494H11.509C11.5729 27.7494 11.7008 27.8772 11.7008 28.0691V29.3478V31.9054V37.8517H11.6368ZM12.9156 29.3478V28.0691C12.9156 27.1739 12.2762 26.4706 11.445 26.4706H5.49872C4.66752 26.4706 4.02813 27.1739 4.02813 28.0691V29.3478H2.55754V2.55754H42.1995V14.7059H35.8696C34.399 14.7059 33.2481 15.8568 33.2481 17.2634V19.0537V29.3478H12.9156ZM41.688 39.3222C41.1765 39.3222 40.7928 38.9386 40.7928 38.4271C40.7928 37.9156 41.1765 37.532 41.688 37.532C42.1995 37.532 42.5831 37.9156 42.5831 38.4271C42.5192 38.9386 42.1356 39.3222 41.688 39.3222ZM48.6573 36.445H34.6547V31.8414V29.2839V19.0537H42.2634H44.821H48.6573V36.445V36.445Z" fill="black"/>
</svg>
