<svg width="47" height="50" viewBox="0 0 47 50" fill="none" xmlns="http://www.w3.org/2000/svg">
<path d="M9.13971 34.516C12.258 34.516 14.8386 31.9354 14.8386 28.8171C14.8386 25.6988 12.258 23.1182 9.13971 23.1182C6.02144 23.1182 3.4408 25.6988 3.4408 28.8171C3.4408 31.9354 6.02144 34.516 9.13971 34.516ZM9.13971 24.1934C11.7204 24.1934 13.7634 26.2364 13.7634 28.8171C13.7634 31.3977 11.7204 33.4407 9.13971 33.4407C6.55907 33.4407 4.51606 31.3977 4.51606 28.8171C4.51606 26.2364 6.55907 24.1934 9.13971 24.1934Z" fill="black"/>
<path d="M0.537634 50.0001H17.7419C18.0645 50.0001 18.2795 49.785 18.2795 49.4625V46.0216C18.2795 40.9679 14.1935 36.8818 9.13977 36.8818C4.08602 36.8818 0 40.9679 0 46.0216V49.4625C0 49.785 0.215053 50.0001 0.537634 50.0001ZM1.07527 46.0216C1.07527 41.613 4.73118 37.9571 9.13977 37.9571C13.5484 37.9571 17.2043 41.613 17.2043 46.0216V48.9248H1.07527V46.0216Z" fill="black"/>
<path d="M37.8063 34.516C40.9246 34.516 43.5053 31.9354 43.5053 28.8171C43.5053 25.6988 40.9246 23.1182 37.8063 23.1182C34.6881 23.1182 32.1074 25.6988 32.1074 28.8171C32.1074 31.9354 34.6881 34.516 37.8063 34.516ZM37.8063 24.1934C40.387 24.1934 42.43 26.2364 42.43 28.8171C42.43 31.3977 40.387 33.4407 37.8063 33.4407C35.2257 33.4407 33.1827 31.3977 33.1827 28.8171C33.1827 26.2364 35.2257 24.1934 37.8063 24.1934Z" fill="black"/>
<path d="M29.2043 50.0001H46.4085C46.7311 50.0001 46.9462 49.785 46.9462 49.4625V46.0216C46.9462 40.9679 42.8602 36.8818 37.8064 36.8818C32.7526 36.8818 28.6666 40.9679 28.6666 46.0216V49.4625C28.6666 49.785 28.8817 50.0001 29.2043 50.0001ZM29.7419 46.0216C29.7419 41.613 33.3978 37.9571 37.8064 37.9571C42.215 37.9571 45.8709 41.613 45.8709 46.0216V48.9248H29.7419V46.0216Z" fill="black"/>
<path d="M16.8763 18.9193H3.27417V0.5H43.887V18.9193H30.2849H30.1292L30.001 19.0077L23.5806 23.4356L17.1602 19.0077L17.032 18.9193H16.8763Z" stroke="black"/>
<path d="M14.552 6.28809V12.0001H15.728V8.17609H15.744L18.12 12.0001H19.376V6.28809H18.2V10.1201H18.184L15.8 6.28809H14.552Z" fill="black"/>
<path d="M21.3697 9.93609C21.3697 9.77075 21.3857 9.60809 21.4177 9.44809C21.4497 9.28809 21.503 9.14675 21.5777 9.02409C21.6577 8.90142 21.7617 8.80275 21.8897 8.72809C22.0177 8.64809 22.1777 8.60809 22.3697 8.60809C22.5617 8.60809 22.7217 8.64809 22.8497 8.72809C22.983 8.80275 23.087 8.90142 23.1617 9.02409C23.2417 9.14675 23.2977 9.28809 23.3297 9.44809C23.3617 9.60809 23.3777 9.77075 23.3777 9.93609C23.3777 10.1014 23.3617 10.2641 23.3297 10.4241C23.2977 10.5788 23.2417 10.7201 23.1617 10.8481C23.087 10.9708 22.983 11.0694 22.8497 11.1441C22.7217 11.2188 22.5617 11.2561 22.3697 11.2561C22.1777 11.2561 22.0177 11.2188 21.8897 11.1441C21.7617 11.0694 21.6577 10.9708 21.5777 10.8481C21.503 10.7201 21.4497 10.5788 21.4177 10.4241C21.3857 10.2641 21.3697 10.1014 21.3697 9.93609ZM20.2337 9.93609C20.2337 10.2668 20.2844 10.5654 20.3857 10.8321C20.487 11.0988 20.631 11.3281 20.8177 11.5201C21.0044 11.7068 21.2284 11.8508 21.4897 11.9521C21.751 12.0534 22.0444 12.1041 22.3697 12.1041C22.695 12.1041 22.9884 12.0534 23.2497 11.9521C23.5164 11.8508 23.743 11.7068 23.9297 11.5201C24.1164 11.3281 24.2604 11.0988 24.3617 10.8321C24.463 10.5654 24.5137 10.2668 24.5137 9.93609C24.5137 9.60542 24.463 9.30675 24.3617 9.04009C24.2604 8.76809 24.1164 8.53875 23.9297 8.35209C23.743 8.16009 23.5164 8.01342 23.2497 7.91209C22.9884 7.80542 22.695 7.75209 22.3697 7.75209C22.0444 7.75209 21.751 7.80542 21.4897 7.91209C21.2284 8.01342 21.0044 8.16009 20.8177 8.35209C20.631 8.53875 20.487 8.76809 20.3857 9.04009C20.2844 9.30675 20.2337 9.60542 20.2337 9.93609Z" fill="black"/>
<path d="M27.3403 11.2561C27.159 11.2561 27.0043 11.2188 26.8763 11.1441C26.7483 11.0694 26.6443 10.9734 26.5643 10.8561C26.4896 10.7334 26.4336 10.5921 26.3963 10.4321C26.3643 10.2721 26.3483 10.1094 26.3483 9.94409C26.3483 9.77342 26.3643 9.60809 26.3963 9.44809C26.4283 9.28809 26.4816 9.14675 26.5563 9.02409C26.6363 8.90142 26.7376 8.80275 26.8603 8.72809C26.9883 8.64809 27.1456 8.60809 27.3323 8.60809C27.5136 8.60809 27.6656 8.64809 27.7883 8.72809C27.9163 8.80275 28.0203 8.90409 28.1003 9.03209C28.1803 9.15475 28.2363 9.29609 28.2683 9.45609C28.3056 9.61609 28.3243 9.77875 28.3243 9.94409C28.3243 10.1094 28.3083 10.2721 28.2763 10.4321C28.2443 10.5921 28.1883 10.7334 28.1083 10.8561C28.0336 10.9734 27.9323 11.0694 27.8043 11.1441C27.6816 11.2188 27.527 11.2561 27.3403 11.2561ZM25.2523 7.86409V13.4481H26.3883V11.4881H26.4043C26.543 11.6908 26.719 11.8454 26.9323 11.9521C27.151 12.0534 27.3883 12.1041 27.6443 12.1041C27.9483 12.1041 28.2123 12.0454 28.4363 11.9281C28.6656 11.8108 28.855 11.6534 29.0043 11.4561C29.159 11.2588 29.2736 11.0321 29.3483 10.7761C29.423 10.5201 29.4603 10.2534 29.4603 9.97609C29.4603 9.68275 29.423 9.40275 29.3483 9.13609C29.2736 8.86409 29.159 8.62675 29.0043 8.42409C28.8496 8.22142 28.655 8.05875 28.4203 7.93609C28.1856 7.81342 27.9056 7.75209 27.5803 7.75209C27.3243 7.75209 27.0896 7.80275 26.8763 7.90409C26.663 8.00542 26.487 8.16809 26.3483 8.39209H26.3323V7.86409H25.2523Z" fill="black"/>
<path d="M32.9269 9.48809H31.0789C31.0843 9.40809 31.1003 9.31742 31.1269 9.21609C31.1589 9.11475 31.2096 9.01875 31.2789 8.92809C31.3536 8.83742 31.4496 8.76275 31.5669 8.70409C31.6896 8.64009 31.8416 8.60809 32.0229 8.60809C32.3003 8.60809 32.5056 8.68275 32.6389 8.83209C32.7776 8.98142 32.8736 9.20009 32.9269 9.48809ZM31.0789 10.2081H34.0629C34.0843 9.88809 34.0576 9.58142 33.9829 9.28809C33.9083 8.99475 33.7856 8.73342 33.6149 8.50409C33.4496 8.27475 33.2363 8.09342 32.9749 7.96009C32.7136 7.82142 32.4069 7.75209 32.0549 7.75209C31.7403 7.75209 31.4523 7.80809 31.1909 7.92009C30.9349 8.03209 30.7136 8.18675 30.5269 8.38409C30.3403 8.57609 30.1963 8.80542 30.0949 9.07209C29.9936 9.33875 29.9429 9.62675 29.9429 9.93609C29.9429 10.2561 29.9909 10.5494 30.0869 10.8161C30.1883 11.0828 30.3296 11.3121 30.5109 11.5041C30.6923 11.6961 30.9136 11.8454 31.1749 11.9521C31.4363 12.0534 31.7296 12.1041 32.0549 12.1041C32.5243 12.1041 32.9243 11.9974 33.2549 11.7841C33.5856 11.5708 33.8309 11.2161 33.9909 10.7201H32.9909C32.9536 10.8481 32.8523 10.9708 32.6869 11.0881C32.5216 11.2001 32.3243 11.2561 32.0949 11.2561C31.7749 11.2561 31.5296 11.1734 31.3589 11.0081C31.1883 10.8428 31.0949 10.5761 31.0789 10.2081Z" fill="black"/>
</svg>
