<svg width="50" height="48" viewBox="0 0 50 48" fill="none" xmlns="http://www.w3.org/2000/svg">
<path d="M39.1753 0C37.4742 0 36.0825 1.39175 36.0825 3.09278V4.98148C33.0863 3.39936 29.7127 2.57732 26.2887 2.57732C17.2719 2.57732 9.22501 8.28199 6.34363 16.7526H3.09278C1.39175 16.7526 0 18.1443 0 19.8454V27.5773C0 29.2783 1.39175 30.6701 3.09278 30.6701H6.34665C9.32039 39.1581 17.2746 44.8454 26.2887 44.8454C29.7155 44.8454 33.048 44.0218 36.0825 42.4372V44.3299C36.0825 46.0309 37.4742 47.4227 39.1753 47.4227H46.9072C48.6082 47.4227 50 46.0309 50 44.3299V36.5979C50 34.8969 48.6082 33.5052 46.9072 33.5052H45.0145C46.5991 30.4707 47.4227 27.1382 47.4227 23.7113C47.4227 20.2751 46.5739 16.9315 45.0175 13.9175H46.9072C48.6082 13.9175 50 12.5258 50 10.8247V3.09278C50 1.39175 48.6082 0 46.9072 0H39.1753ZM39.1753 1.03093H46.9072C48.0412 1.03093 48.9691 1.95876 48.9691 3.09278V10.8247C48.9691 11.9588 48.0412 12.8866 46.9072 12.8866H39.1753C38.0412 12.8866 37.1134 11.9588 37.1134 10.8247V3.09278C37.1134 1.95876 38.0412 1.03093 39.1753 1.03093ZM26.2887 3.65959C29.7034 3.65959 33.1162 4.51906 36.0825 6.18255V10.8247C36.0825 12.5258 37.4742 13.9175 39.1753 13.9175H43.8185C45.4479 16.9089 46.3404 20.2842 46.3404 23.7113C46.3404 27.126 45.4809 30.5389 43.8175 33.5052H39.1753C37.4742 33.5052 36.0825 34.8969 36.0825 36.5979V41.2401C33.1162 42.9036 29.7034 43.7631 26.2887 43.7631C17.866 43.7631 10.372 38.5441 7.45409 30.6701H10.8247C12.5258 30.6701 13.9175 29.2783 13.9175 27.5773V19.8454C13.9175 18.1443 12.5258 16.7526 10.8247 16.7526H7.44C10.3904 8.89955 17.8489 3.65959 26.2887 3.65959ZM3.09278 17.7835H10.8247C11.9588 17.7835 12.8866 18.7113 12.8866 19.8454V27.5773C12.8866 28.7113 11.9588 29.6392 10.8247 29.6392H3.09278C1.95876 29.6392 1.03093 28.7113 1.03093 27.5773V19.8454C1.03093 18.7113 1.95876 17.7835 3.09278 17.7835ZM39.1753 34.5361H46.9072C48.0412 34.5361 48.9691 35.4639 48.9691 36.5979V44.3299C48.9691 45.4639 48.0412 46.3918 46.9072 46.3918H39.1753C38.0412 46.3918 37.1134 45.4639 37.1134 44.3299V36.5979C37.1134 35.4639 38.0412 34.5361 39.1753 34.5361Z" fill="black"/>
</svg>
