<svg width="1728" height="1117" viewBox="0 0 1728 1117" fill="none" xmlns="http://www.w3.org/2000/svg">
<g clip-path="url(#clip0_29_1247)">
<rect width="1728" height="1117" fill="white"/>
<rect width="1728" height="60" fill="#D9D9D9"/>
<rect x="204" y="180" width="300" height="300" rx="30" fill="#D9D9D9"/>
<rect x="534" y="180" width="300" height="300" rx="30" fill="#D9D9D9"/>
<rect x="864" y="180" width="300" height="300" rx="30" fill="#D9D9D9"/>
<rect x="204" y="510" width="300" height="300" rx="30" fill="#D9D9D9"/>
<rect x="534" y="510" width="300" height="300" rx="30" fill="#D9D9D9"/>
<rect x="864" y="510" width="300" height="300" rx="30" fill="#D9D9D9"/>
<rect x="204" y="840" width="300" height="300" rx="30" fill="#D9D9D9"/>
<rect x="534" y="840" width="300" height="300" rx="30" fill="#D9D9D9"/>
<rect x="864" y="840" width="300" height="300" rx="30" fill="#D9D9D9"/>
<rect x="1224" y="180" width="179" height="20" fill="#D9D9D9"/>
<rect x="1224" y="210" width="300" height="20" fill="#D9D9D9"/>
<rect x="1224" y="240" width="300" height="20" fill="#D9D9D9"/>
<rect x="1224" y="270" width="300" height="20" fill="#D9D9D9"/>
<rect x="1224" y="300" width="300" height="20" fill="#D9D9D9"/>
<rect x="1224" y="330" width="300" height="20" fill="#D9D9D9"/>
<rect x="1224" y="360" width="300" height="20" fill="#D9D9D9"/>
<rect x="1224" y="440" width="179" height="20" fill="#D9D9D9"/>
<rect x="1224" y="470" width="300" height="20" fill="#D9D9D9"/>
<rect x="1224" y="500" width="300" height="20" fill="#D9D9D9"/>
<rect x="1224" y="530" width="300" height="20" fill="#D9D9D9"/>
<rect x="1224" y="560" width="300" height="20" fill="#D9D9D9"/>
<rect x="1224" y="590" width="300" height="20" fill="#D9D9D9"/>
<rect x="1224" y="620" width="300" height="20" fill="#D9D9D9"/>
<rect x="1224" y="700" width="179" height="20" fill="#D9D9D9"/>
<rect x="1224" y="730" width="300" height="20" fill="#D9D9D9"/>
<rect x="1224" y="760" width="300" height="20" fill="#D9D9D9"/>
<rect x="1224" y="790" width="300" height="20" fill="#D9D9D9"/>
<rect x="1224" y="820" width="300" height="20" fill="#D9D9D9"/>
<rect x="1224" y="850" width="300" height="20" fill="#D9D9D9"/>
<rect x="1224" y="880" width="300" height="20" fill="#D9D9D9"/>
</g>
<defs>
<clipPath id="clip0_29_1247">
<rect width="1728" height="1117" fill="white"/>
</clipPath>
</defs>
</svg>
