<svg width="1728" height="1117" viewBox="0 0 1728 1117" fill="none" xmlns="http://www.w3.org/2000/svg">
<rect width="1728" height="1117" fill="#F5F8F9"/>
<rect x="0.5" y="0.5" width="1727" height="1116" stroke="black" stroke-opacity="0.25"/>
<path d="M887.181 406.916H1078.86C1084.34 406.916 1088.64 402.648 1088.64 397.139C1088.64 391.654 1084.37 387.361 1078.86 387.361L887.181 387.385C881.696 387.385 877.403 391.654 877.403 397.163C877.403 402.027 881.672 406.916 887.181 406.916Z" fill="#8D8D8E"/>
<path d="M887.181 479.555H1078.86C1084.34 479.555 1088.64 475.286 1088.64 469.777C1088.64 464.293 1084.37 460 1078.86 460L887.181 460.024C881.696 460.024 877.403 464.292 877.403 469.801C877.403 474.666 881.672 479.555 887.181 479.555Z" fill="#8D8D8E"/>
<path d="M887.181 552.217H1078.86C1084.34 552.217 1088.64 547.948 1088.64 542.44C1088.64 536.955 1084.37 532.662 1078.86 532.662H887.181C881.696 532.662 877.403 536.931 877.403 542.44C877.403 547.924 881.672 552.217 887.181 552.217Z" fill="#8D8D8E"/>
<path d="M1102.07 309.245H863.358C834.67 309.245 811.467 332.448 811.467 361.136V458.812C811.467 464.297 815.735 468.59 821.244 468.59C826.729 468.59 831.022 464.321 831.022 458.812V361.136C831.022 343.441 845.068 329.395 862.762 329.395H1102.06C1119.76 329.395 1133.8 343.441 1133.8 361.136V577.856C1133.8 595.55 1119.76 609.596 1102.06 609.596H863.354C849.928 609.596 838.314 601.655 834.046 589.445C832.21 584.557 826.105 582.124 821.216 583.96C816.328 585.797 813.895 591.902 815.731 596.79C823.673 616.321 842.583 629.151 863.95 629.151H917.677L876.183 795.171C874.967 800.655 878.019 806.164 883.504 807.38C884.124 807.38 885.34 808 885.936 808C890.205 808 894.473 804.948 895.714 800.679L918.917 706.055H1047.12L1070.32 800.057C1071.54 804.325 1075.21 807.378 1080.1 807.378C1080.72 807.378 1081.93 807.378 1082.53 806.758C1088.02 805.541 1091.07 800.032 1089.85 794.548L1048.33 628.504L1102.06 628.527C1130.75 628.527 1153.95 605.324 1153.95 576.637V361.131C1153.95 332.443 1130.75 309.24 1102.06 309.24L1102.07 309.245ZM1042.24 685.905H923.815L937.861 629.125H1027.6L1042.24 685.905Z" fill="#8D8D8E"/>
<path d="M838.344 558.322C846.285 554.054 852.39 547.329 855.442 538.792C860.927 521.098 851.174 502.163 833.455 496.058L793.774 483.228L760.818 442.927C751.04 430.717 738.235 422.18 723.569 418.508C736.994 406.918 745.556 390.416 745.556 370.886C745.556 336.093 717.464 308 682.67 308C647.878 308.024 619.785 336.092 619.785 370.886C619.785 388.58 627.726 405.082 639.315 416.672C602.686 421.56 574 453.921 574 492.383V587.008C574 605.322 588.642 619.964 606.956 619.964C611.845 619.964 616.113 618.748 619.786 617.531V771.366C619.786 791.517 636.264 807.995 656.415 807.995C666.788 807.995 675.945 803.726 682.67 796.406C689.395 803.131 698.553 807.995 708.926 807.995C729.077 807.995 745.555 791.517 745.555 771.366V530.849L747.987 533.282C752.256 538.17 757.764 541.819 763.869 544.275L812.708 560.158C821.245 563.186 830.403 561.971 838.344 558.322ZM682.672 327.555C706.47 327.555 725.405 347.085 725.405 370.288C725.405 393.492 705.875 413.022 682.672 413.022C659.468 413.022 639.938 393.492 639.938 370.288C639.938 347.085 658.849 327.555 682.672 327.555ZM818.815 541.223L769.976 525.341C767.544 524.721 765.088 522.908 763.251 521.072L743.1 496.653C740.668 493.6 735.78 492.384 732.107 493.6C728.435 494.817 725.382 498.489 725.382 502.758L725.406 771.369C725.406 780.526 718.085 787.847 708.928 787.847C699.77 787.847 692.45 780.526 692.45 771.369L692.426 593.707C692.426 588.222 688.157 583.929 682.648 583.929C677.164 583.929 672.871 588.198 672.871 593.707L672.895 771.369C672.895 780.526 665.574 787.847 656.417 787.847C647.259 787.847 639.939 780.526 639.939 771.369V503.38C639.939 497.896 635.67 493.603 630.161 493.603C624.676 493.603 620.384 497.871 620.384 503.38V587.01C620.384 594.331 614.279 599.84 607.554 599.84C600.829 599.84 594.724 593.735 594.724 587.01L594.748 492.386C594.748 460.646 620.383 435.01 652.123 435.01H703.394C719.872 435.01 735.754 442.331 746.127 455.161L780.92 497.895C782.136 499.111 783.972 500.327 785.808 500.947L827.35 514.969C834.671 517.401 838.343 525.342 836.507 532.663C835.291 536.336 832.835 539.388 829.782 540.604C826.133 541.821 822.463 542.439 818.815 541.223Z" fill="#8D8D8E"/>
</svg>
