<svg width="1728" height="1117" viewBox="0 0 1728 1117" fill="none" xmlns="http://www.w3.org/2000/svg">
<g clip-path="url(#clip0_29_1338)">
<rect width="1728" height="1117" fill="white"/>
<rect width="1728" height="60" fill="#D9D9D9"/>
<rect x="204" y="264" width="300" height="300" rx="30" fill="#D9D9D9"/>
<rect x="534" y="264" width="300" height="300" rx="30" fill="#D9D9D9"/>
<rect x="864" y="264" width="300" height="300" rx="30" fill="#D9D9D9"/>
<rect x="204" y="594" width="300" height="300" rx="30" fill="#D9D9D9"/>
<rect x="534" y="594" width="300" height="300" rx="30" fill="#D9D9D9"/>
<rect x="864" y="594" width="300" height="300" rx="30" fill="#D9D9D9"/>
<rect x="204" y="924" width="300" height="300" rx="30" fill="#D9D9D9"/>
<rect x="534" y="924" width="300" height="300" rx="30" fill="#D9D9D9"/>
<rect x="864" y="924" width="300" height="300" rx="30" fill="#D9D9D9"/>
<rect x="1224" y="264" width="179" height="20" fill="#D9D9D9"/>
<rect x="1224" y="294" width="300" height="20" fill="#D9D9D9"/>
<rect x="1224" y="324" width="300" height="20" fill="#D9D9D9"/>
<rect x="1224" y="354" width="300" height="20" fill="#D9D9D9"/>
<rect x="1224" y="384" width="300" height="20" fill="#D9D9D9"/>
<rect x="1224" y="414" width="300" height="20" fill="#D9D9D9"/>
<rect x="1224" y="444" width="300" height="20" fill="#D9D9D9"/>
<rect x="1224" y="524" width="179" height="20" fill="#D9D9D9"/>
<rect x="1224" y="554" width="300" height="20" fill="#D9D9D9"/>
<rect x="1224" y="584" width="300" height="20" fill="#D9D9D9"/>
<rect x="1224" y="614" width="300" height="20" fill="#D9D9D9"/>
<rect x="1224" y="644" width="300" height="20" fill="#D9D9D9"/>
<rect x="1224" y="674" width="300" height="20" fill="#D9D9D9"/>
<rect x="1224" y="704" width="300" height="20" fill="#D9D9D9"/>
<rect x="1224" y="784" width="179" height="20" fill="#D9D9D9"/>
<rect x="1224" y="814" width="300" height="20" fill="#D9D9D9"/>
<rect x="1224" y="844" width="300" height="20" fill="#D9D9D9"/>
<rect x="1224" y="874" width="300" height="20" fill="#D9D9D9"/>
<rect x="1224" y="904" width="300" height="20" fill="#D9D9D9"/>
<rect x="1224" y="934" width="300" height="20" fill="#D9D9D9"/>
<rect x="1224" y="964" width="300" height="20" fill="#D9D9D9"/>
<rect x="204" y="110" width="1320" height="100" rx="30" fill="#D9D9D9" fill-opacity="0.25"/>
<rect x="234" y="140" width="40" height="40" rx="20" fill="#D9D9D9"/>
<path fill-rule="evenodd" clip-rule="evenodd" d="M261.307 155.534L252.451 166.161L247.646 162.318L248.688 161.016L252.216 163.839L260.027 154.467L261.307 155.534Z" fill="white" stroke="white" stroke-width="2"/>
<rect x="289" y="135" width="179" height="10" fill="#D9D9D9"/>
<rect x="289" y="155" width="521" height="10" fill="#D9D9D9"/>
<rect x="289" y="175" width="521" height="10" fill="#D9D9D9"/>
</g>
<defs>
<clipPath id="clip0_29_1338">
<rect width="1728" height="1117" fill="white"/>
</clipPath>
</defs>
</svg>
