<svg width="1728" height="1117" viewBox="0 0 1728 1117" fill="none" xmlns="http://www.w3.org/2000/svg">
<g clip-path="url(#clip0_23_1443)">
<rect width="1728" height="1117" fill="white"/>
<rect width="1728" height="60" fill="#D9D9D9"/>
<rect x="219" y="180" width="300" height="300" rx="30" fill="#D9D9D9"/>
<rect x="549" y="180" width="300" height="300" rx="30" fill="#D9D9D9"/>
<rect x="879" y="180" width="300" height="300" rx="30" fill="#D9D9D9"/>
<rect x="1209" y="180" width="300" height="300" rx="30" fill="#D9D9D9"/>
<rect x="219" y="510" width="300" height="300" rx="30" fill="#D9D9D9"/>
<rect x="549" y="510" width="300" height="300" rx="30" fill="#D9D9D9"/>
<rect x="879" y="510" width="300" height="300" rx="30" fill="#D9D9D9"/>
<rect x="1209" y="510" width="300" height="300" rx="30" fill="#D9D9D9"/>
<rect x="219" y="840" width="300" height="300" rx="30" fill="#D9D9D9"/>
<rect x="549" y="840" width="300" height="300" rx="30" fill="#D9D9D9"/>
<rect x="879" y="840" width="300" height="300" rx="30" fill="#D9D9D9"/>
<rect x="1209" y="840" width="300" height="300" rx="30" fill="#D9D9D9"/>
</g>
<defs>
<clipPath id="clip0_23_1443">
<rect width="1728" height="1117" fill="white"/>
</clipPath>
</defs>
</svg>
