<svg width="1728" height="1117" viewBox="0 0 1728 1117" fill="none" xmlns="http://www.w3.org/2000/svg">
<g clip-path="url(#clip0_41_11820)">
<rect width="1728" height="1117" fill="white"/>
<rect width="1728" height="60" fill="#D9D9D9"/>
<rect x="1347" y="132" width="179" height="20" fill="#D9D9D9"/>
<rect x="1347" y="162" width="300" height="20" fill="#D9D9D9"/>
<rect x="1347" y="192" width="300" height="20" fill="#D9D9D9"/>
<rect x="1347" y="222" width="300" height="20" fill="#D9D9D9"/>
<rect x="1347" y="252" width="300" height="20" fill="#D9D9D9"/>
<rect x="1347" y="282" width="300" height="20" fill="#D9D9D9"/>
<rect x="1347" y="312" width="300" height="20" fill="#D9D9D9"/>
<rect x="1347" y="392" width="179" height="20" fill="#D9D9D9"/>
<rect x="1347" y="422" width="300" height="20" fill="#D9D9D9"/>
<rect x="1347" y="452" width="300" height="20" fill="#D9D9D9"/>
<rect x="1347" y="482" width="300" height="20" fill="#D9D9D9"/>
<rect x="1347" y="512" width="300" height="20" fill="#D9D9D9"/>
<rect x="1347" y="542" width="300" height="20" fill="#D9D9D9"/>
<rect x="1347" y="572" width="300" height="20" fill="#D9D9D9"/>
<rect x="1347" y="652" width="93.3333" height="93" rx="15" fill="#D9D9D9"/>
<rect x="1450.33" y="652" width="93.3333" height="93" rx="15" fill="#D9D9D9"/>
<rect x="1553.67" y="652" width="93.3333" height="93" rx="15" fill="#D9D9D9"/>
<rect x="1347" y="755" width="93.3333" height="93" rx="15" fill="#D9D9D9"/>
<rect x="1450.33" y="755" width="93.3333" height="93" rx="15" fill="#D9D9D9"/>
<rect x="1553.67" y="755" width="93.3333" height="93" rx="15" fill="#D9D9D9"/>
<rect x="1347" y="858" width="93.3333" height="93" rx="15" fill="#D9D9D9"/>
<rect x="1450.33" y="858" width="93.3333" height="93" rx="15" fill="#D9D9D9"/>
<rect x="1553.67" y="858" width="93.3333" height="93" rx="15" fill="#D9D9D9"/>
<rect x="1300" y="1038" width="402" height="49" rx="10" fill="#D9D9D9"/>
<rect x="153" y="212" width="300" height="300" rx="30" fill="#D9D9D9"/>
<rect x="483" y="212" width="300" height="300" rx="30" fill="#D9D9D9"/>
<rect x="813" y="212" width="300" height="300" rx="30" fill="#D9D9D9"/>
<rect x="153" y="542" width="300" height="300" rx="30" fill="#D9D9D9"/>
<rect x="483" y="542" width="300" height="300" rx="30" fill="#D9D9D9"/>
<rect x="813" y="542" width="300" height="300" rx="30" fill="#D9D9D9"/>
<rect x="153" y="872" width="300" height="300" rx="30" fill="#D9D9D9"/>
<rect x="483" y="872" width="300" height="300" rx="30" fill="#D9D9D9"/>
<rect x="813" y="872" width="300" height="300" rx="30" fill="#D9D9D9"/>
<path d="M1136.76 692.437L1161.76 706.871L1161.76 678.003L1136.76 692.437ZM1231.76 798.438L1229.26 798.438L1229.26 800.938L1231.76 800.938L1231.76 798.438ZM1231.76 692.437L1234.26 692.437L1234.26 689.937L1231.76 689.937L1231.76 692.437ZM1326.76 795.937L1231.76 795.938L1231.76 800.938L1326.76 800.937L1326.76 795.937ZM1234.26 798.438L1234.26 692.437L1229.26 692.437L1229.26 798.438L1234.26 798.438ZM1231.76 689.937L1159.26 689.937L1159.26 694.937L1231.76 694.937L1231.76 689.937Z" fill="#D9D9D9"/>
<line x1="1274.5" y1="56" x2="1274.5" y2="1117" stroke="#D9D9D9" stroke-width="5"/>
</g>
<rect x="0.5" y="0.5" width="1727" height="1116" stroke="black" stroke-opacity="0.25"/>
<defs>
<clipPath id="clip0_41_11820">
<rect width="1728" height="1117" fill="white"/>
</clipPath>
</defs>
</svg>
