<svg width="50" height="41" viewBox="0 0 50 41" fill="none" xmlns="http://www.w3.org/2000/svg">
<path d="M13.7209 16.9767C17.093 16.9767 19.8837 14.186 19.8837 10.8139C19.8837 7.44182 17.093 4.65112 13.7209 4.65112C10.3488 4.65112 7.55811 7.44182 7.55811 10.8139C7.55811 14.186 10.3488 16.9767 13.7209 16.9767ZM13.7209 5.81391C16.5116 5.81391 18.7209 8.02322 18.7209 10.8139C18.7209 13.6046 16.5116 15.8139 13.7209 15.8139C10.9302 15.8139 8.7209 13.6046 8.7209 10.8139C8.7209 8.02322 10.9302 5.81391 13.7209 5.81391Z" fill="black"/>
<path d="M4.41868 33.721H23.0233C23.3722 33.721 23.6047 33.4884 23.6047 33.1396V29.4186C23.6047 23.9535 19.1861 19.5349 13.721 19.5349C8.25588 19.5349 3.83728 23.9535 3.83728 29.4186V33.1396C3.83728 33.4884 4.06984 33.721 4.41868 33.721ZM5.00007 29.4186C5.00007 24.6512 8.95356 20.6977 13.721 20.6977C18.4884 20.6977 22.4419 24.6512 22.4419 29.4186V32.5582H5.00007V29.4186Z" fill="black"/>
<path d="M49.4186 0H0.581395C0.232558 0 0 0.232558 0 0.581395V39.6512C0 40 0.232558 40.2326 0.581395 40.2326H49.4186C49.7674 40.2326 50 40 50 39.6512V0.581395C50 0.232558 49.7674 0 49.4186 0ZM48.8372 39.0698H1.16279V1.16279H48.8372V39.0698Z" fill="black"/>
<path d="M29.0698 5.81391H31.3954C31.7442 5.81391 31.9768 5.58136 31.9768 5.23252C31.9768 4.88368 31.7442 4.65112 31.3954 4.65112H29.0698C28.721 4.65112 28.4884 4.88368 28.4884 5.23252C28.4884 5.58136 28.721 5.81391 29.0698 5.81391Z" fill="black"/>
<path d="M34.3023 5.81391H42.4419C42.7907 5.81391 43.0233 5.58136 43.0233 5.23252C43.0233 4.88368 42.7907 4.65112 42.4419 4.65112H34.3023C33.9535 4.65112 33.7209 4.88368 33.7209 5.23252C33.7209 5.58136 33.9535 5.81391 34.3023 5.81391Z" fill="black"/>
<path d="M27.907 9.30244H44.186C44.5349 9.30244 44.7674 9.06988 44.7674 8.72104C44.7674 8.37221 44.5349 8.13965 44.186 8.13965H27.907C27.5581 8.13965 27.3256 8.37221 27.3256 8.72104C27.3256 9.06988 27.5581 9.30244 27.907 9.30244Z" fill="black"/>
<path d="M27.907 12.7907H43.0232C43.3721 12.7907 43.6046 12.5582 43.6046 12.2093C43.6046 11.8605 43.3721 11.6279 43.0232 11.6279H27.907C27.5581 11.6279 27.3256 11.8605 27.3256 12.2093C27.3256 12.5582 27.5581 12.7907 27.907 12.7907Z" fill="black"/>
<path d="M27.907 16.279H39.5349C39.8837 16.279 40.1163 16.0464 40.1163 15.6976C40.1163 15.3488 39.8837 15.1162 39.5349 15.1162H27.907C27.5581 15.1162 27.3256 15.3488 27.3256 15.6976C27.3256 16.0464 27.5581 16.279 27.907 16.279Z" fill="black"/>
<path d="M27.3255 26.6282H45.9302C46.279 26.6282 46.5116 26.3957 46.5116 26.0468V22.5584C46.5116 22.2096 46.279 21.9771 45.9302 21.9771H27.3255C26.9767 21.9771 26.7441 22.2096 26.7441 22.5584V26.0468C26.7441 26.3957 26.9767 26.6282 27.3255 26.6282ZM35.4651 23.1398H45.3488V25.4654H35.4651V23.1398Z" fill="black"/>
<path d="M27.3255 33.6048H45.9302C46.279 33.6048 46.5116 33.3722 46.5116 33.0234V29.535C46.5116 29.1862 46.279 28.9536 45.9302 28.9536H27.3255C26.9767 28.9536 26.7441 29.1862 26.7441 29.535V33.0234C26.7441 33.3722 26.9767 33.6048 27.3255 33.6048ZM40.1162 30.1164H45.3488V32.442H40.1162V30.1164Z" fill="black"/>
</svg>
