<svg width="1728" height="1117" viewBox="0 0 1728 1117" fill="none" xmlns="http://www.w3.org/2000/svg">
<rect width="1728" height="1117" fill="#F5F8F9"/>
<rect x="0.5" y="0.5" width="1727" height="1116" stroke="black" stroke-opacity="0.25"/>
<path d="M686.313 752.851H729.573V817.656C729.573 819.728 730.386 821.731 731.864 823.209C733.342 824.687 735.345 825.5 737.417 825.5C739.675 825.5 741.83 824.517 743.328 822.816L743.336 822.807L743.344 822.798L803.833 752.851H1042.43H1042.44C1069.14 752.822 1090.77 731.192 1090.83 704.513V704.508V483.141V483.135C1090.77 456.456 1069.14 434.826 1042.44 434.797H1042.43L686.313 434.797L686.31 434.797C659.602 434.826 637.972 456.456 637.913 483.135V483.141L637.913 704.508L637.913 704.513C637.972 731.192 659.602 752.822 686.31 752.851H686.313ZM798.704 737.313V734.784L794.313 739.861L745.262 796.577V745.004C745.262 742.919 744.392 740.928 742.943 739.478C741.498 738.034 739.536 737.159 737.417 737.159H686.313C668.264 737.159 653.629 722.524 653.602 704.502V483.139C653.628 465.117 668.264 450.482 686.313 450.482L1042.43 450.482C1060.48 450.482 1075.11 465.118 1075.14 483.141V704.5C1075.11 722.523 1060.48 737.159 1042.43 737.159H800.24C799.719 737.159 799.205 737.212 798.704 737.313Z" fill="#8D8D8E" stroke="#8D8D8E" stroke-width="5"/>
<path d="M616.278 648.318H616.281H645.786C650.117 648.318 653.63 644.805 653.63 640.474C653.63 636.142 650.117 632.629 645.786 632.629H616.285C600.237 632.604 587.215 619.607 587.189 603.535V541.551C587.215 525.477 600.239 512.455 616.283 512.429H645.786C650.117 512.429 653.63 508.916 653.63 504.585C653.63 500.253 650.117 496.74 645.786 496.74L616.281 496.74L616.278 496.74C591.573 496.77 571.529 516.816 571.5 541.546V541.549L571.5 603.537L571.5 603.54C571.529 628.273 591.576 648.288 616.278 648.318Z" fill="#8D8D8E" stroke="#8D8D8E" stroke-width="5"/>
<path d="M1112.46 648.318H1112.47C1137.17 648.288 1157.22 628.272 1157.25 603.54V603.537V541.549V541.546C1157.22 516.816 1137.17 496.77 1112.47 496.74H1112.46H1082.96C1078.63 496.74 1075.12 500.253 1075.12 504.585C1075.12 508.916 1078.63 512.429 1082.96 512.429H1112.46C1128.51 512.455 1141.53 525.476 1141.56 541.551C1141.56 541.551 1141.56 541.552 1141.56 541.553V603.533C1141.56 603.534 1141.56 603.534 1141.56 603.535C1141.53 619.607 1128.51 632.604 1112.46 632.629H1082.96C1078.63 632.629 1075.12 636.142 1075.12 640.474C1075.12 644.805 1078.63 648.318 1082.96 648.318H1112.46Z" fill="#8D8D8E" stroke="#8D8D8E" stroke-width="5"/>
<path d="M758.959 601.668H969.78C998.243 601.668 1021.35 578.588 1021.35 550.096C1021.35 521.63 998.242 498.551 969.78 498.551H758.959C730.497 498.551 707.387 521.63 707.387 550.096C707.387 578.588 730.496 601.668 758.959 601.668ZM723.075 550.092C723.075 530.293 739.155 514.236 758.959 514.236H969.78C989.583 514.236 1005.66 530.293 1005.66 550.092C1005.66 569.893 989.582 585.976 969.78 585.976H758.959C739.158 585.976 723.075 569.893 723.075 550.092Z" fill="#8D8D8E" stroke="#8D8D8E" stroke-width="5"/>
<path d="M803.293 521.13L803.29 521.129C791.589 516.291 778.099 518.948 769.142 527.934C760.161 536.887 757.468 550.377 762.337 562.084C767.178 573.821 778.614 581.442 791.285 581.442C808.617 581.442 822.619 567.406 822.649 550.109V550.105C822.649 537.432 815.027 525.999 803.293 521.13ZM776.838 544.102C779.145 538.529 784.429 534.805 790.368 534.456H791.284C799.926 534.456 806.934 541.44 806.96 550.079C806.959 556.416 803.143 562.127 797.287 564.551L798.243 566.861L797.287 564.551C791.432 566.974 784.712 565.633 780.219 561.167C775.733 556.68 774.413 549.936 776.836 544.105L776.838 544.102Z" fill="#8D8D8E" stroke="#8D8D8E" stroke-width="5"/>
<path d="M915.245 527.944L915.248 527.941C924.202 518.987 937.69 516.297 949.422 521.135L949.429 521.138L949.429 521.138C961.13 526.006 968.783 537.436 968.783 550.112V550.117C968.753 567.414 954.751 581.419 937.478 581.449M915.245 527.944L937.474 578.949M915.245 527.944C906.296 536.924 903.601 550.412 908.472 562.122M915.245 527.944L910.78 561.163M937.478 581.449L937.474 578.949M937.478 581.449C937.479 581.449 937.479 581.449 937.48 581.449L937.474 578.949M937.478 581.449C924.775 581.479 913.341 573.855 908.472 562.122M937.474 578.949C925.784 578.977 915.262 571.963 910.78 561.163M908.472 562.122C908.472 562.122 908.472 562.123 908.472 562.123L910.78 561.163M908.472 562.122C908.472 562.121 908.471 562.121 908.471 562.121L910.78 561.163M936.529 534.46L937.466 534.463C946.086 534.487 953.091 541.473 953.094 550.107C953.068 556.449 949.249 562.16 943.397 564.584C937.535 566.985 930.79 565.636 926.331 561.153L926.331 561.153C921.861 556.659 920.523 549.914 922.967 544.093L922.967 544.093L922.972 544.082C925.275 538.518 930.572 534.795 936.529 534.46Z" fill="#8D8D8E" stroke="#8D8D8E" stroke-width="5"/>
<path d="M841.162 442.639C841.162 446.97 844.675 450.484 849.006 450.484C851.112 450.484 853.105 449.619 854.56 448.165C856.028 446.696 856.851 444.725 856.851 442.639V401.667C856.851 397.335 853.338 393.822 849.006 393.822C844.675 393.822 841.162 397.335 841.162 401.667V442.639Z" fill="#8D8D8E" stroke="#8D8D8E" stroke-width="5"/>
<path d="M871.895 442.639C871.895 446.97 875.408 450.484 879.739 450.484C881.844 450.484 883.837 449.619 885.292 448.165C886.761 446.696 887.583 444.725 887.583 442.639V401.667C887.583 397.335 884.07 393.822 879.739 393.822C875.408 393.822 871.895 397.335 871.895 401.667V442.639Z" fill="#8D8D8E" stroke="#8D8D8E" stroke-width="5"/>
<path d="M864.374 411.787L864.378 411.787C897.848 411.729 924.963 384.616 924.992 351.143V351.141C924.992 326.61 910.244 304.516 887.571 295.111L887.568 295.109C864.896 285.733 838.826 290.929 821.494 308.261C804.133 325.622 798.966 351.692 808.342 374.364L808.343 374.365C817.721 397.011 839.843 411.787 864.374 411.787ZM909.304 351.147V351.148C909.331 369.337 898.365 385.711 881.565 392.674C864.77 399.635 845.443 395.786 832.574 382.945C819.732 370.076 815.884 350.748 822.844 333.953C829.805 317.156 846.178 306.214 864.372 306.213C889.185 306.24 909.278 326.333 909.304 351.147Z" fill="#8D8D8E" stroke="#8D8D8E" stroke-width="5"/>
<path d="M938.95 643.398C889.441 658.9 839.295 658.896 789.783 643.386C786.742 642.405 783.442 643.398 781.412 645.794C779.357 648.219 779.001 651.613 780.42 654.413C796.408 686.068 828.919 705.998 864.376 705.914C899.834 705.998 932.339 686.067 948.325 654.413C949.744 651.613 949.388 648.219 947.333 645.794C945.3 643.395 941.994 642.403 938.949 643.39L938.95 643.398ZM864.348 690.198C841.887 690.198 820.629 680.58 805.807 663.991C844.339 672.941 884.385 672.941 922.916 663.991C908.095 680.581 886.835 690.198 864.348 690.198Z" fill="#8D8D8E" stroke="#8D8D8E" stroke-width="5"/>
</svg>
