<svg width="1728" height="1117" viewBox="0 0 1728 1117" fill="none" xmlns="http://www.w3.org/2000/svg">
<rect width="1728" height="1117" fill="white"/>
<rect x="0.5" y="0.5" width="1727" height="1116" stroke="black" stroke-opacity="0.25"/>
<rect width="1728" height="60" fill="#D9D9D9"/>
<rect x="538" y="215" width="179" height="20" fill="#D9D9D9"/>
<rect x="538" y="245" width="620" height="20" fill="#D9D9D9"/>
<rect x="538" y="275" width="620" height="20" fill="#D9D9D9"/>
<rect x="538" y="305" width="620" height="20" fill="#D9D9D9"/>
<rect x="538" y="335" width="620" height="20" fill="#D9D9D9"/>
<rect x="538" y="365" width="620" height="20" fill="white"/>
<rect x="538" y="395" width="620" height="20" fill="#D9D9D9"/>
<rect x="538" y="425" width="620" height="20" fill="#D9D9D9"/>
<rect x="538" y="455" width="620" height="20" fill="#D9D9D9"/>
<rect x="538" y="485" width="314" height="20" fill="#D9D9D9"/>
<rect x="344" y="704" width="348.667" height="94" rx="30" fill="#D9D9D9"/>
<rect x="712.667" y="704" width="348.667" height="94" rx="30" fill="#D9D9D9"/>
<rect x="1081.33" y="704" width="348.667" height="94" rx="30" fill="#D9D9D9"/>
<rect x="344" y="818" width="348.667" height="94" rx="30" fill="#D9D9D9"/>
<rect x="712.667" y="818" width="348.667" height="94" rx="30" fill="#D9D9D9"/>
<rect x="1081.33" y="818" width="348.667" height="94" rx="30" fill="#D9D9D9"/>
<rect x="344" y="962" width="1086" height="94" rx="30" fill="#D9D9D9"/>
</svg>
