<svg width="50" height="45" viewBox="0 0 50 45" fill="none" xmlns="http://www.w3.org/2000/svg">
<path d="M50 22.2687C50 18.9564 45.852 15.8174 39.4925 13.8708C40.96 7.38891 40.3078 2.23196 37.4338 0.580921C36.7713 0.19364 35.9967 0.0101914 35.1508 0.0101914V2.28292C35.6196 2.28292 35.9967 2.37464 36.3127 2.5479C37.6987 3.34285 38.3 6.36975 37.8312 10.2629C37.7191 11.221 37.5357 12.2299 37.3115 13.2593C35.3139 12.7701 33.1329 12.393 30.8398 12.1484C29.4639 10.2629 28.0371 8.55075 26.6001 7.05259C29.9225 3.96453 33.0412 2.27273 35.161 2.27273V0C32.3583 0 28.6894 1.99755 24.9796 5.4627C21.2699 2.01794 17.6009 0.0407666 14.7982 0.0407666V2.31349C16.9079 2.31349 20.0367 3.99511 23.3592 7.06278C21.9323 8.56095 20.5055 10.2629 19.15 12.1484C16.8467 12.393 14.6657 12.7701 12.6682 13.2695C12.4338 12.2503 12.2605 11.2617 12.1382 10.3139C11.6592 6.42071 12.2503 3.3938 13.6262 2.58867C13.9319 2.40522 14.3294 2.32369 14.7982 2.32369V0.050958C13.9421 0.050958 13.1675 0.234407 12.4949 0.621688C9.63106 2.27273 8.98899 7.41949 10.4668 13.881C4.1276 15.8378 0 18.9666 0 22.2687C0 25.5809 4.14798 28.7199 10.5075 30.6665C9.03995 37.1484 9.69221 42.3053 12.5662 43.9564C13.2287 44.3437 14.0033 44.5271 14.8594 44.5271C17.662 44.5271 21.331 42.5296 25.0408 39.0644C28.7505 42.5092 32.4195 44.4863 35.2222 44.4863C36.0783 44.4863 36.8528 44.3029 37.5255 43.9156C40.3893 42.2646 41.0314 37.1178 39.5536 30.6563C45.8724 28.7097 50 25.5707 50 22.2687ZM36.7305 15.4709C36.3534 16.7856 35.8846 18.1411 35.3547 19.4965C34.9368 18.6812 34.4986 17.8659 34.0196 17.0506C33.5508 16.2352 33.0514 15.4403 32.552 14.6657C33.9992 14.8797 35.3954 15.1447 36.7305 15.4709ZM32.0628 26.3249C31.2678 27.7008 30.4525 29.0053 29.6066 30.2181C28.0881 30.3506 26.5491 30.4219 25 30.4219C23.4611 30.4219 21.9221 30.3506 20.4138 30.2283C19.5679 29.0155 18.7424 27.7212 17.9474 26.3555C17.1728 25.0204 16.4696 23.6649 15.8276 22.2992C16.4594 20.9336 17.1729 19.5679 17.9372 18.2328C18.7322 16.8569 19.5475 15.5524 20.3934 14.3396C21.9119 14.2071 23.4509 14.1358 25 14.1358C26.5389 14.1358 28.0779 14.2071 29.5862 14.3294C30.4321 15.5422 31.2576 16.8365 32.0526 18.2022C32.8272 19.5373 33.5304 20.8928 34.1724 22.2585C33.5304 23.6241 32.8271 24.9898 32.0628 26.3249ZM35.3547 25C35.905 26.3657 36.3738 27.7314 36.7611 29.0563C35.426 29.3824 34.0196 29.6576 32.5622 29.8716C33.0616 29.0868 33.5609 28.2817 34.0298 27.4562C34.4986 26.6408 34.9368 25.8153 35.3547 25ZM25.0204 35.8744C24.0726 34.896 23.1247 33.8055 22.1871 32.6131C23.1044 32.6539 24.042 32.6845 24.9898 32.6845C25.9478 32.6845 26.8956 32.6641 27.8231 32.6131C26.9058 33.8055 25.958 34.896 25.0204 35.8744ZM17.4378 29.8716C15.9906 29.6576 14.5944 29.3926 13.2593 29.0665C13.6364 27.7517 14.1052 26.3963 14.6351 25.0408C15.053 25.8561 15.4912 26.6714 15.9702 27.4868C16.4492 28.3021 16.9384 29.097 17.4378 29.8716ZM24.9694 8.66286C25.9172 9.64126 26.8651 10.7318 27.8027 11.9242C26.8854 11.8834 25.9478 11.8528 25 11.8528C24.042 11.8528 23.0942 11.8732 22.1667 11.9242C23.084 10.7318 24.0318 9.64126 24.9694 8.66286ZM17.4276 14.6657C16.9283 15.4505 16.4289 16.2556 15.96 17.0811C15.4912 17.8965 15.053 18.7118 14.6351 19.5271C14.0848 18.1614 13.616 16.7958 13.2287 15.4709C14.5638 15.1549 15.9702 14.8797 17.4276 14.6657ZM8.20424 27.4256C4.59641 25.8867 2.26254 23.8687 2.26254 22.2687C2.26254 20.6686 4.59641 18.6404 8.20424 17.1117C9.08072 16.7346 10.0387 16.3983 11.0273 16.0823C11.6082 18.0799 12.3726 20.159 13.3204 22.289C12.3828 24.4089 11.6286 26.4778 11.0579 28.4651C10.0489 28.1492 9.09091 27.8027 8.20424 27.4256ZM13.6873 41.9894C12.3013 41.1945 11.7 38.1676 12.1688 34.2744C12.2809 33.3163 12.4643 32.3074 12.6885 31.278C14.6861 31.7672 16.8671 32.1443 19.1602 32.3889C20.5361 34.2744 21.9629 35.9865 23.3999 37.4847C20.0775 40.5728 16.9588 42.2646 14.839 42.2646C14.3803 42.2544 13.9931 42.1627 13.6873 41.9894ZM37.8618 34.2234C38.3408 38.1166 37.7497 41.1435 36.3738 41.9486C36.0681 42.1321 35.6706 42.2136 35.2018 42.2136C33.0921 42.2136 29.9633 40.532 26.6409 37.4643C28.0677 35.9662 29.4945 34.2642 30.85 32.3787C33.1533 32.1341 35.3343 31.757 37.3318 31.2576C37.5662 32.287 37.7497 33.2756 37.8618 34.2234ZM41.7856 27.4256C40.9091 27.8027 39.9511 28.139 38.9625 28.455C38.3816 26.4574 37.6172 24.3783 36.6694 22.2483C37.607 20.1284 38.3612 18.0595 38.9319 16.0722C39.9409 16.3881 40.8989 16.7346 41.7958 17.1117C45.4036 18.6506 47.7375 20.6686 47.7375 22.2687C47.7273 23.8687 45.3934 25.8969 41.7856 27.4256Z" fill="black"/>
<path d="M24.9898 26.9262C27.5621 26.9262 29.6474 24.8409 29.6474 22.2686C29.6474 19.6963 27.5621 17.6111 24.9898 17.6111C22.4175 17.6111 20.3323 19.6963 20.3323 22.2686C20.3323 24.8409 22.4175 26.9262 24.9898 26.9262Z" fill="black"/>
</svg>
