<svg width="50" height="48" viewBox="0 0 50 48" fill="none" xmlns="http://www.w3.org/2000/svg">
<path fill-rule="evenodd" clip-rule="evenodd" d="M13.7048 43.04C24.7733 44.5512 35.6451 46.0354 46.733 47.5486C42.9554 41.2596 39.2749 35.1313 35.565 28.9531L13.7048 43.04V43.04ZM49.8569 8.22862C48.8813 9.69389 47.9037 11.1579 46.9292 12.624C43.5828 17.6586 40.2368 22.6931 36.8936 27.73C36.7074 28.0105 36.466 28.233 36.7284 28.6654C39.9587 33.9997 43.1637 39.3498 46.3767 44.6951C46.8837 45.5393 47.3963 46.3804 48.052 47.1904C48.7016 34.217 49.3508 21.2431 50 8.26973L49.8569 8.22862V8.22862ZM5.7583 24.8612C5.90942 25.0042 6.28662 25.0876 6.46232 25.001C9.5609 23.4781 12.6792 21.9891 15.7101 20.3408C16.6986 19.8037 17.4587 18.8405 18.3102 18.0595C21.1299 15.4736 23.9452 12.8823 26.7592 10.2907C26.9313 10.1315 27.1352 9.97759 27.238 9.77691C28.2487 7.80146 29.2421 5.81593 30.2705 3.77318C29.0442 3.31216 27.8816 2.86122 26.7044 2.45098C26.5449 2.39536 26.2934 2.50578 26.1205 2.6021C23.3959 4.12418 20.6201 5.56527 17.9822 7.22518C16.6624 8.05574 15.5872 9.27962 14.4185 10.3455C12.535 12.0647 10.6538 13.7879 8.79764 15.5368C8.30519 16.0011 7.85626 16.5314 7.47262 17.0899C6.2032 18.9384 4.97167 20.8136 3.68372 22.7419C4.40346 23.4862 5.05791 24.1979 5.7583 24.8612V24.8612ZM17.0831 22.334C15.5417 28.8459 14.0095 35.3211 12.4262 42.0091C19.8504 37.2253 27.1034 32.5518 34.3084 27.9098C28.5747 26.054 22.8595 24.2039 17.0831 22.334ZM47.9645 8.29149C41.6916 9.33966 35.5686 10.3624 29.3666 11.3985C31.479 16.537 33.5492 21.5724 35.6782 26.7508C39.7971 20.5613 43.8347 14.4959 47.9645 8.29149V8.29149ZM17.3418 21.0022C22.9905 22.8357 28.5268 24.6331 34.2238 26.4828C32.1081 21.3286 30.065 16.3545 27.9795 11.2752C24.4272 14.5229 20.928 17.7226 17.3418 21.0022ZM5.99163 28.6585C3.98838 33.4472 2.05323 38.0732 0.0830156 42.7825C3.8695 42.6704 7.53992 42.562 11.3365 42.45C9.55405 37.8511 7.80669 33.3425 5.99163 28.6585V28.6585ZM11.4695 39.1749L11.6089 39.1443C12.9601 33.5262 14.3307 27.9469 15.7101 22.1092C12.6329 23.7086 9.69752 25.2339 6.68195 26.8016C8.22097 30.8016 9.86194 35.0213 11.4695 39.1749V39.1749ZM45.6941 7.38033C43.8971 6.9044 42.1002 6.42686 40.3025 5.95416C37.7185 5.27472 35.1325 4.60374 32.5502 3.91826C32.2274 3.83242 31.9941 3.77641 31.8043 4.16529C30.8915 6.03516 29.9505 7.89092 29.0232 9.75394C28.9946 9.81156 29.0007 9.88612 28.9785 10.0308C34.5744 9.1829 40.1328 8.34025 45.6904 7.49801L45.6941 7.38033ZM35.2692 3.12719L49.915 7.17884C49.0751 4.78549 48.2962 2.56623 47.495 0.283704L35.2905 2.98977L35.2692 3.12719V3.12719ZM12.7111 44.1188C10.8972 43.9096 9.035 44.1019 7.19536 44.1337C5.68415 44.1591 4.17295 44.2167 2.66174 44.2639C2.50619 44.2687 2.35104 44.3001 2.19588 44.4678C14.6897 45.6227 27.1832 46.7777 39.6766 47.9335L39.702 47.7666C35.6971 47.2198 31.6918 46.6729 27.6869 46.1265C22.6963 45.445 17.7142 44.6955 12.7111 44.1188V44.1188ZM0.330048 38.4717C1.93999 34.736 3.54308 30.9979 5.15946 27.265C5.32106 26.8906 5.30857 26.6363 4.99222 26.3349C4.31601 25.6913 3.68775 24.9978 2.94867 24.2289C1.94966 29.1615 0.975232 33.9719 0 38.782L0.10921 38.8332C0.183763 38.7135 0.274838 38.6003 0.330048 38.4717V38.4717ZM32.0614 2.14108C34.7763 1.44068 37.5307 0.893023 40.269 0.282092C40.4464 0.242196 40.6196 0.183763 40.7941 0.133792L40.7671 0C36.9101 0.518646 33.0535 1.0377 29.0023 1.58294C30.1069 2.06532 30.958 2.42559 32.0614 2.14108Z" fill="black"/>
</svg>
