<svg width="898" height="494" viewBox="0 0 898 494" fill="none" xmlns="http://www.w3.org/2000/svg">
<g opacity="0.75">
<path d="M208 173.389L259.5 249.154V493.5H156.5V249.154L208 173.389Z" stroke="white"/>
<path d="M0.701052 338.5L31.3566 249.5H156.5V338.5H0.701052Z" stroke="white"/>
<rect x="22.5" y="338.5" width="134" height="155" stroke="white"/>
<rect x="43.5" y="359.5" width="30" height="30" stroke="white"/>
<rect x="43.5" y="359.5" width="30" height="30" stroke="white"/>
<rect x="43.5" y="359.5" width="30" height="30" stroke="white"/>
<rect x="103.5" y="359.5" width="30" height="30" stroke="white"/>
<rect x="103.5" y="359.5" width="30" height="30" stroke="white"/>
<rect x="103.5" y="359.5" width="30" height="30" stroke="white"/>
<rect x="43.5" y="426.5" width="30" height="30" stroke="white"/>
<rect x="43.5" y="426.5" width="30" height="30" stroke="white"/>
<rect x="43.5" y="426.5" width="30" height="30" stroke="white"/>
<rect x="103.5" y="426.5" width="30" height="30" stroke="white"/>
<rect x="103.5" y="426.5" width="30" height="30" stroke="white"/>
<rect x="103.5" y="426.5" width="30" height="30" stroke="white"/>
<path d="M415.299 338.5L384.643 249.5H259.5V338.5H415.299Z" stroke="white"/>
<rect x="-0.5" y="0.5" width="134" height="155" transform="matrix(-1 0 0 1 393 338)" stroke="white"/>
<rect x="-0.5" y="0.5" width="30" height="30" transform="matrix(-1 0 0 1 372 359)" stroke="white"/>
<rect x="-0.5" y="0.5" width="30" height="30" transform="matrix(-1 0 0 1 372 359)" stroke="white"/>
<rect x="-0.5" y="0.5" width="30" height="30" transform="matrix(-1 0 0 1 372 359)" stroke="white"/>
<rect x="-0.5" y="0.5" width="30" height="30" transform="matrix(-1 0 0 1 312 359)" stroke="white"/>
<rect x="-0.5" y="0.5" width="30" height="30" transform="matrix(-1 0 0 1 312 359)" stroke="white"/>
<rect x="-0.5" y="0.5" width="30" height="30" transform="matrix(-1 0 0 1 312 359)" stroke="white"/>
<rect x="-0.5" y="0.5" width="30" height="30" transform="matrix(-1 0 0 1 372 426)" stroke="white"/>
<rect x="-0.5" y="0.5" width="30" height="30" transform="matrix(-1 0 0 1 372 426)" stroke="white"/>
<rect x="-0.5" y="0.5" width="30" height="30" transform="matrix(-1 0 0 1 372 426)" stroke="white"/>
<rect x="-0.5" y="0.5" width="30" height="30" transform="matrix(-1 0 0 1 312 426)" stroke="white"/>
<rect x="-0.5" y="0.5" width="30" height="30" transform="matrix(-1 0 0 1 312 426)" stroke="white"/>
<rect x="-0.5" y="0.5" width="30" height="30" transform="matrix(-1 0 0 1 312 426)" stroke="white"/>
<rect x="208.5" y="105.5" width="66" height="37" stroke="white"/>
<line x1="208.5" y1="142" x2="208.5" y2="174" stroke="white"/>
<rect x="178.5" y="413.5" width="59" height="80" stroke="white"/>
<circle cx="208.5" cy="277.5" r="32" stroke="white"/>
<line x1="207.5" y1="278" x2="207.5" y2="255" stroke="white"/>
<line x1="207.515" y1="278.278" x2="216.707" y2="269.086" stroke="white"/>
<rect x="393.5" y="384.5" width="457" height="55" stroke="white"/>
<rect x="344.199" y="167.683" width="507.246" height="54.9235" stroke="white"/>
<rect x="393.5" y="439.5" width="503" height="54" stroke="white"/>
<path d="M373 248V223H418V383.5" stroke="white"/>
<rect x="474.139" y="222.96" width="43.4098" height="161.48" stroke="white"/>
<rect x="574.472" y="222.96" width="43.4098" height="161.48" stroke="white"/>
<rect x="674.806" y="222.96" width="43.4098" height="161.48" stroke="white"/>
<rect x="776.784" y="222.96" width="43.4098" height="161.48" stroke="white"/>
<path d="M299.563 167.328L596.179 1.45177L896.063 167.328H299.563Z" stroke="white"/>
<path d="M426.219 167.683L597 72.534L767.78 167.683H426.219Z" stroke="white"/>
</g>
</svg>
