<svg width="48" height="50" viewBox="0 0 48 50" fill="none" xmlns="http://www.w3.org/2000/svg">
<path d="M17.3272 34.1411C17.1061 33.8993 16.8 33.7524 16.4731 33.7309C16.1461 33.7094 15.8235 33.815 15.5726 34.0257C15.3216 34.2365 15.1619 34.536 15.1266 34.8618C15.0913 35.1876 15.1832 35.5144 15.3831 35.774C16.2353 36.7945 17.9956 39.4019 15.9852 41.8971C15.0271 43.025 13.6671 43.7351 12.194 43.8769C9.10694 44.2136 5.12693 45.0198 2.78995 46.9384C1.94802 43.0247 3.17774 39.7948 6.53524 37.1108C6.7078 36.9716 6.84091 36.7896 6.92134 36.5829C7.00176 36.3763 7.02671 36.1522 6.99369 35.9329C6.96067 35.7136 6.87083 35.5068 6.73312 35.333C6.5954 35.1592 6.4146 35.0245 6.20868 34.9422C5.16792 34.5655 4.06446 34.3923 2.95833 34.432C3.74413 32.9369 5.08611 31.1204 6.93324 30.6101C8.31604 30.2428 9.89785 30.702 11.6327 31.9674C11.9043 32.1298 12.2268 32.185 12.537 32.1222C12.8471 32.0593 13.1227 31.883 13.3097 31.6277C13.4967 31.3724 13.5817 31.0565 13.5481 30.7418C13.5144 30.4272 13.3645 30.1364 13.1278 29.9264C10.7449 28.1813 8.44361 27.5894 6.29542 28.1609C2.99915 29.0283 1.04486 32.4011 0.172319 34.335C0.0257375 34.6596 -0.0288786 35.0182 0.014431 35.3716C0.0577407 35.7251 0.197312 36.0599 0.417913 36.3395C0.638514 36.6191 0.931669 36.8327 1.26538 36.957C1.5991 37.0813 1.96055 37.1116 2.3103 37.0445C2.53445 37.0022 2.76117 36.9749 2.98895 36.9629C0.723398 39.5397 -0.940045 43.3411 0.600936 48.5916C0.715486 48.9973 0.959424 49.3544 1.29563 49.6086C1.63183 49.8628 2.04188 50.0003 2.46338 50H2.52461C2.79283 49.9921 3.05649 49.9286 3.2989 49.8135C3.54132 49.6984 3.75721 49.5343 3.93292 49.3315C5.16775 47.9283 8.28033 46.8619 12.4747 46.4026C14.6166 46.1946 16.5898 45.1494 17.965 43.4942C18.6406 42.7018 19.1093 41.7544 19.3292 40.7367C19.5492 39.7189 19.5135 38.6625 19.2254 37.6619C18.8475 36.3678 18.2007 35.168 17.3272 34.1411V34.1411Z" fill="black"/>
<path d="M31.1144 10.3172C29.7581 10.3172 28.4438 10.7875 27.3954 11.6479C26.347 12.5083 25.6293 13.7055 25.3646 15.0357C25.0999 16.3658 25.3045 17.7466 25.9436 18.9429C26.5827 20.1391 27.6168 21.0767 28.8697 21.596C30.1226 22.1154 31.5167 22.1843 32.8147 21.791C34.1127 21.3978 35.2342 20.5667 35.9882 19.4393C36.7421 18.3119 37.0819 16.958 36.9496 15.6082C36.8174 14.2585 36.2212 12.9963 35.2628 12.0367C34.7194 11.49 34.0729 11.0564 33.3609 10.7613C32.6488 10.4661 31.8852 10.3152 31.1144 10.3172ZM33.4667 18.5323C32.9224 19.0765 32.2062 19.4152 31.4402 19.4906C30.6742 19.566 29.9058 19.3734 29.2658 18.9457C28.6259 18.5181 28.154 17.8817 27.9306 17.1452C27.7073 16.4086 27.7462 15.6174 28.0408 14.9063C28.3354 14.1952 28.8675 13.6083 29.5463 13.2455C30.2252 12.8827 31.0088 12.7666 31.7637 12.9168C32.5186 13.067 33.1981 13.4744 33.6863 14.0694C34.1745 14.6644 34.4413 15.4103 34.4412 16.18C34.4416 16.6177 34.3557 17.0512 34.1885 17.4557C34.0213 17.8602 33.776 18.2278 33.4667 18.5374V18.5323Z" fill="black"/>
<path d="M46.0395 0.0609604C39.118 -0.34647 32.23 1.29523 26.2364 4.78085C23.8486 6.15464 21.654 7.83964 19.7102 9.79159L17.9191 9.68954C16.8847 9.63729 15.8508 9.80236 14.8841 10.1741C13.9173 10.5459 13.0392 11.1161 12.3063 11.8479L8.58651 15.5677C8.39362 15.7599 8.25117 15.9967 8.17183 16.2572C8.0925 16.5177 8.07872 16.7937 8.13173 17.0608C8.18474 17.3279 8.3029 17.5777 8.47571 17.7881C8.64851 17.9986 8.87062 18.1631 9.12229 18.267L13.9493 20.2723C13.446 21.6496 13.0301 23.0573 12.7043 24.487L12.4798 25.5076C12.4344 25.7154 12.4419 25.9313 12.5017 26.1354C12.5614 26.3396 12.6714 26.5255 12.8217 26.676L20.5827 34.4728C20.7333 34.623 20.9192 34.7331 21.1233 34.7928C21.3275 34.8525 21.5434 34.8601 21.7512 34.8147L22.7717 34.5902C24.206 34.2733 25.6189 33.8659 27.0017 33.3706L28.9969 38.1773C29.1035 38.427 29.2699 38.6467 29.4816 38.8168C29.6932 38.987 29.9435 39.1023 30.2103 39.1528C30.4771 39.2032 30.7523 39.1872 31.0114 39.106C31.2706 39.0249 31.5057 38.8811 31.6961 38.6875L35.4159 34.9677C36.1478 34.2348 36.718 33.3567 37.0897 32.39C37.4615 31.4232 37.6266 30.3893 37.5743 29.3549L37.4825 27.5639C39.4434 25.6298 41.1387 23.4438 42.5238 21.0632C46.0074 15.0689 47.6473 8.18101 47.2386 1.26007C47.2215 0.94761 47.0896 0.652463 46.8684 0.43119C46.6471 0.209917 46.3519 0.0780857 46.0395 0.0609604V0.0609604ZM40.3807 19.6906C39.0414 22.0619 37.3561 24.2202 35.3802 26.0944L35.3292 26.1403C35.1104 26.3477 34.9729 26.6263 34.9414 26.9261C34.9348 27.0008 34.9348 27.0759 34.9414 27.1506L35.0638 29.5131C35.0982 30.193 34.9897 30.8725 34.7454 31.5079C34.5011 32.1434 34.1263 32.7205 33.6453 33.2023L30.8593 35.9883L28.905 31.2735C28.7782 30.9656 28.5352 30.72 28.2286 30.5901C27.9219 30.4602 27.5765 30.4564 27.2671 30.5795C25.64 31.2216 23.9645 31.7334 22.2563 32.1103L21.9094 32.1868L15.1127 25.3902L15.1893 25.0432C15.5664 23.3368 16.0782 21.663 16.72 20.0376C16.8418 19.7281 16.8373 19.3832 16.7075 19.0769C16.5778 18.7707 16.3331 18.5275 16.0261 18.3997L11.3113 16.4454L14.0973 13.6594C14.5796 13.1777 15.1576 12.8025 15.794 12.5582C16.4303 12.3139 17.1108 12.2057 17.7916 12.2408L20.1745 12.3633C20.3671 12.3716 20.5591 12.3359 20.7359 12.259C20.9127 12.1821 21.0697 12.066 21.195 11.9194C23.0418 9.96489 25.1711 8.29824 27.512 6.97496C32.7367 3.93136 38.7038 2.39807 44.7485 2.54592C44.8979 8.55385 43.3865 14.4865 40.3807 19.6906V19.6906Z" fill="black"/>
</svg>
