<svg width="1728" height="1117" viewBox="0 0 1728 1117" fill="none" xmlns="http://www.w3.org/2000/svg">
<rect width="1728" height="1117" fill="#F5F8F9"/>
<rect x="0.5" y="0.5" width="1727" height="1116" stroke="black" stroke-opacity="0.25"/>
<path d="M1108.64 436.088C1108.64 363.241 1049.39 304 976.571 304C903.724 304 844.482 363.247 844.482 436.088C844.482 440.083 844.737 444.014 845.077 447.925H671.721C642.651 447.925 619 471.576 619 500.646V761.406C619 790.412 642.651 814 671.721 814H932.351C961.399 814 985.051 790.413 985.051 761.406V567.732C1053.92 563.312 1108.64 506.041 1108.64 436.088ZM932.349 796.999H671.719C652.02 796.999 635.998 781.019 635.998 761.405V500.645C635.998 480.946 652.02 464.924 671.719 464.924H847.752C853.638 491.21 867.366 514.479 886.363 532.287H700.745C696.049 532.287 692.245 536.091 692.245 540.787C692.245 545.483 696.049 549.287 700.745 549.287H895.415C898.411 549.287 900.919 547.651 902.428 545.334C921.362 558.212 943.844 566.18 968.045 567.732V761.406C968.045 781.02 952.026 796.999 932.349 796.999ZM976.783 551.16C976.698 551.16 976.634 551.118 976.549 551.118C976.464 551.118 976.4 551.16 976.336 551.16C912.988 551.033 861.482 499.459 861.482 436.094C861.482 372.62 913.119 321.005 976.57 321.005C1040.02 321.005 1091.64 372.622 1091.64 436.094C1091.64 499.459 1040.13 551.035 976.783 551.16Z" fill="#8D8D8E"/>
<path d="M976.572 338.34C966.223 338.34 956.809 343.057 950.753 351.302C944.994 359.101 943.231 368.812 945.887 378.056L956.172 453.133C957.51 462.972 965.925 469.857 976.614 469.857H976.635C987.324 469.857 995.739 462.993 997.12 453.155L1007.94 375.167C1009.57 366.135 1007.13 356.892 1001.22 349.794C995.144 342.506 986.155 338.34 976.572 338.34ZM991.149 372.467L980.269 450.814C979.993 452.811 976.997 452.854 976.635 452.854C976.295 452.854 973.278 452.811 973.002 450.814L962.632 375.1C962.568 374.633 962.462 374.186 962.335 373.74C961.017 369.49 961.782 364.985 964.438 361.373C967.265 357.548 971.684 355.338 976.572 355.338C981.098 355.338 985.327 357.293 988.153 360.693C990.873 363.944 991.957 368.005 991.149 372.467Z" fill="#8D8D8E"/>
<path d="M976.574 480.289C962.294 480.289 950.691 491.913 950.691 506.171C950.691 520.451 962.294 532.075 976.574 532.075C990.833 532.075 1002.46 520.451 1002.46 506.171C1002.46 491.913 990.833 480.289 976.574 480.289ZM976.574 515.075C971.665 515.075 967.691 511.08 967.691 506.171C967.691 501.284 971.665 497.289 976.574 497.289C981.461 497.289 985.456 501.284 985.456 506.171C985.456 511.08 981.461 515.075 976.574 515.075Z" fill="#8D8D8E"/>
<path d="M895.418 620.137H700.748C696.052 620.137 692.248 623.94 692.248 628.637C692.248 633.333 696.052 637.137 700.748 637.137H895.418C900.114 637.137 903.918 633.333 903.918 628.637C903.918 623.94 900.114 620.137 895.418 620.137Z" fill="#8D8D8E"/>
<path d="M895.418 707.984H700.748C696.052 707.984 692.248 711.788 692.248 716.484C692.248 721.181 696.052 724.984 700.748 724.984H895.418C900.114 724.984 903.918 721.181 903.918 716.484C903.918 711.788 900.114 707.984 895.418 707.984Z" fill="#8D8D8E"/>
</svg>
