<svg width="1728" height="1117" viewBox="0 0 1728 1117" fill="none" xmlns="http://www.w3.org/2000/svg">
<rect width="1728" height="1117" fill="#F5F8F9"/>
<rect x="0.5" y="0.5" width="1727" height="1116" stroke="black" stroke-opacity="0.25"/>
<path d="M672.366 644.071C668.61 644.071 665.565 647.116 665.565 650.872V754.884C665.565 758.64 668.61 761.685 672.366 761.685H728.625C732.381 761.685 735.426 758.64 735.426 754.884V650.872C735.426 647.116 732.381 644.071 728.625 644.071H672.366ZM721.824 748.083H679.167V657.673H721.824V748.083ZM783.46 592.12C779.703 592.12 776.659 595.164 776.659 598.921V754.884C776.659 758.64 779.703 761.685 783.46 761.685H839.718C843.475 761.685 846.519 758.64 846.519 754.884V598.921C846.519 595.164 843.475 592.12 839.718 592.12H783.46ZM832.917 748.083H790.261V605.722H832.917V748.083ZM950.812 540.168H894.553C890.797 540.168 887.752 543.213 887.752 546.969V754.884C887.752 758.64 890.797 761.685 894.553 761.685H950.812C954.568 761.685 957.613 758.64 957.613 754.884V546.969C957.613 543.213 954.568 540.168 950.812 540.168ZM944.01 748.083H901.354V553.771H944.01V748.083ZM1061.9 761.685C1065.66 761.685 1068.71 758.64 1068.71 754.884V495.023C1068.71 491.267 1065.66 488.222 1061.9 488.222H1005.65C1001.89 488.222 998.845 491.267 998.845 495.023V754.889C998.845 758.645 1001.89 761.69 1005.65 761.69L1061.9 761.685ZM1012.45 501.824H1055.1V748.088H1012.45V501.824ZM1103.99 792.194C1103.99 795.95 1100.95 798.995 1097.19 798.995H630.801C627.045 798.995 624 795.95 624 792.194V325.801C624 322.045 627.045 319 630.801 319C634.558 319 637.602 322.045 637.602 325.801V785.393H1097.19C1100.95 785.393 1103.99 788.437 1103.99 792.194ZM666.729 622.956C664.625 619.844 665.446 615.614 668.558 613.51L947.429 425.054L935.297 422.56C931.619 421.801 929.25 418.206 930.003 414.527C930.756 410.849 934.362 408.474 938.035 409.233L965.993 414.979C967.76 415.343 969.308 416.392 970.306 417.899C971.298 419.406 971.651 421.245 971.288 423.012L965.541 450.969C964.783 454.648 961.187 457.017 957.509 456.264C953.83 455.505 951.461 451.91 952.214 448.231L954.599 436.624L676.175 624.785C675.006 625.574 673.681 625.954 672.371 625.954C670.189 625.949 668.044 624.899 666.729 622.956ZM1097.19 331.657H1078.15V325.801C1078.15 322.045 1075.1 319 1071.35 319H996.201C992.444 319 989.4 322.045 989.4 325.801V331.657H970.352C966.596 331.657 963.551 334.701 963.551 338.458V352.185C963.551 372.359 978.463 389.63 998.071 392.918C1002.39 398.769 1008.11 403.523 1014.74 406.682V426.015C1000.21 427.298 988.766 439.534 988.766 454.393C988.766 458.15 991.81 461.195 995.567 461.195H1071.98C1075.74 461.195 1078.79 458.15 1078.79 454.393C1078.79 439.529 1067.34 427.293 1052.81 426.015V406.682C1059.43 403.523 1065.16 398.769 1069.48 392.918C1089.09 389.63 1104 372.354 1104 352.185V338.458C1103.99 334.701 1100.95 331.657 1097.19 331.657ZM977.153 352.19V345.259H989.4V366.608C989.4 369.741 989.732 372.791 990.35 375.742C982.427 370.816 977.153 362.015 977.153 352.19ZM1063.54 447.603H1004.01C1006.48 442.802 1011.5 439.508 1017.26 439.508H1050.28C1056.05 439.508 1061.06 442.797 1063.54 447.603ZM1039.21 425.906H1028.35V410.646C1030.13 410.864 1031.94 410.989 1033.78 410.989C1035.61 410.989 1037.42 410.864 1039.21 410.646V425.906ZM1064.54 366.613C1064.54 383.582 1050.74 397.387 1033.77 397.387C1016.8 397.387 1003 383.582 1003 366.613V332.602H1064.54L1064.54 366.613ZM1090.39 352.19C1090.39 362.015 1085.12 370.816 1077.2 375.747C1077.82 372.796 1078.15 369.746 1078.15 366.613V345.259H1090.4L1090.39 352.19Z" fill="#8D8D8E"/>
</svg>
