<svg width="50" height="50" viewBox="0 0 50 50" fill="none" xmlns="http://www.w3.org/2000/svg">
<path d="M41.0653 0L40.7073 1.86617C40.1537 5.40282 40.3541 6.41466 41.8719 7.72718L43.3372 8.93948L41.8194 15.7073C40.9126 19.7451 39.8005 23.1291 39.0941 24.2411C38.488 25.2005 37.7816 26.6132 37.6289 27.3721C37.3759 28.2789 36.5168 29.1905 35.2043 29.9971C34.0445 30.6558 31.7679 32.4217 30.1546 33.8393C28.866 34.999 27.9782 35.7102 27.4962 36.0157L25.9212 37.2614C25.4152 38.0727 25.1289 38.7266 25.0191 39.223C24.9093 39.7337 24.9714 40.0725 25.1336 40.3207C25.2911 40.5594 25.5632 40.7264 25.9355 40.8314C26.3762 40.9347 26.8298 40.9717 27.2814 40.9412C28.3031 40.8714 29.3144 40.6922 30.2978 40.4066C30.6319 40.316 30.8944 40.23 31.1235 40.1537C31.4767 39.7194 32.2929 38.8984 33.739 37.4714C37.5764 33.6865 39.0416 31.6151 37.5286 32.1735C36.9702 32.374 37.2232 31.8681 38.1825 30.8562C40.2062 28.8851 41.366 25.9068 43.7906 16.5664C45.7092 9.19244 45.7092 9.08744 47.122 9.08744C47.7854 9.08744 49.6611 9.20198 49.6611 9.20198V0H45.3561H41.0653ZM24.0645 15.7742C22.6709 15.7646 19.6735 17.8885 10.7006 25.2148C10.3141 26.1359 10.2806 26.7707 10.4572 27.1812C10.5718 27.4628 10.7818 27.6585 11.0729 27.8016C11.3593 27.9448 11.7316 28.0307 12.142 28.0641C12.9582 28.1357 13.9223 28.0069 14.7003 27.8541L15.2253 27.7348C15.405 27.4938 15.6409 27.3005 15.9126 27.1716C16.4662 26.8662 18.7906 24.747 21.1149 22.4752C25.2052 18.3324 26.1646 16.4614 24.4989 15.8553C24.3622 15.8009 24.2164 15.7734 24.0693 15.7742H24.0645ZM34.5456 18.6522C33.319 18.6856 31.1092 20.1079 27.3244 23.1291C25.4248 24.6707 24.222 25.5011 23.5777 25.673L21.0767 27.6489C20.1365 29.3671 19.9981 30.4315 20.2463 31.0185C20.3084 31.1633 20.3986 31.2944 20.5116 31.4042C20.6247 31.5139 20.7583 31.6002 20.9049 31.6581C21.2696 31.8021 21.6584 31.875 22.0504 31.8728C22.9872 31.8629 23.9184 31.7264 24.8186 31.4672C25.2878 31.3413 25.7512 31.1947 26.2075 31.0281L26.3459 30.9708L26.5989 30.8371C27.0762 30.2215 28.1739 29.0617 29.5485 27.7253C33.8917 23.5347 36.1111 20.5565 35.6577 19.4444C35.4525 18.9051 35.0993 18.6331 34.5456 18.6522ZM22.9763 23.8068C22.6231 23.845 21.8309 24.4559 20.4038 25.7064C18.3419 27.5296 16.0939 28.5796 15.316 28.1119C15.1352 28.1527 14.9538 28.1909 14.7719 28.2264C13.9796 28.3839 12.9916 28.5128 12.1086 28.4412C11.6926 28.416 11.2848 28.3141 10.9059 28.1405C10.5485 27.9771 10.2632 27.6885 10.104 27.3291C9.92746 26.8996 9.92745 26.365 10.1279 25.6825L7.02558 28.2312L0.00477383 34.0397V43.4565L23.0097 25.3341C23.0053 25.1357 23.031 24.9377 23.0861 24.747C23.2627 24.1075 23.2531 23.7829 22.9763 23.8116V23.8068ZM32.8751 26.8566C32.5267 26.8566 31.9444 27.3482 31.0137 28.3362C29.7489 29.6869 27.7587 30.9947 26.7039 31.2619L26.5416 31.3478C26.3684 31.4194 26.1934 31.4862 26.0166 31.5483C25.7302 31.6438 25.358 31.7583 24.9284 31.8728C24.0693 32.1067 23.0002 32.3215 22.0456 32.2976C21.5956 32.2971 21.1499 32.2095 20.7331 32.0399C20.3402 31.878 20.0254 31.57 19.8549 31.1808C19.5781 30.5174 19.6879 29.5867 20.294 28.2646L0 44.2488V50H8.91562L27.8255 35.147C28.3171 34.6029 29.0569 33.8583 30.0544 32.9276C32.7272 30.4506 33.3333 29.5962 33.3333 28.3314C33.3333 27.3482 33.2236 26.8518 32.8751 26.8518V26.8566ZM37.3759 36.1636L35.7579 37.7768C34.8511 38.6359 33.2331 39.6955 32.1258 40.1489L31.9063 40.2444L31.8919 40.2682L31.8442 40.316C31.8013 40.3494 31.7822 40.3541 31.7488 40.3685C31.3067 40.5358 30.8577 40.6839 30.4028 40.8123C29.3915 41.1067 28.3514 41.2907 27.3005 41.3612C26.8036 41.3931 26.3048 41.3496 25.8209 41.2323C25.401 41.1399 25.0303 40.895 24.7804 40.5451C24.5514 40.1919 24.4845 39.7194 24.6134 39.1371C24.7159 38.7225 24.8681 38.3219 25.0668 37.9439L9.80813 50H30.1021L32.5267 47.2222C35.8582 43.3372 37.3759 40.5594 37.3759 38.1825V36.1636Z" fill="black"/>
</svg>
