<svg width="41" height="50" viewBox="0 0 41 50" fill="none" xmlns="http://www.w3.org/2000/svg">
<path d="M20.181 50C14.502 50 8.99255 48.3675 4.24805 45.2793L5.14255 43.905C9.6203 46.8195 14.82 48.3603 20.181 48.3603C25.5408 48.3603 30.7408 46.8195 35.2185 43.905L36.113 45.2793C31.3685 48.3675 25.859 50 20.181 50Z" fill="black"/>
<path d="M1.60225 41.719L0 41.371C1.4095 34.8857 5.90125 29.4405 12.0157 26.8052L12.5268 26.585L20.1812 34.239L27.8355 26.585L28.3458 26.8052C34.4608 29.4405 38.9528 34.8855 40.3615 41.371L38.7598 41.719C37.5018 35.9297 33.5733 31.0405 28.202 28.5375L20.1812 36.5577L12.16 28.5375C6.7885 31.0405 2.86025 35.9297 1.60225 41.719Z" fill="black"/>
<path d="M21.0007 35.3984H19.3612V37.7809H21.0007V35.3984Z" fill="black"/>
<path d="M28.8407 35.0342H27.2009V37.4167H28.8407V35.0342Z" fill="black"/>
<path d="M21.0007 40.6035H19.3612V49.1803H21.0007V40.6035Z" fill="black"/>
<path d="M32.6665 42.9734H23.3752V36.5972H32.6665V42.9734ZM25.015 41.3337H31.027V38.2367H25.015V41.3337V41.3337Z" fill="black"/>
<path d="M20.1811 25.9138C14.6401 25.9138 10.1326 21.405 10.1326 15.8633V11.249H11.7723V15.8635C11.7723 20.5013 15.5448 24.2745 20.1811 24.2745C24.8173 24.2745 28.5891 20.5013 28.5891 15.8635V11.249H30.2286V15.8635C30.2283 21.4053 25.7211 25.9138 20.1811 25.9138Z" fill="black"/>
<path d="M30.2283 12.0688H10.1326V2.32675L10.6076 2.1065C13.6211 0.70875 16.8421 0 20.1811 0C23.5193 0 26.7401 0.70875 29.7538 2.1065L30.2283 2.32675V12.0688ZM11.7723 10.429H28.5891V3.3805C25.9301 2.22475 23.1043 1.6395 20.1811 1.6395C17.2566 1.6395 14.4306 2.22475 11.7723 3.3805V10.429V10.429Z" fill="black"/>
<path d="M20.9992 3.90112H19.3597V9.36862H20.9992V3.90112Z" fill="black"/>
<path d="M22.9135 5.81543H17.4482V7.45518H22.9135V5.81543Z" fill="black"/>
</svg>
