<svg width="50" height="47" viewBox="0 0 50 47" fill="none" xmlns="http://www.w3.org/2000/svg">
<circle cx="25" cy="12.5" r="11.5" stroke="black" stroke-width="2"/>
<circle cx="12.5" cy="33.75" r="11.5" stroke="black" stroke-width="2"/>
<circle cx="37.5" cy="33.75" r="11.5" stroke="black" stroke-width="2"/>
<path d="M12.7999 35.48C15.1199 35.48 17.0399 33.56 17.0399 31.24C17.0399 28.92 15.1199 27 12.7999 27C10.4799 27 8.55994 28.92 8.55994 31.24C8.55994 33.56 10.4799 35.48 12.7999 35.48ZM12.7999 27.8C14.7199 27.8 16.2399 29.32 16.2399 31.24C16.2399 33.16 14.7199 34.68 12.7999 34.68C10.8799 34.68 9.35993 33.16 9.35993 31.24C9.35993 29.32 10.8799 27.8 12.7999 27.8Z" fill="black"/>
<path d="M12.5 46L16 45.5C16.24 45.5 17.2 45.24 17.2 45L19.6 44.0402C19.6 40.2802 16.56 37.2402 12.8 37.2402C9.03999 37.2402 6 40.2802 6 44.0402L9 45.5C9 45.74 12.26 46 12.5 46ZM6.8 44.0402C6.8 40.7602 9.51999 38.0402 12.8 38.0402C16.08 38.0402 18.8 40.7602 18.8 44.0402L14.8 45.2002L11 45.5L6.8 44.0402Z" fill="black"/>
<path d="M37.7999 35.48C40.1199 35.48 42.0399 33.56 42.0399 31.24C42.0399 28.92 40.1199 27 37.7999 27C35.4799 27 33.5599 28.92 33.5599 31.24C33.5599 33.56 35.4799 35.48 37.7999 35.48ZM37.7999 27.8C39.7199 27.8 41.2399 29.32 41.2399 31.24C41.2399 33.16 39.7199 34.68 37.7999 34.68C35.8799 34.68 34.3599 33.16 34.3599 31.24C34.3599 29.32 35.8799 27.8 37.7999 27.8Z" fill="black"/>
<path d="M37.5 46L41 45.5C41.24 45.5 42.2 45.24 42.2 45L44.6 44.0402C44.6 40.2802 41.56 37.2402 37.8 37.2402C34.04 37.2402 31 40.2802 31 44.0402L34 45.5C34 45.74 37.26 46 37.5 46ZM31.8 44.0402C31.8 40.7602 34.52 38.0402 37.8 38.0402C41.08 38.0402 43.8 40.7602 43.8 44.0402L39.8 45.2002L36 45.5L31.8 44.0402Z" fill="black"/>
<path d="M24.7999 14.48C27.1199 14.48 29.0399 12.56 29.0399 10.24C29.0399 7.91999 27.1199 6 24.7999 6C22.4799 6 20.5599 7.91999 20.5599 10.24C20.5599 12.56 22.4799 14.48 24.7999 14.48ZM24.7999 6.8C26.7199 6.8 28.2399 8.31999 28.2399 10.24C28.2399 12.16 26.7199 13.68 24.7999 13.68C22.8799 13.68 21.3599 12.16 21.3599 10.24C21.3599 8.31999 22.8799 6.8 24.7999 6.8Z" fill="black"/>
<path d="M24.5 25L28 24.5C28.24 24.5 29.2 24.24 29.2 24L31.6 23.0402C31.6 19.2802 28.56 16.2402 24.8 16.2402C21.04 16.2402 18 19.2802 18 23.0402L21 24.5C21 24.74 24.26 25 24.5 25ZM18.8 23.0402C18.8 19.7602 21.52 17.0402 24.8 17.0402C28.08 17.0402 30.8 19.7602 30.8 23.0402L26.8 24.2002L23 24.5L18.8 23.0402Z" fill="black"/>
</svg>
