<svg width="68" height="50" viewBox="0 0 68 50" fill="none" xmlns="http://www.w3.org/2000/svg">
<g opacity="0.5">
<path d="M50.8499 12.3261C50.182 12.1181 49.4925 12.0925 48.8222 12.2062L49.511 9.9952C50.2286 7.69093 48.9383 5.23242 46.6344 4.51523C45.885 4.28137 45.1076 4.27075 44.3626 4.44182C44.3889 2.55356 43.183 0.789392 41.2906 0.200309C40.1741 -0.147328 38.9895 -0.0400616 37.9544 0.503316C37.3016 0.84601 36.7744 1.34872 36.3744 1.94407C35.8603 1.38738 35.22 0.959148 34.4769 0.727244C32.1719 0.0116141 29.7145 1.30116 28.9969 3.60464L25.3662 15.26C24.5851 14.1065 23.4267 13.1976 21.9964 12.752C20.7417 12.3613 19.4017 13.0644 19.0106 14.3195L14.1656 29.8723C13.4533 32.1589 10.6871 43.8076 26.1906 48.6418C26.1937 48.6427 26.1963 48.6445 26.1994 48.6455C29.2306 49.5889 31.8097 50.0008 34.0153 50C43.6971 50 46.1677 42.0717 47.9114 36.4743L53.7265 17.8061C54.4441 15.5018 53.1537 13.0433 50.8499 12.3261ZM51.43 17.0904L45.615 35.7587C42.974 44.2366 39.9173 50.4001 26.915 46.3483C26.9131 46.3477 26.9111 46.3477 26.9092 46.3471C13.9221 42.2982 15.6291 33.2613 16.4621 30.588L21.2808 15.0477C23.3667 15.6981 24.5354 17.9228 23.887 20.0088L22.0246 25.9873C21.8379 26.5862 22.147 27.2156 22.7155 27.4505C22.7468 27.4637 22.7755 27.4807 22.8084 27.4913C23.0327 27.5641 28.293 29.3626 27.2877 36.717C27.1981 37.3747 27.6585 37.9815 28.3165 38.0715C28.9703 38.1569 29.5806 37.7012 29.6711 37.0427C30.6474 29.8998 26.6541 26.7915 24.6347 25.696L25.0285 24.4318L26.183 20.7265C26.1833 20.7252 26.1836 20.7238 26.184 20.7225L31.2934 4.32027C31.6163 3.28284 32.7234 2.7011 33.7617 3.02368C34.2643 3.18106 34.6762 3.52399 34.9208 3.98986C35.1655 4.45651 35.2141 4.9897 35.0575 5.49237L30.8052 19.1441C30.7558 19.3027 30.7408 19.4637 30.7562 19.6192C30.8021 20.0857 31.1202 20.502 31.5956 20.6506C31.6624 20.6713 31.7297 20.6826 31.7968 20.6914C32.367 20.7682 32.9247 20.4272 33.1016 19.8598L38.1067 3.79255C38.2633 3.2891 38.6063 2.87805 39.0725 2.63298C39.538 2.3887 40.0727 2.33859 40.575 2.49596C41.6128 2.81933 42.1942 3.92722 41.8708 4.96465L36.8657 21.0319C36.668 21.6661 37.0223 22.3402 37.6561 22.5375C37.6613 22.5391 37.6664 22.5383 37.6715 22.5399C37.6786 22.5422 37.6846 22.5462 37.6918 22.5485C38.3267 22.7489 39.0001 22.3927 39.1978 21.7585L43.4505 8.10747C43.607 7.60402 43.95 7.19297 44.4162 6.9479C44.8821 6.70283 45.4169 6.6535 45.9188 6.81088C46.9566 7.13425 47.5379 8.24214 47.2146 9.27957L41.8884 26.3772C41.6907 27.0114 42.045 27.6855 42.6788 27.8828C42.7982 27.9204 42.9184 27.9376 43.0371 27.9376C43.5495 27.9376 44.0244 27.608 44.1849 27.0928L44.9415 24.6639C44.9419 24.6629 44.9424 24.662 44.9428 24.6609L47.6659 15.9183C47.8225 15.4157 48.1655 15.0038 48.6317 14.7588C49.098 14.5137 49.632 14.4644 50.1342 14.6217C51.1721 14.9451 51.7534 16.053 51.43 17.0904Z" fill="black"/>
<path d="M17.3453 5.26717C17.8957 4.89917 18.0445 4.15536 17.6781 3.60258C17.3116 3.05059 16.5643 2.90026 16.0111 3.26591C15.8013 3.40528 10.8389 6.78377 7.983 15.9523C5.12674 25.1216 7.29282 30.7198 7.38638 30.9539C7.57468 31.4237 8.02606 31.7095 8.50328 31.7095C8.65204 31.7095 8.80315 31.6821 8.94996 31.6233C9.56655 31.3767 9.86603 30.6767 9.6194 30.0597C9.59982 30.0104 7.6749 25.0292 10.2794 16.6679C12.8511 8.41077 17.2701 5.31884 17.3453 5.26717Z" fill="black"/>
<path d="M8.36074 5.69173C8.77884 5.17497 8.69937 4.41784 8.18301 3.99974C7.66664 3.58164 6.90912 3.6615 6.4918 4.17747C4.38054 6.78475 2.64392 10.1546 1.46987 13.923C0.334961 17.5662 -0.146563 21.0699 0.0386085 24.3373C0.0746249 24.9769 0.605084 25.4718 1.23811 25.4718C1.26121 25.4718 1.28431 25.471 1.3074 25.4702C1.97057 25.4326 2.47754 24.8642 2.43996 24.201C2.27123 21.2226 2.71752 18.0054 3.7663 14.6387C5.13649 10.2408 7.02109 7.34613 8.36074 5.69173Z" fill="black"/>
<path d="M60.3921 17.0907C60.1451 16.4745 59.4475 16.1747 58.8285 16.4213C58.2119 16.6679 57.9125 17.3679 58.1591 17.9849C58.1787 18.0342 60.1036 23.0154 57.4991 31.3767C54.9274 39.6338 50.5084 42.7258 50.4332 42.7775C49.8828 43.1454 49.734 43.8893 50.1004 44.442C50.3318 44.7905 50.7139 44.9791 51.1034 44.9791C51.3316 44.9791 51.563 44.9142 51.7674 44.7787C51.9772 44.6393 56.9396 41.2608 59.7955 32.0923C62.6517 22.923 60.4857 17.3248 60.3921 17.0907Z" fill="black"/>
<path d="M67.7402 23.7065C67.7026 23.0433 67.1224 22.5508 66.4714 22.5735C65.8082 22.6111 65.3012 23.1795 65.3388 23.8427C65.5075 26.8211 65.0612 30.0383 64.0125 33.405C62.6423 37.803 60.7577 40.6976 59.418 42.352C58.9999 42.8687 59.0794 43.6259 59.5958 44.044C59.8185 44.224 60.0859 44.3117 60.3517 44.3117C60.7021 44.3117 61.0493 44.1591 61.287 43.8662C63.3982 41.259 65.1348 37.8891 66.3089 34.1207C67.4438 30.4775 67.9253 26.9738 67.7402 23.7065Z" fill="black"/>
</g>
</svg>
