<svg width="50" height="50" viewBox="0 0 50 50" fill="none" xmlns="http://www.w3.org/2000/svg">
<g clip-path="url(#clip0)">
<path fill-rule="evenodd" clip-rule="evenodd" d="M24.9986 3.50218C30.6061 3.50218 35.7118 5.65103 39.5391 9.16923C37.6632 9.1189 35.7912 10.234 35.7138 12.7874C35.556 17.9495 41.8864 19.0491 38.4753 29.4323L35.6538 38.0209L27.9692 15.3844C27.8502 15.034 27.9886 14.8346 28.4193 14.8346H30.5919C30.7048 14.8346 30.7971 14.7382 30.7971 14.6202V13.3334C30.7971 13.2154 30.7046 13.1141 30.5919 13.1189C26.4776 13.2989 22.3875 13.3001 18.3221 13.1189C18.2089 13.1141 18.1169 13.2157 18.1169 13.3338V14.6206C18.1169 14.7386 18.2093 14.8351 18.3222 14.8351H20.5066C20.9925 14.8351 21.1286 14.997 21.2431 15.3102L24.4006 23.9453L19.6509 38.2874L11.8434 15.2909C11.7466 15.0024 11.8637 14.835 12.1415 14.835H14.6306C14.7435 14.835 14.8358 14.7386 14.8358 14.6205V13.3337C14.8358 13.2157 14.7431 13.1134 14.6306 13.1193C12.0191 13.258 9.39757 13.2859 6.95562 13.311C10.7876 7.40801 17.4366 3.50175 24.9972 3.50175L24.9972 3.50169L24.9986 3.50218ZM43.9046 14.7623C45.5564 17.8057 46.4943 21.2925 46.4943 24.9974C46.4943 33.1287 41.9764 40.2059 35.3155 43.8589L42.0195 24.8706C43.0581 21.9319 44.0222 17.9604 43.9041 14.7623H43.9041H43.9046ZM32.1953 45.2566C29.9448 46.0571 27.523 46.4937 24.9986 46.4937C22.8236 46.4937 20.7251 46.1694 18.7466 45.5693L25.3688 26.5917L32.1952 45.2576V45.2576L32.1953 45.2566ZM15.8002 44.43C8.53075 40.9825 3.50235 33.5764 3.50235 24.9984C3.50235 21.8185 4.19409 18.7999 5.43389 16.084L15.8006 44.4304L15.8007 44.4304L15.8002 44.43ZM24.9979 1.48497C37.981 1.48497 48.5104 12.0143 48.5104 24.9974C48.5104 37.9806 37.981 48.5099 24.9979 48.5099C12.0148 48.5099 1.48543 37.9806 1.48543 24.9974C1.48543 12.0143 12.0148 1.48497 24.9979 1.48497V1.48497ZM24.9979 -0.0012207C38.8018 -0.0012207 49.9971 11.1941 49.9971 24.998C49.9971 38.802 38.8018 49.9973 24.9979 49.9973C11.194 49.9973 -0.00134277 38.802 -0.00134277 24.998C-0.00134277 11.1941 11.194 -0.0012207 24.9979 -0.0012207V-0.0012207Z" fill="black"/>
</g>
<defs>
<clipPath id="clip0">
<rect width="50" height="50" fill="white"/>
</clipPath>
</defs>
</svg>
