<svg width="50" height="39" viewBox="0 0 50 39" fill="none" xmlns="http://www.w3.org/2000/svg">
<path d="M48.3626 0H1.63971C0.615618 0 0 0.615617 0 1.63971V31.5582C0 32.5829 1.02409 33.1974 2.04992 33.1974H4.90457V30.9938V30.739H3.27825C2.76621 30.739 2.45956 30.4306 2.45956 29.9185V3.27941C2.45956 2.76679 2.76562 2.45898 3.27825 2.45898H46.7229C47.2344 2.45898 47.5422 2.7662 47.5422 3.27941V29.9191C47.5422 30.4312 47.2355 30.7396 46.7229 30.7396H25.7157V30.9944V33.198H48.3626C49.3879 33.198 50 32.5829 50 31.5588V1.63971C50.0006 0.615617 49.3879 0 48.3626 0Z" fill="black"/>
<path d="M15.3113 9.44946C17.9268 9.44946 20.0466 11.5704 20.0466 14.1859C20.0466 16.8025 17.9263 18.9223 15.3113 18.9223C12.6941 18.9223 10.5743 16.8025 10.5743 14.1859C10.5743 11.5698 12.6941 9.44946 15.3113 9.44946Z" fill="black"/>
<path d="M20.1066 20.2327H10.5133C8.46805 20.2327 6.8103 21.8875 6.8103 23.9264V26.7013V30.7854V37.3606C6.8103 37.9995 7.35784 38.5214 8.02757 38.5214H22.5935C23.2626 38.5214 23.8108 37.9995 23.8108 37.3606V30.7854V26.7013V23.9264C23.8108 21.8875 22.1524 20.2327 20.1066 20.2327Z" fill="black"/>
<path d="M27.9006 8.3836C27.9006 7.88552 28.3725 7.47705 28.9497 7.47705H42.5544C43.1305 7.47705 43.6035 7.88552 43.6035 8.3836C43.6035 8.88226 43.1311 9.29074 42.5544 9.29074H28.9497C28.3725 9.29015 27.9006 8.88226 27.9006 8.3836Z" fill="black"/>
<path d="M27.9006 17.6655C27.9006 17.1663 28.3725 16.7578 28.9497 16.7578H42.5544C43.1305 16.7578 43.6035 17.1657 43.6035 17.6655C43.6035 18.1636 43.1311 18.5721 42.5544 18.5721H28.9497C28.3725 18.5715 27.9006 18.1636 27.9006 17.6655Z" fill="black"/>
<path d="M27.9006 13.024C27.9006 12.5253 28.3725 12.1174 28.9497 12.1174H42.5544C43.1305 12.1174 43.6035 12.5253 43.6035 13.024C43.6035 13.5232 43.1311 13.9311 42.5544 13.9311H28.9497C28.3725 13.9311 27.9006 13.5232 27.9006 13.024Z" fill="black"/>
<path d="M27.8994 22.305C27.8994 21.8075 28.3719 21.3984 28.9497 21.3984H37.3391C37.9163 21.3984 38.3882 21.8069 38.3882 22.305C38.3882 22.8037 37.9163 23.2121 37.3391 23.2121H28.9497C28.3719 23.2121 27.8994 22.8042 27.8994 22.305Z" fill="black"/>
</svg>
